<svg xmlns="http://www.w3.org/2000/svg" viewBox="0 0 1000 700" preserveAspectRatio="none">
  <defs>
    <mask id="frame-mask">
      <rect width="1000" height="700" fill="white"/>

      <circle cx="55" cy="55" r="28" fill="black"/>
      <circle cx="139" cy="55" r="28" fill="black"/>
      <circle cx="223" cy="55" r="28" fill="black"/>
      <circle cx="307" cy="55" r="28" fill="black"/>
      <circle cx="391" cy="55" r="28" fill="black"/>
      <circle cx="475" cy="55" r="28" fill="black"/>
      <circle cx="559" cy="55" r="28" fill="black"/>
      <circle cx="643" cy="55" r="28" fill="black"/>
      <circle cx="727" cy="55" r="28" fill="black"/>
      <circle cx="811" cy="55" r="28" fill="black"/>
      <circle cx="895" cy="55" r="28" fill="black"/>

      <circle cx="945" cy="105" r="28" fill="black"/>
      <circle cx="945" cy="189" r="28" fill="black"/>
      <circle cx="945" cy="273" r="28" fill="black"/>
      <circle cx="945" cy="357" r="28" fill="black"/>
      <circle cx="945" cy="441" r="28" fill="black"/>
      <circle cx="945" cy="525" r="28" fill="black"/>
      <circle cx="945" cy="609" r="28" fill="black"/>

      <circle cx="895" cy="645" r="28" fill="black"/>
      <circle cx="811" cy="645" r="28" fill="black"/>
      <circle cx="727" cy="645" r="28" fill="black"/>
      <circle cx="643" cy="645" r="28" fill="black"/>
      <circle cx="559" cy="645" r="28" fill="black"/>
      <circle cx="475" cy="645" r="28" fill="black"/>
      <circle cx="391" cy="645" r="28" fill="black"/>
      <circle cx="307" cy="645" r="28" fill="black"/>
      <circle cx="223" cy="645" r="28" fill="black"/>
      <circle cx="139" cy="645" r="28" fill="black"/>
      <circle cx="55" cy="645" r="28" fill="black"/>

      <circle cx="55" cy="609" r="28" fill="black"/>
      <circle cx="55" cy="525" r="28" fill="black"/>
      <circle cx="55" cy="441" r="28" fill="black"/>
      <circle cx="55" cy="357" r="28" fill="black"/>
      <circle cx="55" cy="273" r="28" fill="black"/>
      <circle cx="55" cy="189" r="28" fill="black"/>
      <circle cx="55" cy="105" r="28" fill="black"/>
    </mask>
  </defs>

  <rect width="1000" height="700" fill="black" mask="url(#frame-mask)"/>
</svg>
