<?xml version="1.0" encoding="UTF-8"?>
<svg id="Layer_1" xmlns="http://www.w3.org/2000/svg" width="1500" height="1500" version="1.1" viewBox="0 0 1500 1500">
  <!-- Generator: Adobe Illustrator 30.2.1, SVG Export Plug-In . SVG Version: 2.1.1 Build 1)  -->
  <path d="M937.78,353.91c7.84-9.8,15.68-19.61,23.53-29.41,24.08-17.92,54.64-25.59,78.88-44.01,3.47-2.29,2.44-9.19-2.17-9.36-21.71-.82-43.16,5.89-59.91,19.92-4.7,3.93-8.99,8.28-13.07,12.82,32.85-54.94-33.09-4.75-42.01,14.33-9.15,14.45-13.61,31.6-11.29,48.41-3.2,3.64-3.93,8.73.59,11.02-2.8,6.66-5.33,13.45-7.73,20.29-2.8,1.04-5.62,2.05-8.46,2.99-6.68,2.26-2.21,12.36,4.22,9.54-.83,5.94-8.2,14.92-1.44,19.27,2.28,1.09,6.06.14,6.91-2.53,2.24-7.07,4.5-14.18,6.89-21.24,11.33.32,119.78-68.37,89.99-74.74-24.87,2.34-51.6,9.01-69.35,27.11.5-.85.95-1.73,1.46-2.57,1.05-.18,2.11-.74,2.96-1.84h0Z" style="fill: #396341;"/>
  <path d="M759.78,651.69c-94.51-113.62-246.2-159.86-389.78-163.63-1.36-1.81-4.18-2.64-5.55-4.3-1.27-5.44,1.63-11.82-.33-17.29-15.65,19.02-3.77,36.96,7.44,54.21,4.2-4.98,6.42-11.83,5.2-19.07,137.47,4.91,282.41,49.87,372.81,158.7,5.5,6.62,15.7-1.99,10.2-8.61h0Z" style="fill: #396341;"/>
  <path id="Ranunculus02" d="M375.22,510.24c.72-2.8,1.78-5.72,1.55-8.64h.11c-.07-5.25-4.22-9.17-6.63-13.52h-.24c-1.36-1.8-4.18-2.64-5.55-4.3-1.07-7.36,2.3-15.28-2.2-22.35-6.38-10.07-18.8-19.97-31.13-16.81-15.83-28.87-82.51-27.52-82.4,11.55-11.03,5.64-13.78,19.73-12.57,31.46-28.18,45.22,33.62,84.75,74.37,74.18,15.47-4.66,34.5-8.88,44.54-22.52,3.96-11.17,17.61-15.21,20.79-26.26-.64-.81-.91-1.81-.64-2.79h0Z" style="fill: #ffb0c8;"/>
  <path d="M317.64,463.82c.31-.06,2.43-.03,1.64-.05,1.23-.05,4.92.74,4.92.79,1.3.33,4.22,1.8,4.58,2.06,2.07,1.49,4.83,4.39,7.16,1.62,1.08-1.42.93-3.32-.41-4.51-3.56-3.73-20.4-11.04-21.41-2.73.26,1.77,1.73,2.97,3.52,2.85v-.03Z" style="fill: #331d20;"/>
  <path d="M328.46,491.84c3.38.77,8.53,5.46,11.03,1.17,2.25-4.32-7.85-7.35-10.82-7.08-2.59.88-2.76,4.84-.21,5.91h0Z" style="fill: #331d20;"/>
  <path d="M264.9,520.3c5.56,2.67,10.97,5.63,16.21,8.88,1.43.88,3.65-.09,4.25-1.56,1.86-5.62-13.78-10.27-17.77-13.13-3.73-1.77-6.46,4.07-2.69,5.81Z" style="fill: #331d20;"/>
  <path d="M271.63,475.89c.53-.19,1.07-.35,1.62-.48-.27.06-.54.13-.81.19,1.26-.29,2.55-.41,3.85-.38-.29,0-.57-.02-.86-.03,1.3.05,2.57.25,3.81.62-.27-.08-.55-.17-.82-.25,3.87,2.35,7.49-3.56,3.34-5.61-14.18-4.89-18.93,6.23-10.12,5.92v.02h-.01Z" style="fill: #331d20;"/>
  <path d="M835.39,800.52c-47.86-60.32-23.21-91.16-31.93-152.49.24-11.18.48-22.37.73-33.55.61-16.34,4.04-40.15-15.08-47.28,1.05-12.01,7.23-29.24-4.76-37.47,13.23-20.26-4.33-42.55-24.97-25.29-8.62-8.85-19.57.27-26.3,6.65-24.87,19.16-37.02,48.05-43.24,78.11-4.82-4.73-11.45-7.21-17.78-2.58-9,6.58-6.45,20.63-6.78,29.8.73,41.84-4.74,79.78,13.22,118.91,17.6,37.74,44.61,73.26,70.67,105.48,21.7,33.65,52.5,4.38,76.01-11.9,10.41-7.07,20.31-16.15,10.21-28.4h0Z" style="fill: #fa966e;"/>
  <path d="M691.87,593.42c7.32,20.5,2.1,42.68,4.92,63.82,3.22,34.07,46.44,26.07,41.27,76.62-.65,4.07,5.66,5.13,6.32,1.05,5.01-51.91-33.62-48.58-40.53-74.29-4.5-22.91,2.26-47.14-5.99-69.49-1.39-3.88-7.38-1.61-5.99,2.28h0Z" style="fill: #c4543b;"/>
  <path d="M756.2,512.63c-1.63,17.46-14.58,30.66-21.14,46.33-10.55,24.18-12.28,52.09-4.6,77.34,1.18,3.95,7.16,1.66,5.99-2.28-7-23.43-5.47-49.26,4.16-71.73,6.84-16.41,20.33-30.28,21.92-48.59.33-4.08-5.98-5.17-6.32-1.05v-.02h0Z" style="fill: #c4543b;"/>
  <path d="M777.93,531.63c-3.27,15.17-13.98,27.5-17.21,42.78-6.05,23.18-3.61,47.79,2.63,70.67,1.39,3.86,7.44,1.62,5.98-2.28-7.82-28.26-8.83-59.79,5.19-86.29,3.94-7.66,8.2-15.23,9.73-23.82.72-4.06-5.6-5.12-6.32-1.05h0Z" style="fill: #c4543b;"/>
  <path d="M786.51,575.8c-6.08,21.63-7.6,44.46-4.52,66.72.56,4.07,6.94,3.44,6.37-.66-3.01-21.75-1.47-43.86,4.47-65,.76-4.05-5.6-5.15-6.32-1.06h0Z" style="fill: #c4543b;"/>
  <path d="M865.98,620.12c-12.2,69.84-4.76,142.96,21.16,208.95,1.5,3.83,7.5,1.57,5.99-2.28-25.55-64.93-32.89-136.89-20.82-205.62.71-4.06-5.61-5.12-6.32-1.05h0Z" style="fill: #331d20;"/>
  <path d="M548.26,268.73c.09-7.96-4.66-14.97-10.84-19.64,7.96-16.8,2.8-42.66-18.43-45.86-21.82-1.87-16.38,19.56-41.63,3.86-29.81-12.2-13.28,46.76-9.83,60.19,6.41,18.71,15.31,38.31,29.51,52.2-1.04,3.49,2.12,6.74,5.56,6.41,7.42-.28,2.49-16.19,12.59-26.51,9.19-13.5,33.41-10.46,33.06-30.64h.01Z" style="fill: #ffc059;"/>
  <path d="M970.49,1315.75c-3.79-7.97-7.69-15.89-11.47-23.87-7.13-62.96-16.51-125.66-28.18-187.94-.56-2.98-2.36-5.54-5.19-6.28,3.11-46.94-96.59-153.89-125.87-75.27-4.51-.73-8.96,2.93-7.99,8.3-3.12.88-4.8,3.81-4.99,7.07-5.91,102.29-20.4,204.08-43.14,303.99-.87,3.84,1.77,7.21,5.33,8.23,36.04,5.55,29.36-52.33,34.81-75.03,3.64-28.93,6.98-57.89,10.13-86.88,5.17,79.18-.95,158.89-4.53,238.09-.18,3.03,2.75,5.75,5.47,6.38,35.59,2.84,23.52-48.06,25.7-70.24.09-9.17.19-18.34.28-27.52,3.05,14.34,6.81,28.52,11.5,42.47,3.37,10.73,39.56,102.75,52.78,75.89,3.47-12.12-7.73-54.14-14.26-77.09,7.06-36.86,11.82-74.16,14.41-111.61,2.83,23.11,5.51,46.24,7.87,69.41.77,7.52,12.27,9.04,13.7,1.05,6.7-37.25-2.94-74.72-7.04-111.69,10.04,26.89,35.18,139.12,73.69,125.75,10.86-5.25.08-25.11-3.02-33.21h.01Z" style="fill: #396341;"/>
  <path d="M822.84,1274.56c-3.37,18.07-6.81,84.41,5.92,95.42,1.57-.16,3.22-1.82,2.85-3.52-6.5-29.84-7.37-60.71-2.46-90.85.66-4.07-5.65-5.13-6.32-1.05h.01Z" style="fill: #331d20;"/>
  <path d="M849.56,1268.15c-6.6,42.57,12.73,82.98,25.72,122.45,1.36,3.89,7.35,1.62,5.99-2.28-10.26-30.54-23.46-60.76-26.34-93.16-.69-8.68-.44-17.36.96-25.95.66-4.07-5.65-5.13-6.32-1.05h0Z" style="fill: #331d20;"/>
  <path d="M934.73,1245.61c-1.01,5.28,21.58,95.14,27.57,70.73-10.42-22.67-17.58-46.71-21.19-71.4-.59-4.06-6.97-3.43-6.37.66h-.01Z" style="fill: #331d20;"/>
  <path d="M1213.04,512.05c-23.72-84.51-10.48-9.31-69.77,14.21-21.01,6.33-49.23,7.64-66.69-7.63-3.13-3.48-7.98-4.95-12.09-2.02-1.2.86-21.18,77.17,10.27,95.84,8.57,5.09,24.28-32.42,34.88-49.74,1.58-2.58,5.56-1.62,5.71,1.4.56,11.29,1.69,22.54,3.52,33.7,2.07,8.16,1.44,18.05,6.97,24.78,40.69,20.91,81.99-78.27,87.2-110.54h0Z" style="fill: #366353;"/>
  <path d="M1113.5,541.78c-1.82,23.85.69,48.02,7.51,70.96,3.32,18.63,21.53,13.34,32.1,4.11,30.14-22.31,48.74-56.35,62.64-90.44,1.55-3.81-4.25-6.52-5.81-2.69-14.73,35.73-34.6,72.97-68.8,93.31-15.93,9.27-15.27-14.75-18.44-24.47-3.1-16.37-4.09-33.13-2.85-49.74.67-4.05-5.72-5.17-6.32-1.06l-.03.02Z" style="fill: #331d20;"/>
  <path d="M1112.32,541.54c-7.39,17.54-17.79,33.58-26.93,50.22-4.94,7.12-8.19,25.06-16.3,8.88-12.08-24.06-10.01-54.97.89-79.13,1.87-3.69-3.95-6.36-5.81-2.69-10.14,20.97-11.4,45.74-7,68.37,2.74,10.36,10.16,33.49,24.38,24.23,6.05-7.91,9.36-17.89,14.89-26.27,7.67-13.38,15.7-26.66,21.68-40.92,1.59-3.8-4.22-6.5-5.81-2.69h.01Z" style="fill: #331d20;"/>
  <path id="wrapper" d="M1217.18,546.94c5.34-9.89-9.93-15.75-13.01-4.9-95.56-25.13-163.48-115.85-257.67-144.25-33.74-7.37-78.63-78.04-147.82-74.83-17.6.82-195.51,103.74-212.95,106.41-48.05,5.14-86.44,34.6-126.72,58.51-62.53,33.56-123.64,144.51-136.04,181.69,3.4,2.51,6.91,4.86,10.4,7.25,79.28-15.36,437.87,265.51,426.74,300.76-35.74,85.35-79.51,167.99-97.18,259.92-.61,2.7,114.48,50.81,123.1,62.87,7.69,10.76,68.71,21.43,139.85-19.42,21.94-12.6,57.34-3.37,80.91-12.5,21.83-8.45,21.02-31.2,17.18-53.37-23.36-135.01-129.68-222.24-117.05-231.09,190.96-144.04,297.24-322.86,310.25-437.06h.01Z" style="fill: #cc7c45;"/>
  <path d="M817.13,1019.68c-25.76,88.67-33.61,182.48-23.16,274.22.47,4.09,6.84,3.45,6.37-.66-10.49-91.17-2.49-184.38,23.1-272.5.75-3.98-5.58-5.2-6.32-1.06h.01Z" style="fill: #331d20;"/>
  <path d="M784.14,1103.91c-13.73,32.72-26.06,66.01-36.92,99.79-.53,1.64-.15,3.46,1.56,4.25,1.42.66,3.72.1,4.25-1.56,8.47-26.32,17.81-52.36,28.03-78.06,2.89-7.27,5.86-14.52,8.88-21.73,1.59-3.8-4.21-6.5-5.81-2.69h0Z" style="fill: #331d20;"/>
  <path d="M971.47,894.69c-7.84,6.92-43.84,41.39-39.55,50.33,1.2,1,3.57,1.05,4.51-.41,10.73-16.64,23.76-31.77,38.76-44.71,3.1-2.67-.6-7.91-3.72-5.21h0Z" style="fill: #331d20;"/>
  <path d="M915.45,1172.07c12.95,21.37,22.27,44.95,27.4,69.41.35,1.69,1.67,3.05,3.52,2.85,12.55,1.4-30.64-101.48-30.92-72.26h0Z" style="fill: #331d20;"/>
  <path id="ribbon" d="M910.46,992.17c1.69-4.38-2.01-10.61-7.84-8.69-43.44,13.09-107.73,3.97-143.76-23.93-5.95-5.74-14.56,3.76-8.63,9.47,35.61,28.57,90.59,36.07,134.87,31.75-39.48,10.25-86.35-2.8-124.45-17.17-7.54-3.35-12.93,8.28-5.39,11.62,49.25,18.03,108.14,36.07,156.73,7.69,5.15-2.82,2.81-8.89-1.54-10.74h.01Z" style="fill: #f5e1cb;"/>
  <path d="M861.35,590.77c-6.19-12.46-8.56-26-10.08-39.71-6.3-104.04-62.01-88.13-122.88-30.44-31.19,21.65-37.72,35.49-45.59,71.81-4.84,15.6-12.95,28.52-22.27,41.77-26.67,39.85-3.44,92.51,28.75,121.94,2.03,0,3.75,1.68,4.01,3.45,56.61,35.8,183.94-27.53,200.02-89.26,6.7-31.03-19.23-54.1-31.97-79.57h.01Z" style="fill: #1c0e10;"/>
  <path d="M951.38,473.75c-21.83,26.46-40.51,97.07-63.89,122.22,3.88,3.6,56.33,7.52,60.62,10.62,17.9,12.96,41.89,25.26,64.68,22.63,52.46-15.42,126.34-50.41,152.32-100.75-35.91-16.97-67.57-43.57-100.73-65.75-25.75,11.08-95.09-10.68-113,11.03h0Z" style="fill: #1c0e10;"/>
  <path d="M799.02,360.87c1.22-35.27-61.95,34.83-64.69,45.7-24.98,39.89-20.51,88.31-12.64,132.62.41,7.39,8.43,9.57,13.71,13.16,8.61,7.15,20.45,5.23,23.23-6.47,13.63-61.7,9.09-127.86,40.4-185.01h-.01Z" style="fill: #1c0e10;"/>
  <path d="M693.19,639.34c-85.35-77.01-147.03-9.91-140.83,86.9,2.14,43.25,17.85,49.17,58.24,44.72,12.16-.55,24.31.94,36.43,1.74,26.49,1.08,53.54,4.51,79.9.65,35.21-7.33,41.53-40.24,22.41-67.65-12.61,9.18-42.98-58-56.15-66.36h0Z" style="fill: #1c0e10;"/>
  <path d="M399.73,548.29c-1.5,17.83-6.32,34.96-13.2,51.43-3.54,11.86-12.08,25.24-6.97,37.63,7.9,11.78,24.98,11.28,37.21,15.37,7.02,1.98,13.38,5.57,20.29,7.79,53.4,9.16,14.6-72.5,9.34-97.48-5.61-19.24-7.97-38.65-11.74-58.31-10.59,10.85-34.29,26.53-34.94,43.57h.01Z" style="fill: #1c0e10;"/>
  <path d="M1119.19,441.64c-69.03-53.38-176.46-39.37-228.78,30.68-9.3,1.11-18.89,2.83-25.92,8.75-10.86,3.96-3.59,29.65-1.26,38.27,2.66,39,100.08-14.93,144.23,8.74,4.81,1.97,9.35-3.35,6.42-7.74-13.16-19.72-32.28-36.33-54.95-43.76,36.58-1.03,79.49-16.47,111.71,7.05,5.31,4.38,11.14-3.27,6.65-7.99-18.8-19.81-43.49-33.36-69.94-39.36,36.47-4.91,73.88-4.71,106.3,14.07,5.09,2.95,10.23-5.23,5.52-8.72h.02Z" style="fill: #396341;"/>
  <path d="M636.92,425.43c-2.23-4.49-3.75-9.19-4.49-14.03,6.98-2.29-6.22-42.61-8.22-49.49-4.59-12.7-13-23.75-26.45-27.51-3.12-.87-6.61,2.57-6.03,5.67,8.46,30.85,3.54,77.16,38.15,91.93,3.76,1.23,9.31-2.03,7.05-6.57h-.01Z" style="fill: #1c0e10;"/>
  <path d="M682.99,315.78c.16-4.82-5.49-8.51-9.13-4.18-4.4,5.24-8.88,10.65-13.03,16.3,1.32-13.71,1.87-27.49,1.64-41.29-.09-5.18-7.99-6.22-9.89-1.65-10.93,27.72-19.96,77.84-9.18,104.9,1.85,7.54,4,49.62,12.05,48.38-.22.88-.41,1.77-.63,2.65,15.29,37.66,29.3-116.56,28.17-125.11h0Z" style="fill: #1c0e10;"/>
  <path d="M784.15,285.67c-36.51,12.1-47.96,57.63-57.8,89.38-2.14,7.67-3.47,15.58-3.89,23.58-.24,4.42,6,9.08,9.13,4.18,4.99-9.46,78.75-124.42,52.56-117.15h0Z" style="fill: #1c0e10;"/>
  <path d="M995.08,367.27c-31.32.22-61.59,11.98-85.27,32.2-6.72-2.93-8,5.48-7.26,10.29-.35,7.56,3.76,49.63,16.84,39.34,13.35-14.22,25.61-29.54,39.65-43.08,4.74-7.54,59.02-32.56,36.03-38.74h.01,0Z" style="fill: #1c0e10;"/>
  <path d="M820.43,826.97c-41.64-104.14-81.7-166.97-87.24-242.17-11.87-97.67-1.22-197.04,23.3-292.01.75-2.91-1.33-6.23-3.92-7.43-2.97-1.37-6.04-.33-8.25,1.86-58.77,58.38-72.98,147.17-62.53,226.55-32.9-110.8-44.34-228.01-33.33-343.07.7-7.29-10.22-11.83-13.13-4.06-37.74,100.97-22.9,213.4,13.71,312.47-26.04-39.74-26.44-92.18-62.98-125.99-2.44-2.39-6.8-1.92-9.12.29-6.62,5.46,6.3,20.35,6.95,28.6-5.13-6.92-10.31-13.81-15.59-20.61-3-30.46-20.86-59.47-39.92-83.06-6.59-7.66-13.75-15.63-23.55-19.05-6.19-2.16-12.9,4.29-8.56,10.32,4.26,5.91,7.52,12.37,10.39,19.04-9.5-10.24-19.21-20.33-29.18-30.17.14-20.38-36.7-81.3-66.95-90.06-7.44-2.88-13.04,6.1-7.35,11.62,9.87,9.58,16.6,21.5,23.11,33.56-16.81-13.62-36.42-23.43-54.46-34.68-11.97-10.4-23.8-20.98-35.95-31.17-11.35-9.53-23.76-18.03-38.59-20.77-17.71,1.21-1.14,20.42,4.43,26.88-8.87-2.24-17.83-4.11-26.83-5.67-21.62-33.46-171.4-23.35-81.9-4.71-20.75,1.2-41.36,3.66-61.44,9.11-6.83,2.81-27.47,4.19-28.66,11.92-73.46,36.83,75.23,8.22,88.28-7.08,10.14-.67,20.31-.88,30.48-.65-4.41,1.69-35.32,14.25-20.75,18.34,38.86-5.04,80.7-14.37,118.75-1.83-8.74-.89-17.51-1.53-26.19-2.09-7.48-.49-11.53,9.55-4.06,13.13,36.83,19.04,78.24,39.4,120.31,34.22,8.48,6.1,16.68,12.57,24.66,19.31-16.73-7.58-35.8-5.03-53.68-6.53-32.32,8.87,41.59,38.62,50.78,41.63,11.66,24.24,28.54,45.42,49.01,62.25-6.79,1.08-6.69,9.89-3.2,14.46-71.95-68.31-148.73-66.13-204.91,19.01-3.55,5.88-18.91,45.76-10.04,37.55,114.38-108.05,221.43-19.3,311.82,67.49-66.65-40.66-174.92-20.3-190.92,65.28-.98,5.54,6.19,10.82,10.87,6.78,22.46-19.4,51.91-27.52,81.26-26.6,110.96,7.39,178.01,113.12,244.23,190.04,26.68,34.13,51.9,69.4,75.6,105.66,1.63,2.49,3.96,3.23,6.16,2.87,2.02,4.71,4.05,9.42,6.07,14.13,3.5,8.18,16.49,3.3,12.96-4.93l.05.02Z" style="fill: #396341;"/>
  <path d="M1176.39,109.66c-13.88-18.99-28.25-39.98-50.71-48.75-22.44-8.88-47.9-13.48-72.02-10.23,4.32-3.45,1.13-10.56-4.88-8.96-29.55,6.11-49.71,27.49-72.64,44.51,8.03-12.02,15.36-24.51,21.92-37.4,2.55-5.31-4.9-10-8.71-5.52-15.5,15.86-31.75,35.46-36.38,57.3-.71.99-1.66,2.02-2.01,3.16-8.59,6.58-16.82,13.45-24.56,20.45,2.75-6.01,8.02-46.23-7.39-35.56-11.25,21.9-50.21,58.14-37.15,82.47-8.23,10.06-16.07,20.46-23.48,31.18-6.04,7.65-13.36,15.76-16.28,25.06-.72,1.17-1.46,2.32-2.17,3.5,5.74-98.9-34.16-3-39.22,32.51-.67-18.81-2.83-37.66-7.44-55.7-.7-9.24-21.95-52.76-28.02-31.49,5.11,28.64,10.16,57.41,11.5,86.52,2.95,61.07-18.86,119.31-24.39,179.63-3.04,29.65-4.06,59.48-4.02,89.27.46,34.34.58,68.74,3.05,103,2.64,48.05,14.63,94.79,19.52,142.52.43,3.11,2.96,4.51,5.42,4.44,11.26,39.39,26.38,53.15,7.98-10.45-7.34-159.99,69.34-492.42,237.17-552.25,4-1.37,4.6-8.06.34-9.58-70.4-23.01-131.85,38.99-166.42,93.63,9.66-32.05-29.33-1.67-38.36,5.71,10.22-23.82,16.1-49.52,31.04-71.13,5.4,3.75,23.9-5.12,31.37-5.96,8.28-2.22,15.24-4.92,21.54-10.93,13.35-12.73,25.87-26.45,38.75-39.65,8.14-15.56-34.28-8.97-41-5.95,1.63-3.24,3.33-6.43,5.09-9.59,5.49-3.25,7.53-10.69,11.2-15.81,7.66-7.87,15.65-15.44,23.94-22.65,1.67.16,3.36-.58,4.66-1.82,21.08-18.88,53.7-15.36,75.03-34.1,3.48-2.97,2.03-10.65-3.56-9.41-6.49,1.44-12.86,3.26-19.16,5.29,14.65-7.8,29.93-14.35,46.05-18.56,23.6,3.87,47.32,9.69,66.14,25.02,4.41,3.6,11.55-2.42,7.56-7.02-7.12-8.21-14.99-15.56-23.57-22.03,31.79,5.39,52.42,33.91,76.77,52.33,4.72,3.59,10.82-2.01,7.56-7.02l-.06.02Z" style="fill: #396341;"/>
  <path d="M832.25,813.71c-33.13-103.5-33.52-217.08-1.17-320.83,1.12-3.57.34-7.49-3.37-9.21-3.05-1.41-8.08-.22-9.21,3.37-26.23,83.75-32.26,173.45-16.95,259.92,4.29,24.25,10.23,48.22,17.73,71.68,2.72,8.5,15.68,3.56,12.96-4.93h.01Z" style="fill: #fff;"/>
  <path d="M406.3,532.41c121.03-108.03,221.57,31.65,301.5,114.86,2.47,2.61,4.94,5.23,7.4,7.84,3.03,2.65,7.33-2.2,4.1-4.92-70.02-66.96-138.64-182.32-250.62-159.4-22.54,5.11-43.88,15.75-60.99,31.38-2.17,1.98-4.29,4.03-6.33,6.15-2.87,2.98,2.08,7.05,4.92,4.1h.02,0Z" style="fill: #331d20;"/>
  <path id="Protea01" d="M645.14,622.29c-11.19-48.58-53.9-80.42-95.07-103.76-21.99-10.78-69.82-48.46-81.65-8.61-20.85-19.01-42.8.72-32.16,24.57-27.73.69-20.28,37.47-13.71,54.77-33.37,48.89,50.47,111.56,89.25,130.88,61.76,35.68,149.97-27.04,133.34-97.85h0Z" style="fill: #e04e01;"/>
  <path d="M585.23,541.6c-11.48-10.81-99.21-30.45-77.68,4.61,7.3,8.11,17.74,12.65,26.79,18.44,10.37,6.64,20.46,13.74,31.13,19.9,3.7,1.79,6.45-4.04,2.69-5.81-8.59-4.96-16.78-10.58-25.08-16.01-5.74-5.07-50.7-25.59-24.98-29.37,10.4-1.06,21.03-.32,31.27,1.71,11.65,2.31,22.82,6.51,33.16,12.34,3.6,2.03,6.26-3.8,2.7-5.81h0Z" style="fill: #331d20;"/>
  <path d="M643.67,645.63c-18.64-41.89-61.88-66.2-105.01-76.03-9.72-1.73-22.3-7.48-30.6.38-7.06,8.68,0,20.63,7.32,26.68,7.61,6.53,17.23,10.08,26.29,14.06,32.36,14.18,63.72,33.5,84.87,62.4,2.43,3.33,7.65-.39,5.21-3.72-24.58-34.05-62.59-54.17-100.37-70.25-19.07-6.9-32.76-34.39-.28-24.71,43.23,8.65,87.73,31.57,106.6,73.46,1.68,3.74,7.68,1.5,5.99-2.28h-.02,0Z" style="fill: #331d20;"/>
  <path d="M517.4,596.14c-14.88-7-36.52-1.05-27.24,18.8,3.11,5.69,8.78,9.11,14.12,12.45,24.55,15.18,48.8,30.87,73.51,45.78,13.34,7.89,27.24,14.85,42.3,18.74,3.99,1.03,5.02-5.29,1.05-6.32-37.17-10.69-67.62-36.56-100.7-55.6-8.72-6.68-22.69-10.3-25.98-21.79-1.79-11.63,14.02-8.46,20.24-6.26,3.78,1.72,6.46-4.14,2.69-5.81h.01Z" style="fill: #331d20;"/>
  <path d="M530.37,636.2c-18.2-7.17-36.68-14.96-55.18-20.87-15.61,2.48-5.82,20.37.72,27.62,29.38,39.24,76.91,59.58,123.53,70.08,4.02.9,5.07-5.42,1.05-6.32-47.98-10.71-97.8-32.63-124.95-75.62-5.18-7.83-2.3-12.01,6.34-6.84,15.1,6.34,30.84,11.07,45.8,17.74,3.77,1.68,6.46-4.13,2.7-5.81v.02h-.01Z" style="fill: #331d20;"/>
  <path d="M473.84,633.83c-10.46-9.58-18.27-28.22-33.74-29.21-17.98,2.29-8.85,23.4-2.49,33.03,20.19,37.4,51.4,68.72,88.7,89.08,3.62,1.99,6.29-3.84,2.69-5.81-37.84-20.7-69.14-53.15-88.6-91.63-3.61-5.77-9.53-21.18,3.26-17.79,10.32,6.09,16.52,17.67,24.95,26.06,2.68,3.09,7.92-.61,5.21-3.72h.02Z" style="fill: #331d20;"/>
  <path d="M427.47,593.05c.44.1.88.22,1.31.34-.69-.2-.07-.01.08.04,1.49.51,2.93,1.2,4.27,2.04-.26-.16-.28-.17-.22-.12,1.57.96,3.42,2.68,4.1,3.45,2.1,2.48,3.08,4.24,4.02,7.28,1.4,3.88,7.44,1.6,5.98-2.28-2.54-8.52-9.89-15.07-18.48-17.06-4.07-.74-5.15,5.6-1.06,6.32h0Z" style="fill: #331d20;"/>
  <path d="M438.48,542.1c10.3,25.53,25.03,50,49.83,63.79,1.48.89,3.58-.11,4.25-1.56.79-1.71-.07-3.36-1.56-4.25-16.48-9.9-29.98-24.71-38.34-42.02-3.12-6.51-5.31-13.42-8.97-19.68-2.08-3.56-7.28.19-5.21,3.72h0Z" style="fill: #331d20;"/>
  <path d="M471.05,524.84c9.33,19.16,23.41,35.79,40.94,47.93,3.37,2.33,7.49-2.58,4.1-4.92-16.61-11.5-30.2-27.11-39.06-45.29-1.5-3.84-7.52-1.57-5.98,2.28h0Z" style="fill: #331d20;"/>
  <path d="M474.63,514.99c11.6,4.24,23.07,10.11,33.22,17.15,1.42.99,3.34,1,4.51-.41,5.21-6.71-29.56-20.19-35.03-22.55-3.78-1.7-6.45,4.15-2.7,5.81h0Z" style="fill: #331d20;"/>
  <path d="M593.16,588.01c-3.04-7.25-16.01-26.12-.29-25.99,5.26-.47,13.5,7.72,17.21,2.7,2.52-5.6-13.67-8.53-17.51-9.14-21.8.31-12.19,23.21-5.41,34.71,1.5,3.84,7.52,1.57,5.98-2.28h.02Z" style="fill: #331d20;"/>
  <path d="M566.73,618.45c-9.04-6.06-25.59-3.29-22.81,10.33,3.35,11.44,10.59,21.58,16.43,31.89,2.18,3.51,7.38-.23,5.21-3.72-5.04-8.11-9.85-16.48-13.85-25.17-5.88-10.9,4.86-12.21,12.33-7.51,3.75,1.73,6.44-4.08,2.7-5.81h-.01Z" style="fill: #331d20;"/>
  <path d="M561.01,655.93c-17.34-.75-64.04,2.27-34.81,27.13,3.27,2.51,7.37-2.41,4.1-4.92-2.74-2.41-6.75-5.44-6.86-9.36,3.24-6.63,30.64-6.03,38.23-6.47,4.1-.33,3.47-6.78-.67-6.37h.01Z" style="fill: #331d20;"/>
  <path d="M487.44,689.17c1.5-10.61,28.95-.96,36.57-.74,4.05.76,5.11-5.56,1.05-6.32-13.23-.94-38.96-12.58-43.94,6-.48,4.08,5.84,5.16,6.32,1.05h0Z" style="fill: #331d20;"/>
  <path d="M787.63,689.15c-78.92-144.2-105.11-316.24-73.15-477.45,2.4,1.35,4.94,2.42,7.57,3.23-4.47-13.57-19.75-22.4-29.8-8.87,3.11,1.19,6.4,1.78,9.65,1.68-32.91,164.32-6.62,340,73.81,487.13,4.07,7.44,16.03,1.78,11.94-5.72h-.02Z" style="fill: #396341;"/>
  <path id="Ranunculus01" d="M682.52,199.47c1.13-.11,2.32.29,3.2,1.47,9.43,9.63,23.5-1.13,33.27,12.89,9.74,4.06,21.82,3.69,31.17-1.94,16.41-2.57,34.82-13.76,37.06-31.48,11.48-9.1,22.26-29.24,9.89-41.66.63-8.75-5.8-16.3-13.5-19.36,5.97-23.61-10.95-37.94-33.34-37.13-14.57-23.59-47.22-8.91-60,9.02,0,.01-.01.02-.02.04-14.86,1.6-26.32,16.25-24.9,31.18.02,5.84,5.24,11.7.27,16.69-12.15,14.83-7.39,34.97,8.93,44.24,2.62,5.25,3.26,11.82,7.95,16.05h.02Z" style="fill: #ffb0c8;"/>
  <path d="M688.49,124.92c.18.63.35,1.27.5,1.91-.06-.27-.13-.54-.19-.81.71,3.01,1.09,6.08,1.15,9.17.03,1.68,1.91,3.09,3.52,2.85,5.82-2.06,1.54-10.94,1-15.4-1.44-3.87-7.41-1.63-5.99,2.27h0Z" style="fill: #331d20;"/>
  <path d="M732.73,137.87c-1.16,5.49-2.76,10.06-5.24,15.35-.72,1.51-.03,3.6,1.56,4.25,6.55,1.78,8.27-14.01,9.99-18.54.73-4.06-5.62-5.16-6.32-1.06h.01Z" style="fill: #331d20;"/>
  <path d="M746.2,168.84c-1.42,3.35-4.3,10.64,2.26,9.43,2.44-1.36,3.96-6.57,3.65-9.22-.87-2.58-4.87-2.76-5.91-.21h0Z" style="fill: #331d20;"/>
  <path d="M778.2,122.11c0,3.59-3.73,10.13,1.32,11.55,5.27.22,3.82-7.05,5-10.49.72-4.07-5.64-5.16-6.32-1.06Z" style="fill: #331d20;"/>
  <path d="M730.34,85.42c.26,4.53-2.27,17.75,4.09,18.1,5.77-1.58.83-10.07,2.05-14.44.05-.71.95-6.1-2.46-6.3-1.61-.19-3.53.84-3.69,2.63h.01Z" style="fill: #331d20;"/>
  <path d="M980.35,607.32c-15.93-11.94-32.98-29.16-54.24-27.21,45.23-17.45,93.97-25.97,142.43-24.15,7.55.3,11.41-9.26,4.06-13.13-61.17-36.24-124.67-48.47-186.11-5.09,18.77-20.05,39.63-38.15,62.29-53.79,15.3-10.56,31.68-20.12,40.84-36.97,6.25-33.05-99.9,33.74-106.87,44.5-13.79,12.26-26.33,25.87-37.13,40.84-16.38,22.66-28.12,48.11-39.8,73.39-8.3,7.76-16.59,15.54-24.91,23.28-5.02,5.18,2.31,14.4,8.4,10.48-2.17,6.84-12.88,15.93-8.7,22.75-3.68,6.31,5.99,13.59,11.66,7.53,2.33-2.49,4.74-4.89,7.14-7.31,9.67-4.27,17.56-13.27,26.86-18.69,2.38,3.1,6.3,3.23,9.5,1.41,27.56-15.63,60.73-20.94,91.81-14.87,32.62,6.37,61.2,24.72,86.46,45.61,14.75,12.2.23-41.09-33.69-68.59h0Z" style="fill: #396341;"/>
  <path d="M924.54,462.4c19.66-9.43,40.73-17.85,62.32-20.84-.92,18.71-27.64,28.88-40.59,39.67-23.55,16.31-43.85,36.31-62.78,57.67-28.94,26.43-59.9,51.93-78.89,86.93-2.01,3.61,3.82,6.27,5.81,2.69,10.63-19.07,24.72-35.72,40.3-50.91,11.66-11.48,24.26-21.97,36.2-33.14,19.65-21.95,40.43-42.71,64.92-59.35,15.33-12.09,42.39-22.4,41.42-45.3-3.61-10.7-26.24.54-34.19,1.77-3.64,1.08-54.28,17.63-34.52,20.81h0Z" style="fill: #331d20;"/>
  <path d="M930.67,580.52c-53.16-20.05-105.46,31.67-141.22,65.27-2.88,2.96,2.07,7.04,4.92,4.1,34.17-31.51,82.97-81.69,133.61-63.55,3.79,1.62,6.49-4.19,2.69-5.81h0Z" style="fill: #331d20;"/>
  <path d="M1188.57,556.27c-124.97-25.42-221.93,81.03-320.8,139.25-99.31,57.98-226.69,78.52-333.35,28.47-52.66-25.91-101.03-69.36-163.38-65.35-8.43,1.54-28.03-1.08-28.02,10.32.8,5.3,6.05,7.35,10.83,5.6,82.61,43.07,161.37,93.28,235.88,149.17,14.43,10.49,29.61,20.49,46.76,25.9,216.44,37.15,281.28-20.61,432.11-158.62,24.94-21.81,52.35-40.41,79.36-59.5,21.73-15.68,69.25-46.63,40.6-75.25h.01Z" style="fill: #cc7c45;"/>
  <path d="M1414.49,602.9c-27.45-19.56-56.37-39.55-88.27-50.83l52.08,7.36c2.17-22.66-71.76-42.29-93.05-42.55-44.22-4.71-85.31,13.52-128.24,20.04-8.68,2.27-17.9,2.96-26.64,5.64,132.65-62.77,118.13-90.85-16.16-37.96-44,19.87-87.57,50.55-105.96,96.86-23.99,16.52-46.48,35.04-67.73,54.94-6.52,6.11,2.86,16.33,9.38,10.21,23.56-22.09,48.78-42.46,75.77-60.14,13.4,4.07,28.98,1.9,42.57,6.95,12.83,3.84,22.79,12.24,34.73,17.89,26.18,11.41,55.49,14.38,83.81,14.36,7.74-.13,9.98-10.84,2.42-13.53-41.32-14.7-81.94-43.44-126.04-47.7,21.79-11.6,44.9-21.27,68.75-27.86-10.18,6.94,49.93,36.61,71.17,54.62,41.26,28.37,95.37,43.19,145.06,33.9,6.59-1.45,7.18-11.44.56-13.36-14.69-4.26-27.09-13.11-39.73-21.4-35.51-23.36-74.13-41.33-112.83-58.69,33.19.36,110.97,25.81,145.48,42.86,20.88,12.06,44.11,22.91,68.82,21.14,6.71-.48,10-8.52,4.04-12.76h.01Z" style="fill: #396341;"/>
  <path d="M1130.09,545.25c-4.09,2.36-21.73,3.62-19.5,9.57,2.41,5.32,16.83-3.17,21.78-3.59,3.88-1.41,1.6-7.44-2.28-5.98Z" style="fill: #331d20;"/>
  <path d="M1312.62,549.1c-33.93-17.03-73.61-6.52-109.78-5.6-4.11.28-3.45,6.65.66,6.37,35.16-.72,73.38-11.15,106.42,5.04,3.65,1.93,6.33-3.89,2.7-5.81Z" style="fill: #331d20;"/>
  <path id="Protea03" d="M974.37,710.82c5.59-6.58,12.36-14.64,10.82-23.93,13.66-9.17,20.96-29.94,7.92-42.7,9.38-10.92,4.69-31.18-10.97-32.57,5.03-11.99-7.12-22.95-18.66-23.17-7.9.26-22.63-3.05-29,.59-27.88-18.33-72.81,1.87-98.4,17.47-186.17,101.88,10.3,256.74,138.29,104.33v-.02Z" style="fill: #e04e01;"/>
  <path d="M984.75,683.53c-11.08-8.48-22.77,2.79-30.54,10.46-8.85,7.87-18.2,15.17-27.98,21.86-30.57,20.92-65.3,35.77-101.6,43.23-1.69.35-3.04,1.68-2.85,3.52.16,1.59,1.81,3.2,3.52,2.85,52.03-10.56,100.87-35.98,139.42-72.47,3.92-3.55,10.68-8.83,15.93-4.54,3.2,2.61,7.29-2.31,4.1-4.92h0Z" style="fill: #331d20;"/>
  <path d="M964.42,692.09c15.45-19.47,19.24-61.97-15.1-33.71-32.17,23.57-65.32,46.4-101.93,62.58-16.23,7.17-33.09,13-50.43,16.79-4.04.44-3.49,6.91.67,6.37,59.83-13.09,111.56-48.08,160.09-83.96,2.34-1.73,6.88-5.96,10.11-4.5,6.32,6.29-3.92,26.04-8.33,32.33-2.38,3.35,2.54,7.46,4.92,4.1h0Z" style="fill: #331d20;"/>
  <path d="M933.69,595.52c3.64,2.64.98,8.31-2.11,10.32-6.23,3.6-13.83,1.96-20.67,2.83-56.07,10.52-111.84,45.39-137.77,97.38-1.79,3.72,4.02,6.41,5.81,2.7,25.93-50.9,81.79-86.43,137.73-93.99,7.52-.19,16.61-.11,21.76-6.61,3.97-5.01,5.13-13.35-.66-17.54-3.33-2.41-7.44,2.5-4.1,4.92h0Z" style="fill: #331d20;"/>
  <path d="M926.78,616.08c46.11,11.75-29.76,28.29-41.43,34.82-40.89,16.74-78.72,40.95-111.02,71.11-2.64,3.06,2.19,7.3,4.92,4.1,43.1-41.46,97.47-67.28,153.61-85.88,23.67-9.79,18.05-26.42-5.01-30.47-4.13-.56-5.07,5.77-1.07,6.32h0Z" style="fill: #331d20;"/>
  <path d="M936.55,637.51c9.33,1.23,29.52,1.97,16.52,15.2-2.2,4.3-11.69,7.22-9.3,12.57,4.39,4.78,11.88-6.68,15.11-9.55,14.75-18.01-6.34-23.71-21.27-24.54-4.08-.63-5.15,5.69-1.06,6.32h0Z" style="fill: #331d20;"/>
  <path d="M977.71,609.32c-6.13,1.44-11.78-2.93-17.64-4.15-6.8-1.88-13.88-2.54-20.92-2.19-4.11.21-3.45,6.58.66,6.37,7.16-.36,14.43.52,21.25,2.75,6.23,2.04,12.24,5.34,18.92,3.2,3.93-1.26,1.64-7.24-2.28-5.99h.01Z" style="fill: #331d20;"/>
  <path d="M990.85,635.25c-5.29-1.54-30.46-3.72-28.98,4.88.65,1.72,2.47,2.35,4.13,1.85,7.75-2.31,15.97-2.37,23.8-.42,4.06.75,5.15-5.62,1.06-6.32h-.01Z" style="fill: #331d20;"/>
  <path d="M990.4,646.36c-4.39.25-6.2,6.21-7.58,8.52-1.11,1.74-2.46,3.35-3.96,4.77-.63.59-3.17,2.56-4.64,3.28-.8.11-3.31,2.47-2.18,4.29,4.92,7.49,17.39-9.39,18.95-14.32-.38.67,0,.04.11-.09.1-.12.55-.42.18-.22-.58.31.81-.29-.29.17,3.16.02,4.65-6.32-.61-6.41h.02Z" style="fill: #331d20;"/>
  <path d="M842.84,682.85c8.08-2.46,62.97-19.56,51.02,2.19-6.97,12.88-18.72,23.11-31.62,29.82-1.54.78-2.52,2.4-1.85,4.13,3.13,7.11,20.55-9.29,24.3-12.24,24.34-22.42,25.02-45.56-14.33-37.21-10.14,1.49-20.13,3.96-29.82,7.3-3.9,1.34-1.62,7.33,2.28,5.99l.02.02Z" style="fill: #331d20;"/>
  <path d="M853.91,726.82c13.95-3.37,71.3-21.45,38.74,9.66-3.19,2.59.52,7.82,3.72,5.21,5.35-4.36,11.56-10.92,12.18-18.17.95-7.28-5.66-12.76-12.67-11.44-4.05-.36-63.5,8.54-41.97,14.75h0Z" style="fill: #331d20;"/>
  <path d="M837.32,680.73c5.68-8.3,31.34-37.52,24.39-46.24-4.07-4.39-11.66-2.52-16.22.17-3.38,2.37.35,7.59,3.72,5.21,1.37-.92,8.45-3.19,7.41.07-6.23,13.23-15.17,25.23-24.23,36.68-2.61,3.2,2.32,7.3,4.92,4.1h.01Z" style="fill: #331d20;"/>
  <path d="M825.89,651.54c6.41-10.16,15.17-18.32,23.61-26.68,8.58-7.46,5.79-25.05-7.74-21.73-3.92,1.29-1.64,7.27,2.28,5.99,1.2-.39,2.46.3,3.23,1.22,3.55,5.94-3.65,11.5-7.57,15.11-3.73,4.19-23.21,21.72-18.34,26.51,1.22,1.02,3.54,1.03,4.51-.41h.02Z" style="fill: #331d20;"/>
  <path d="M792.76,468.36c-26.97,65.46-21.81,137.62-26.91,206.83-.64,4.02,5.7,5.2,6.32,1.06,5.17-68.61-.22-140.25,26.4-205.2,1.57-3.81-4.24-6.51-5.81-2.69h0Z" style="fill: #331d20;"/>
  <path d="M315.77,175.58c24.18,1.52,47.84,7.71,69.64,18.31,3.71,1.81,6.4-4.01,2.69-5.81-3.4-4.98-90.32-30.42-72.34-12.49h.01Z" style="fill: #331d20;"/>
  <path id="Protea02" d="M931.64,403.47c-.66-19.76,4.84-43.88-9.13-60.08-3.66-12.23-8.82-30.39-24.13-30.99-4.45-15.16-26.69-22.71-36.59-8.56-16.02-13.12-33.95,6.87-42.56,19.74-21.17.52-36.07,44.88-45.36,61.57-12.81,31.22-29.83,67.45-16.48,101.11,12.76,29.27,60.82,48.21,90.52,44.61,60.86-7.39,81.86-75.12,83.71-127.38l.02-.02Z" style="fill: #e04e01;"/>
  <path d="M820.71,324.89c4.07,22.72-8.37,43.52-19.14,62.47-17.49,30.59-30.49,64.35-32.9,99.75-.62,4.04,5.68,5.18,6.32,1.06,2.36-34.3,14.64-67.13,31.65-96.78,5.66-9.99,11.61-19.91,15.75-30.65,4.45-11.56,6.92-24.16,4.71-36.5-.72-4.03-7.1-3.41-6.37.66h-.02Z" style="fill: #331d20;"/>
  <path d="M828.95,345.98c58.45-53.46-23.17,97.57-22.38,113.43-1.95,4.95-15.03,61.51-1.33,46.27,1.67-44.11,21.87-84.22,38.87-124.05,5.15-12.93,12.1-25.87,12.23-40.08-.91-24.58-20.66-10.24-31.11-.78-3.24,2.54.47,7.76,3.72,5.21h0Z" style="fill: #331d20;"/>
  <path d="M859.12,351.91c26.93-33.49,16.31,35.29,14.3,47.79-4.83,28.48-13.8,56.03-23.11,83.31-4.26,12.48-8.94,26.04-19.43,34.72-3.16,2.62.54,7.85,3.72,5.21,22.03-11.69,70.27-178.72,38.68-185.97-8.34-1.91-14.63,4.86-19.09,10.85-2.46,3.3,2.46,7.41,4.92,4.1h.01Z" style="fill: #331d20;"/>
  <path d="M887.64,355.75c19.1-36.73,21.61,26.02,18.78,38.66-4.83,38.45-7.97,79.96-31.35,112.36-2.44,3.31,2.48,7.42,4.92,4.1,20.76-15.88,54.72-173.92,16.67-172.41-7.87,1.02-11.88,8.04-14.83,14.6-1.7,3.76,4.12,6.45,5.81,2.69h0Z" style="fill: #331d20;"/>
  <path d="M913.96,355.65c.5-1.03,1.01-2.06,1.61-3.04-.15.23-.3.47-.44.7.51-.8,1.08-1.55,1.77-2.21-.2.19-.4.37-.6.56.45-.41.93-.77,1.47-1.06l-.72.39c.49-.26,1.01-.46,1.55-.6-.27.06-.54.13-.81.19.45-.1.9-.16,1.36-.15-.29,0-.57-.02-.86-.03.41.01.82.07,1.21.19-.27-.08-.55-.17-.82-.25,3.81,2.52,7.52-3.41,3.38-5.53-5.85-4.24-18.69,7.9-12.37,12.4,1.63.67,3.47.06,4.25-1.56h.02Z" style="fill: #331d20;"/>
  <path d="M895.66,313.83c-6.6,6.48-.79,18.01-1.13,26.25.44,4.09,6.82,3.45,6.37-.66-.59-6.35-1.56-12.69-1.95-19.05-.02.49.11-.68.13-.8.22-.86-.16.43.14-.37-.2.25-.18.23.05-.07,3.13-1.44.38-7.99-3.61-5.27v-.03Z" style="fill: #331d20;"/>
  <path d="M862.8,306.26c-.88,11.19-2.28,22.34-4.2,33.4-.71,4.06,5.61,5.12,6.32,1.05,1.92-11.06,3.33-22.2,4.2-33.4.64-4.07-5.69-5.16-6.32-1.06h0Z" style="fill: #331d20;"/>
  <path d="M854.37,306.22c-2,4.61-7.23,6.58-10.41,10.26-2.86,3.41-11.25,16.48-6.2,19.65,1.43.66,3.71.09,4.25-1.56,3.23-15.2,11.71-15.05,18.17-25.66,1.73-3.75-4.11-6.47-5.81-2.69Z" style="fill: #331d20;"/>
  <path d="M866.07,463.23c5.42-9.55,10.75-20.8,19.62-27.42,11.16-.3,9,17.65,7.33,24.91-.41,1.68,1.02,3.42,2.63,3.69,6.74-.23,4.82-14.86,4.73-19.68-.16-9.9-11-20.32-20.28-13.01-4.07,3.37-7.24,8.23-10.22,12.55-3.57,5.2-6.79,10.63-9.62,16.27-1.85,3.69,3.97,6.37,5.81,2.69h0Z" style="fill: #331d20;"/>
  <path d="M930.92,411.95c-7.33-8.08-16.55,3.41-19.63,10.16-1.3,3.94-8.67,9.73-3.63,13.18,4.67,2.5,9.38-12.14,11.96-14.73,1.1-1.58,2.14-3.04,3.64-4.03.49-.31.73-.45,1.57-.73.46-.15-.65.04.24-.06.2-.02.39-.05.58-.06-.57.04.01.02.18.04.3.04-.32-.25.13.06-.18-.12-.6-.62-.28-.08,2.34,3.41,7.62-.34,5.21-3.73l.03-.02Z" style="fill: #331d20;"/>
  <path d="M795.13,421.51c11.66-4.22,8.21,30.98,8.93,37.86-.04,1.73,1.95,3.02,3.52,2.85,5.63-1.36,1.95-15.06,2.64-19.81.59-11.58-3.7-36.26-20.02-25.01-2.69,3.14,2.24,7.26,4.92,4.1h.01Z" style="fill: #331d20;"/>
  <path d="M810.25,475c8.83-10.05,14.14-26.56,27.8-30.69,14.99.02,13.31,19.76,12.13,30.19-.65,4.08,5.7,5.16,6.32,1.06.82-11.62,2.82-26.08-7.61-34.26-10.51-8.54-23.39.46-29.53,9.94-4.78,6.48-9.36,13.11-14.04,19.67-2.38,3.34,2.53,7.46,4.92,4.1h.01Z" style="fill: #331d20;"/>
  <path d="M785.47,371.25c4.17,4.66.59,17.77.84,24.1-.9,10.11-2.27,20.17-3.65,30.23-.56,4.08,5.76,5.15,6.32,1.05.44-12.99,11.18-54.62-.82-61.2-3.58-2.06-6.24,3.77-2.69,5.81h0Z" style="fill: #331d20;"/>
  <path d="M477.42,356.27c1.62,6.63,89.34,65.71,76.35,41.5-26.86-10.63-51.41-26.41-72.25-46.42-2.98-2.86-7.06,2.08-4.1,4.92Z" style="fill: #331d20;"/>
  <path id="Freesia04" d="M619.74,457.89c-.28-.8-.69-1.44-1.18-1.94,4.58-18.11-5.36-30.92-20.74-38.63-2.89-8.07,3.58-17.57-.72-25.83-6.81-17.83-31.06-20.91-44.24-8.33-13.18-12.38-34.36-22.38-41.41,1.49-2.35,7.95-1.69,15.99-8.23,22.05-10.52,8.88-26.82,15.49-27.07,31.48.35,19.71,21.11,34.53,40.01,31.82,5.88,4.01,13.28,5.78,20.41,6.75,13.13,1.78,25.07,5.43,37.45,10.06,54.11,16.7,77.31,67.27,45.72-28.94v.02Z" style="fill: #ffc059;"/>
  <path id="Freesia03" d="M333.66,192.56c5.58-7.69,1.75-19.35-6.93-22.76v-.03s.01,0,0,0c5.87-19.76-18.41-31.34-27.81-12.27-11.96-9.54-37.92.76-25.17,17.22-11.04,5.25-17.09,18.69-6.35,27.57,1.88,17.09,20.29,27.1,33.9,14.64,14.69,13.81,38.41-7.48,32.32-24.37h.04Z" style="fill: #ffc059;"/>
  <g>
    <path d="M438.36,270.74c18.27-1.49,36.88,3.44,51.93,13.94,3.36,2.35,7.48-2.56,4.1-4.92-16.5-11.51-36.62-17.03-56.69-15.39-4.11.34-3.45,6.71.66,6.37h0Z" style="fill: #331d20;"/>
    <path d="M842.29,226.9c-2.07,3.8-9.54,12.5-4.52,15.93,4.62,1.7,4.83-4.44,6.59-7.17.24-.59,2.04-3.58,1.53-2.72,4.04-3.78,1.09-9.68-3.59-6.03h-.01Z" style="fill: #331d20;"/>
    <path d="M430.62,226.75c8.24,13.14,19.01,24.66,31.56,33.76,3.33,2.41,7.44-2.5,4.1-4.92-12.16-8.82-22.47-19.83-30.45-32.56-2.19-3.5-7.4.24-5.21,3.72h0Z" style="fill: #331d20;"/>
    <path d="M303.97,182.41c-12.3,6.33-1.78,18.98-5.38,28.12-.83,1.52.06,3.56,1.56,4.25,10.9.45,2.76-17.26,4.05-23.17.32-3.38,5.23-3.73,3.9-7.35-.57-1.5-2.57-2.62-4.13-1.85h0Z" style="fill: #331d20;"/>
    <path d="M306.99,182.74c-3-7.59-12.17-7.57-19.05-7.06-2.23.04-4.58-.12-6.32-1.46-3.27-2.5-7.38,2.42-4.1,4.92,5.76,4.71,14.53,1.74,20.07,3.22,1.29.48,1.99.77,2.85,1.62-.42-.54.57.85.35.52.81,4.17,7.73,2.65,6.19-1.76h0Z" style="fill: #331d20;"/>
    <path d="M308.91,183.85c2.71-3.11,4.65-9.12,6.24-11.67.52-.78,1.11-1.51,1.76-2.17-.46.48.16-.12.23-.18.12-.2,1.69-1.01.81-.58,1.22-.47,1.21-.54,2.53-.57h-.37c.16-.03,1.95.37.82.09.13-.04.54.24.65.28.53.23-.25-.25,0,0,2.87,3.68,8.2-1.19,4.72-4.36-10.24-8.21-18.17,5.39-21.37,13.81-3.45,2.66-.76,9.12,3.98,5.35h0Z" style="fill: #331d20;"/>
    <path d="M303.89,189.33c1.86.2,3.7.56,5.5,1.1,1.1.22,5.91,2.41,6.95,3.21,2.1,1.44,4.95,4.37,7.27,1.61,1.04-1.37.98-3.38-.41-4.51-3.89-3.16-19.26-12.13-21.95-5.08-.2,1.65.85,3.48,2.63,3.69v-.02h.01Z" style="fill: #331d20;"/>
    <path d="M473.33,215.56c16.83.03,17.03,13.53,21.96,25.37,10.24,14.64,23.27-8.8,31.65,8.64,4.89,6.72,9.56,14.05,9.32,22.66.31,4.09,6.78,3.47,6.37-.67.5-10.99-12.61-37.1-25.49-35.37-5.28.16-11.74,6.36-16.24,1.58-3.42-5.52-2.65-12.82-6.82-18.09-4.81-6.9-13.03-10.91-21.41-10.51-4.11.2-3.45,6.57.66,6.37v.02Z" style="fill: #331d20;"/>
    <path d="M615.13,450.3c-5.56-6.03-14.14-4.11-19.54,1.1-7.18,8.26-13.39,22.59-25.58,11.36-7.47-7.3-17.54-12.2-28.18-10.31-7.35,1.06-14.21,4.59-19.04,10.28-2.67,3.15,2.26,7.24,4.92,4.1,7.27-8.57,20.56-10.77,30.33-5.32,6.2,3.82,10.96,10.44,18.61,11.54,12.75,2.19,17.2-11.54,24.95-18.43,2.07-1.52,6.21-2.88,8.31-.6,2.43,3.34,7.7-.41,5.21-3.73h.01,0Z" style="fill: #331d20;"/>
    <path d="M543.07,419.23c-7.5-5.66-10.27-16.65-19.99-19.57-4.18-.7-13.25-4.75-15.25.63-.27,1.59.9,3.55,2.63,3.69,6.28.27,13.2,1.23,17.2,6.64,3.9,3.7,9.35,17.57,15.82,13.12,1.04-1.25,1-3.5-.41-4.51h0Z" style="fill: #331d20;"/>
    <path d="M547.16,429.8c-.54-10.67-1.25-32.15,9.83-37.47,3.95-1.18,1.66-7.16-2.28-5.99-17.25,2.64-17.95,62.54-7.55,43.46Z" style="fill: #331d20;"/>
    <path d="M547.17,432.63c15.58-16.33,32.33-15.44,51.33-5.54,3.68,1.88,6.36-3.94,2.7-5.81-10.12-4.85-21.54-8.88-32.91-7.79-9.72,1.35-17.62,7.75-24.84,13.93-3.11,2.67.59,7.9,3.72,5.21h0Z" style="fill: #331d20;"/>
    <path d="M542.95,429.85c-12.82.15-21.69,15.04-15.71,26.39,1.52,3.84,7.52,1.56,5.98-2.28-1.59-3.15-1.88-6.24-.89-9.57.03-.22,1.06-2.4,1.14-2.48,2.24-3.53,5.86-5.53,10.15-5.68,4.11-.36,3.46-6.81-.67-6.37h0Z" style="fill: #331d20;"/>
    <path d="M682.26,530.57c10.35,67.03,34.88,131.81,71.48,188.9,2.23,3.48,7.43-.26,5.21-3.72-35.97-56.19-60.14-119.9-70.32-185.84-.63-4.05-7.01-3.43-6.37.66Z" style="fill: #331d20;"/>
    <path d="M652.65,482.31c5.85,25.42,14.74,50.07,26.7,73.26,3.42,6.63,7.06,13.13,10.93,19.51,2.14,3.53,7.34-.21,5.21-3.72-13.12-21.61-23.5-44.85-30.92-69.02-2.09-6.83-3.95-13.73-5.55-20.68-.48-4.08-6.89-3.46-6.37.67v-.02Z" style="fill: #331d20;"/>
    <path d="M630.49,519.25c22.94,27.1,42.33,57.24,57.23,89.48,23.06,13.87-33.18-70.8-37.16-74.58-4.76-6.35-9.72-12.56-14.85-18.62-2.65-3.13-7.88.57-5.21,3.72h-.01Z" style="fill: #331d20;"/>
  </g>
  <path id="Freesia02" d="M878.87,187.25c-.56-4.96,5.03-9.85,7.62-13.69,10.2-12.91,1.27-31.28-14.42-34.31-7.04-18.45-33.89-20.91-46.15-5.93-3.65,3.16-7.71,3.64-12.33,5.1-13.21,3.98-22.35,18.14-18.58,31.56-11.5,5.16-13.83,17.5-5.08,26.7,6.52,5.94,10.95,13.12,13.64,21.44,7.38,19.19,33.26,20.49,48.73,10.46,23.38,1.19,37.5-20.95,26.58-41.34h-.01,0Z" style="fill: #ffc059;"/>
  <path id="Freesia01" d="M994.06,130.43c.09-6.48-7.61-12.5-2.26-18.5,9.89-13.48-5.61-26.83-19.34-23.82-1.71-19.88-29.79-26.22-40.17-9.28-4.9,16.09-23.16,25.09-14.58,42.4-3.41,12.64,2.17,28.92,12.02,37.53,10.78,8.31,27.43,5.51,34.69-6.07,13.86,3.54,30.47-7.18,29.63-22.29v.03h.01Z" style="fill: #ffc059;"/>
  <path d="M834.26,140.99c6.01,9.37,6.02,22.36-.19,31.65-.96,1.44-1.01,3.32.41,4.51,1.22,1.02,3.54,1.03,4.51-.41,7.89-11.8,8.17-27.49.48-39.47-2.23-3.48-7.43.26-5.21,3.72h0Z" style="fill: #331d20;"/>
  <path d="M835.02,181.43c-6.87-13.31-24.18-19.86-37.99-13.46-3.72,1.72-1.47,7.72,2.28,5.99,10.38-4.81,24.37-.62,29.73,9.75,1.51,3.84,7.54,1.56,5.98-2.28Z" style="fill: #331d20;"/>
  <path d="M831.84,181.48c5.65,15.22-28.98,15.76-23.06,35.75,1.17,3.95,7.16,1.66,5.99-2.28-1.05-3.53,1.68-7.21,4.27-9.31,9.45-5.89,26-14.37,18.01-27.88-2.31-3.42-7.52.3-5.21,3.72Z" style="fill: #331d20;"/>
  <path d="M833.54,185.54c5.83,7.25,9.46,15.93,10.44,25.15.44,4.09,6.81,3.45,6.37-.66-.25-6.2-7.97-32.23-16.07-28.94-1.35.96-1.83,3.11-.74,4.47v-.02Z" style="fill: #331d20;"/>
  <path d="M849.12,183.34c9.54-3.62,19.88-4.16,29.78-1.68,1.68.42,3.42-1.02,3.69-2.63-.91-9.06-29.67-4.64-35.74-1.68-3.87,1.47-1.55,7.46,2.27,5.99h0Z" style="fill: #331d20;"/>
  <path d="M969.63,95.85c-3.6,9.28-9.75,17.3-17.86,23.09-3.36,2.4.36,7.61,3.72,5.21,8.94-6.39,15.97-15.35,19.95-25.61,1.71-3.76-4.12-6.47-5.81-2.69Z" style="fill: #331d20;"/>
  <path d="M933.39,93.04c2.89-2.32,6.98.04,8.59,2.87,4.58,11.93-9.07,21.99-8.54,33.97-.31,8.17,6.8,16.9,15.49,15.04,1.11-.18,1.64-.13,1.95,1.13.38,1.52-.46,3.36-.98,4.75-1.44,3.84,4.36,6.56,5.81,2.7,1.23-3.27,2.37-6.85.96-10.27-1.87-5.26-7.02-4.77-11.5-4.6-12.12-6.66-.41-20.85,2.6-29.74,5.93-11.69-4.93-29.43-18.1-21.05-3.21,2.57.5,7.8,3.72,5.21h0Z" style="fill: #331d20;"/>
  <path d="M950.78,128.84c9.83.04,19.39,3.93,26.66,10.47,3.07,2.76,7.16-2.17,4.1-4.92-8.62-7.75-19.87-11.88-31.42-11.92-4.13.36-3.43,6.78.66,6.37h0Z" style="fill: #331d20;"/>
  <path d="M793.05,270.54c-1.71,11.45-4.58,22.68-8.66,33.52-1.44,3.84,4.36,6.56,5.81,2.69,4.27-11.37,7.37-23.15,9.16-35.16.61-4.07-5.71-5.14-6.32-1.05h.01Z" style="fill: #331d20;"/>
  <path d="M509.99,289.57c7.6,20.7,19.26,39.9,34.2,56.12,4.32,4.69,8.87,9.15,13.67,13.33,3.12,2.71,7.2-2.22,4.1-4.92-20.66-18-36.54-41.1-45.98-66.81-1.42-3.87-7.41-1.6-5.99,2.28h0Z" style="fill: #331d20;"/>
  <path d="M1059.97,61.64c8.91-.75,17.84-.65,26.73.32,1.72.19,3.39-.86,3.69-2.63,1.25-7.32-25.94-3.87-31.08-4.07-4.1.34-3.45,6.72.66,6.37h0Z" style="fill: #331d20;"/>
  <path id="Daisy03" d="M856.68,581.04c-14.24-15.4-35.91-18.35-55.66-14.37,16.88-15.74,38.05-26.73,60.79-31.15,4.56-.88,6.32-7.26,1.57-9.42-24.08-10.6-48.47,5.98-65.44,22.2,10.18-21.67,23.41-41.77,39.44-59.71,2.44-2.73.69-7.61-2.99-8.05-35.21-1.53-48.89,41.4-56.02,69.31-6.41-22.73-2.12-47.22,4.63-69.86,1.46-4.9-5.79-7.5-8.69-3.98-10.71,14.29-16.48,32.5-18.19,50.17-.34,9.25,1.94,18.3,5.84,26.65-15.16-8.3-27.74-21.49-39.57-33.9-2.86-3-7.8-.36-8.46,3.14-2.98,20.78,17.91,34.47,33.39,43.9-14.47,2.44-28.41-2.19-42.59-4.13-7.05-.41-7.72,8.21-1.94,10.95,5.1,13.66,29.97,13.35,42.38,13.53-12.38,9.29-26.56,16.05-41.61,19.97-5.44,1.42-3.48,8.9,1,9.99,20.62,5.03,43.23-.88,59.36-14.48-2.42,20.71-3.05,43.36,8.65,61.52,2.6,3.94,9.98,1.54,8.95-3.39-4.21-20.21-2.48-40.57.8-60.72,5.88,18.94,18.49,35.54,37.67,43.06,4.83,1.89,8.52-3.1,6.11-7.37-8.83-16.73-21.02-31.26-31.41-46.92,18.42-3.54,39.17-6.95,56.77,1.31,5.11,2.65,9.34-4.66,5.25-8.3l-.03.05Z" style="fill: #fff;"/>
  <path d="M663.85,752.37c4.77,3.22,32.28-1.31,33.84-1.33-16.94-13.26-32.53-19.57-51.3-30.1,4.96-26.66-3.95-42.68-26.71-56.2-19.34-16.16-33.18-38.38-56.36-50.03-12.51-7.49-25.85-13.45-39.33-18.95-6.51-2.66-12.31,4.43-8.56,10.32,6.64,10.44,17.33,16.42,26.85,23.82,22.88,20.81,37.44,49.31,61.02,69.75-51.54-21.85-106.63-36.91-162.55-41.22-40.7-50.08-239.21-10.79-272.23,35.88-2.52,4.73,1.97,10.36,7.01,9.82,58.81-6.34,117.26-16.04,174.91-29.27-68.86,29.14-216.97,105.75-216.47,191.32-1.07,6.71,7.85,11.05,12.17,5.57,19.05-25.92,38.67-52.56,66.48-69.71,45.7-23.28,85.36-45.28,103.04-97.09,33.52-16.05,68.84-31.26,106.16-32.64-44.05,17.8-70.93,59.56-94.99,98.33-4.21,6.71,6.82,13.39,11.62,7.35,8.45-10.62,20.83-16.37,32.82-22.07,42.03-19.54,78.51-48.58,114.23-77.67,32.1,6.15,63.69,14.83,94.19,26.62-87.49,10.11-168.57,31.85-191.14,127.66-2.49,7.59,5.79,12.9,11.62,7.35,22.96-21.86,54.22-32.22,79.23-51.33,25.46-22.33,53.62-41.32,87.05-49.18,18.31-5.46,38.3-12.92,57.67-10.95-.65-1.16,26.69,17.02,39.77,23.95h-.04Z" style="fill: #396341;"/>
  <path d="M480.84,675.5c-16.14-7.96-34.5-11-52.35-8.67-4.08.53-3.44,6.91.66,6.37,16.78-2.19,33.81.63,48.99,8.11,3.7,1.83,6.39-3.99,2.7-5.81Z" style="fill: #331d20;"/>
  <path d="M356.77,672.39c19.05-3.4,38.26-5.86,57.56-7.35,4.11-.32,3.45-6.69-.66-6.37-19.3,1.5-38.51,3.95-57.56,7.35-4.03.72-3.41,7.1.66,6.37Z" style="fill: #331d20;"/>
  <path d="M282.47,717.47c-22.47,12.88-43.18,28.68-61.63,46.86-5.26,5.18-10.31,10.57-15.17,16.12-2.72,3.11,2.21,7.2,4.92,4.1,16.77-19.17,35.97-36.12,57.1-50.36,6.03-4.06,12.2-7.9,18.51-11.51,3.58-2.05-.17-7.25-3.72-5.21h-.01Z" style="fill: #331d20;"/>
  <path d="M437.78,677.2c-3.78,1.59-62.75,34.53-40.32,33.27,13.35-10.35,27.59-19.52,42.59-27.29,3.83-1.51,1.56-7.53-2.28-5.98h.01Z" style="fill: #331d20;"/>
  <path d="M591.4,712.93c6.12,1.12,11.37,2.89,17.05,5.78,3.72,1.78,6.45-4.07,2.69-5.81-4.45-1.65-20.34-10.41-22.38-3.66-.21,1.75.87,3.36,2.63,3.69h.01Z" style="fill: #331d20;"/>
  <path d="M628.79,704.02c-5.19-15.15-15.02-28.63-27.9-38.17-3.3-2.45-7.41,2.46-4.1,4.92,12.06,8.94,21.14,21.33,26.01,35.53,1.34,3.9,7.32,1.62,5.99-2.28Z" style="fill: #331d20;"/>
  <path d="M697.15,355.36c-2.39,4.64-10.26,21.62-3.5,24.21,1.58.19,3.57-.84,3.69-2.63.44-6.86,2.25-12.92,5.62-18.88,1.81-3.71-4.05-6.44-5.81-2.69h0Z" style="fill: #331d20;"/>
  <path id="Daisy01" d="M761.65,469.14c4.36-1.41,4.07-7.53.33-9.42-17.81-9-39.18-2.08-53.47,10.38,6.39-14.23,12.78-28.45,19.17-42.68,1.78-3.97-2.25-8.66-6.46-6.93-15.57,6.51-20.17,24-25.12,38.6-2.2-45.03-40.38-62.83-26.74-22.49-10.92-9.72-26.61-14.74-40.81-9.99-4.08,1.34-4.38,7.81-.33,9.42,13.48,5.34,25,14.57,33.16,26.29-3.14-1.51-6.51-2.52-9.28-4.72-20.11-15.95-60.33,2.53-43.06,11.36,20.04,2.39,38.96,9.79,55.27,21.32-28.38-6.53-72.22,26.36-48.05,28.67,13.74-3.55,27.67-8.33,42-8.22-10.97,10.6-24.2,18.63-38.91,23.39-4,1.29-3.92,6.15-1.45,8.71,18.68,16.33,45.63-1.19,62.65-12.14-.73,14.08-3.71,28-9.02,41.23-1.98,4.94,3.23,8.86,7.61,6.31,10.06-5.87,16.08-16.55,20.06-27.6.51,5.48.56,11.02.12,16.54,8.34,25.58,35.68-37.7,7.55-64.43,14.72,1.4,28.75,8.33,38.48,19.74,20.67,11.56,3.11-37.71-30-36.88,15.12-6.29,30.73-11.33,46.28-16.47h.02Z" style="fill: #fff;"/>
  <path d="M766.86,858.25c-25.47-23.61-36.08-110.98,5.52-123.22-5.54-8.78-9.49-18.69-12.06-28.69-6.26-2.46-12.82-4.36-19.55-4.5-12-9.18-20.78-22.91-35.54-28.41-19.55-7.28-41.93-.69-57.37,12.55-34.35,33.15-41.78,84.63-52.76,129.16-3.42,9.43-13.31,114.75,10.98,83.15,14.91-55.24,43.37-175.57,109.29-184.59-19.89,34.94-12.65,80.58,6.04,114.56,8.99,16,21.55,30.1,36.57,40.67,7.24,5.1,15.6-4.64,8.87-10.66v-.02h.01Z" style="fill: #396341;"/>
  <path id="Daisy02" d="M774,637.71c-5.45-17.72-23.26-29.07-41.43-22.92,8.17-6.28,18.5-15.72,29.46-10.7,20.61,2.78-5.12-44.13-45.55,3.08.56-12.72,8.44-31.03-.85-41.52-3.14-2.93-7.52-.38-8.46,3.14-2.7,10.09-5.35,20.29-7.03,30.6-3.14-5.48-7.07-10.51-11.78-14.83-12.16-11.16-28.68-16.63-45.06-15.91-4.37.19-6.33,6.57-2.79,9.17,12.35,9.11,24.78,18.12,37.07,27.32-17.67-4.78-36.55-3.34-53,7.11-4.11,2.61-1.89,8.35,2.17,9.36,18.18,3.53,37.33-5.01,55.19,2.62-15.99,5.5-32.2,21.44-39.24,36.62-2.15,4.65,3.61,9.65,7.74,6.42,10.73-9.92,22.34-20.61,35.96-26.17-11.17,15.3-16.34,34.79-13.38,53.77.71,4.55,8.2,6.93,9.89,1.65,5.87-18.31,14.33-35.67,25.24-51.49,5.91,13.41,6.79,28.7,2.59,42.84-1.46,4.93,6.28,8.26,9.13,4.18,8.29-11.87,10.69-27.16,6.98-40.9,10.18,9.68,15.86,24.65,20.04,37.48,1.86,5.73,10.49,3.36,10.03-2.39-.94-11.95-.03-24.79-5.8-35.73-4.1-7.79-11.36-13.27-19.49-16.99,12.1-1.22,24.71,2.25,34.16,10,4.04,3.31,9.99-.96,8.19-5.85l.02.04Z" style="fill: #fff;"/>
  <path d="M701.49,496.12c.42-8.36-5.86-16.45-14.12-18-16.25-.43-5.04,28.7,6.2,28.18,4.74-.71,8.15-5.48,7.9-10.19h.02,0Z" style="fill: #1c0e10;"/>
  <path d="M786.11,565.91c-5.88-11.49-25.92,1.85-22.84,12.26,6.79,11.94,26.7-.31,22.84-12.27h0Z" style="fill: #1c0e10;"/>
  <path d="M719.75,625.07c-.85-9.57-15.79-20.74-23.27-11.72-6.73,11.83,22.72,30.97,23.27,11.71h0Z" style="fill: #1c0e10;"/>
  <path d="M895.21,536.67c32.48-18.75,71.55-31.48,109.07-22.54,4.01.94,5.05-5.38,1.05-6.32-30.31-7.11-62.02-.71-90.11,11.58-8.13,3.56-16.03,7.63-23.72,12.06-3.57,2.06.18,7.25,3.72,5.21h-.01Z" style="fill: #331d20;"/>
</svg>