<svg xmlns="http://www.w3.org/2000/svg" viewBox="0 0 1500 1500">

<svg id="Layer_1" xmlns="http://www.w3.org/2000/svg" width="1500" height="1500" version="1.1" viewBox="0 0 1500 1500">
  <!-- Generator: Adobe Illustrator 30.2.1, SVG Export Plug-In . SVG Version: 2.1.1 Build 1)  -->
  <g>
    <g>
      <path id="Snowdrop01" d="M800.4,116.51c-1.16-.93-2.33-1.68-3.5-2.25-7.15-3.46-14.47-.42-20.23,5.75-2.13-4.79-6.14-8.57-13.37-7.98-3.5.28-6.22,1.37-8.35,3-2.03,1.54-3.52,3.56-4.59,5.8-.84-1.19-1.86-2.29-3.12-3.28-4.34-3.39-11.08-4.73-16.3-1.96-2.55,1.35-4.28,3.15-5.35,5.23-4.13,7.88,1.03,19.81,5.48,27.14-.11.67.42,4.17,1.05,7.88h0c.24,1.46.51,2.95.74,4.32.06.29.11.58.16.85h0c.21,1.24.42,2.32.56,3.14.84,4.67.08,13.95,6.87,15.73,2.96.78,6.59.1,9.76-.04.39-.02.77-.03,1.15-.03.64,0,1.27.01,1.91.03.62.02,1.22.05,1.84.08h.01c3.62.2,7.2.66,10.72,1.39.38.06.74.14,1.11.22,1.75.39,3.6.89,5.49,1.33,4.46,1.03,9.1,1.6,12.95-1.05,2.33-1.61,3.8-3.96,4.8-6.55h0c1.35-3.54,1.83-7.5,2.4-10.63.06-.33.11-.65.16-.97.08-.51.16-1.01.22-1.5.12-.84.22-1.68.3-2.5h0c.67-6.03.94-11.53,4.59-17.26,3.17-4.98,7.01-11.6,6.8-17.56h0c-.11-3.08-1.31-5.96-4.26-8.35Z" style="fill: #ffe033;"/>
      <path id="Gerbera" d="M849.63,165.57c-12.41-6.87-26.19-13.31-40.69-11.35,2.89-1.13,5.83-2.14,8.83-3,8.65-2.49,17.77-3.94,26.91-4.09,6.97-.12,16.73.57,19.94-6.19,2.59-5.44-2.64-11.53-7.41-14.77-6.17-4.18-14.32-6.01-22.12-6.36-17.07-.78-34.51,4.62-47.12,14.35-1.91,1.47-3.69,3.03-5.34,4.67,1.07-1.89,2.18-3.76,3.3-5.62,3.53-5.87,7.36-11.68,10.4-17.74,2.44-4.88,3.85-10.3,1.28-15.35-6.02-11.83-22.48-5.57-30.66.77-10.71,8.31-16.04,20.14-18.14,32.05-.54,3.08-.9,6.2-1.07,9.34-8.31-13.93-22.14-24.97-41.71-27.77-12.71-1.82-30.23,2.24-29.7,15.59.22,5.52,4.17,9.38,10.3,11,7.62,2.01,15.19,3.18,22.5,6.07,3.15,1.25,6.22,2.66,9.18,4.21-12.51-1.7-25.87,1.96-36.85,7.55-9.6,4.89-31.22,18.79-21.58,30.76,4.34,5.39,12.33,3.97,17.69.66,3.5-2.16,6.56-4.82,10.16-6.87,4.13-2.35,8.6-4.2,13.24-5.48,20.07-5.57,41.72.08,55.7,13.97.18.17.36.31.55.42-.14,1.76,2.74,2.99,4.25,1.23,2.65-3.06,5.42-6.15,8.33-9.16,7.15-4.46,15.04-7.9,23.39-10,5.16-1.3,10.75-2.57,16-1.11,4.8,1.33,9.05,4.43,13.2,6.9,8.01,4.76,15.91,10.32,24.5,14.21,5.78,2.62,12.67,3.49,18.25-.16,14.96-9.79-6.96-23.97-15.51-28.7ZM763.96,182.54c-.97.65-1.13,1.53-.82,2.29-1,1.12-1.99,2.25-2.95,3.4-.58-.55-1.16-1.1-1.76-1.62.01-.33-.05-.67-.24-1.03-1.07-2.08-2.21-4.17-3.43-6.23.13-.03.26-.06.38-.1,1.68.62,4.35-.63,3.71-2.47-.08-.22-.15-.45-.22-.67,2.82.66,5.7,1.08,8.67,1.31.04.77.08,1.54.16,2.32.01.14.04.26.09.38-.11.11-.23.22-.34.34-1.1.68-2.18,1.36-3.25,2.08Z" style="fill: #e8002a;"/>
      <path d="M800.64,164.27c-3.1-1.6-6.33-1.26-9.37-.1.68-4.67-.57-9.18-6.27-9.8-6.26-.68-12.35,3.01-16.25,7.94-3.3-5.8-8.31-10.73-15.65-9.24-6.1,1.24-9.74,6.23-10.04,11.68-5.7-3.72-13.85-7.86-18.57-1.18-1.63,2.31-4.57,8.38,1.46,12,8.88,5.32,17.51,6.86,21.67,15.61,9.15,19.25,6.54,50.24,7.15,69.45,1.32,41.82.75,83.68-.63,125.49-2.77,84.01-7.53,167.98-11.52,251.94-3.98,83.76-7.96,167.53-11.92,251.29-3.98,84.18-7.97,168.36-11.95,252.54-3.79,79.98-7.57,159.97-11.36,239.95-.2,4.28,3.29,7.81,7.57,7.68.05,0,.1,0,.15,0,3.82-.12,6.9-3.15,7.09-6.97,3.86-78.25,7.72-156.5,11.58-234.74,4.17-84.45,8.34-168.9,12.5-253.36,4.15-84.03,22.28-592.5,24.31-634.75,1.54-32.16-5.71-60.62,14.32-73.85,4.83-3.19,17.67-5.06,20.31-10.27,2.21-4.36-.55-9.24-4.57-11.31Z" style="fill: #2c8237;"/>
    </g>
    <g>
      <path d="M492.12,487.28h0c-.06-.3-.17-.59-.33-.86-.47-.82-1.3-1.47-2.39-1.53,0-.02-.01,0-.01,0h-.01c-.07-.07-.14-.14-.22-.2-.23-.19-.51-.36-.84-.47-2.65-.92-5.33-1.73-8.03-2.42-.02-.01-.05-.01-.07-.02-1.42-.37-2.85-.7-4.27-1-2.01-.44-4.03-.8-6.06-1.11-9.25-1.43-18.64-1.67-27.97-.86-16.13,1.37-32.11,5.83-46.84,12.5h-.01c-29.9,13.53-54.2,36.68-73.39,62.93-11.21,15.34-20.71,31.83-29.21,48.8-1.44,2.9,2.44,5.81,4.34,3.35,24.01-31.13,23.48-35.16,46.36-54.98,14.82-12.85,39.52-26.48,62.86-36.83h.01c12.45-5.53,24.5-10.12,34.47-13.16,2.45-.75,4.92-1.46,7.39-2.14,3.33-.93,6.69-1.81,10.05-2.63,1.51-.37,3.04-.73,4.56-1.08h.01c2.63-.6,5.26-1.18,7.9-1.72,3.19-.67,6.39-1.29,9.59-1.87,1.08-.19,2.15-.39,3.23-.57,1.38-.24,2.77-.49,4.17-.72.61-.09,1.23-.19,1.85-.29.31-.05.62-.1.93-.15,1.71-.27,2.22-1.67,1.91-2.97Z" style="fill: #2c8237;"/>
      <path d="M843.25,1436.93c-12.92-91.03-26.51-182.01-44.07-272.28-17.44-89.61-38.82-178.59-67.36-265.35-26.91-81.81-59.83-162.32-102.57-237.22-39.26-68.79-87.67-133.4-148.46-184.65-58.51-49.32-141.84-102.43-221.19-73.62-9.23,3.35-17.94,7.87-26,13.48-2.54,1.77-.17,5.96,2.46,4.2,74.72-50.05,167.03,1.42,227.95,49.53,61.57,48.62,110.95,110.98,151.03,178.05,43.4,72.62,76.8,151.12,104.27,231,29.17,84.83,51.19,171.97,69.1,259.82,17.93,87.93,31.76,176.64,44.57,265.45,1.59,11.04,3.17,22.08,4.73,33.13.52,3.66,6.07,2.1,5.56-1.53Z" style="fill: #2c8237;"/>
      <path d="M273.83,476.06c5.08-11.04,10.44-23,8.58-35.48-1.75-11.72-10.27-19.53-21.1-23.31-6.77-2.36-13.18-3.19-20.31-2.39-22.47,2.52-30.71,9.47-35.32,16.63-7.47,11.61-6.99,25.44-1.14,37.53,3.36,6.93,6.5,12.91,6.29,20.84-.18,6.67-1.65,13.37-.14,20,1.04,4.59,3.44,9.34,8.86,9,2.79-.18,4.81-1.51,6.33-3.38,1.72,2.98,4.44,5.26,8.12,5.78,3.11.44,4.53-1.11,6.64-2.98,1.81,2.3,11.42,6.81,14.82.52,3.46,1.57,8.41,1.17,10.75-1.89,3.57-4.65,3.54-11.2,3.37-16.78-.27-8.87.49-15.9,4.25-24.08Z" style="fill: #faa93e;"/>
      <path d="M272.52,404.38c.51-2.22.04-2.31,0-4.6-8.39,1-16.89,3.58-24.02,6.35-6.2,2.41-12.35,5.34-17.87,9.07-4.29,2.89-7.33,8.93-5.7,11.91.8,1.47,1.38,2.68,2.86,2.86,4.05.48,5.53-.38,9.02-1.88.31,1.27,1.05,2.41,2.45,3.26,3.12,1.9,6.6.15,9.3-2.13,2.95,2.39,7.7,1.77,9.67-2.47,1.86-4-1.2-8.72.8-12.4,2.21-4.07,9.44-7.32,13.37-9.44.05-.18.09-.35.13-.53Z" style="fill: #2c8237;"/>
      <path d="M228.98,491.43c.09-3.17-4.73-3.13-4.9,0-.37,6.74-.39,13.67,1.08,20.29.58,2.62,4.88,2.08,4.72-.64-.38-6.58-1.09-13.04-.9-19.65Z" style="fill: #e8702a;"/>
      <path d="M243.18,491.43c0-3.13-4.66-3.09-4.83,0-.37,6.8-.68,13.89.19,20.66.4,3.09,4.92,3.31,4.99,0,.14-6.87-.36-13.78-.34-20.66Z" style="fill: #e8702a;"/>
      <path d="M257.61,492.79c-.29-3.01-4.65-3.12-4.77,0-.24,6.28.04,12.69.31,18.97.15,3.35,5.28,3.39,5.24,0-.09-6.29-.18-12.71-.78-18.97Z" style="fill: #e8702a;"/>
      <path d="M443.88,448.74c-.14-.49-.36-.95-.66-1.33-21.24-27.39-51.8-45.38-80.9-63.23-16.51-10.14-33.39-19.2-51.16-26.95-16.19-7.05-33.92-16.81-52.08-15.55-2.41.16-2.21,2.64-.11,3.94,11.86,7.35,13.53,8.62,21.72,12.96,22.13,11.76,37.78,27.52,50.61,39.1h0s.01.01.01.01c3.19,2.87,6.2,5.47,9.09,7.68h.02c1.1.85,2.16,1.65,3.24,2.37,7.52,5.09,14.94,10.34,22.23,15.76,6.72,4.98,13.21,10.77,20.93,14.13,7.62,3.31,15.86,3.57,23.91,5.05,9.17,1.71,23.5,6.61,31.19,11.85,1.31.89,2.8-3,1.94-5.8Z" style="fill: #2c8237;"/>
    </g>
    <g>
      <path d="M1092.58,397.61c-28.68,10.74-57.27,21.73-85.75,33-24.35,9.63-48.97,18.99-73.02,29.44,22.6-29.98,46.01-59.38,69.49-88.66,5.7-7.11-2.28,2.28,3.38-4.86,1.96-2.48-1.46-6.03-3.53-3.53-32.1,38.74-50.14,61.48-80.21,101.88-.78.36-1.17,1.01-1.28,1.73-12.76,17.18-25.23,34.56-37.3,52.22-41.65,60.92-77.36,125.36-103.54,194.47-27.72,73.19-47.61,149.41-66.98,225.15-19.8,77.43-37.61,155.35-54.31,233.5-16.64,77.83-32.19,155.89-47.55,233.98-1.92,9.76-3.84,19.52-5.75,29.28-.71,3.64,4.87,5.2,5.59,1.54,15.26-77.75,30.59-155.49,46.89-233.03,16.29-77.51,33.55-154.84,52.65-231.71,18.85-75.85,38.4-151.99,63.8-225.95,24.21-70.49,56.94-136.7,97.46-199.21,17.23-26.58,35.53-52.42,54.45-77.81,27.59-10.57,54.74-22.38,82.22-33.24,28.17-11.13,56.45-22,84.83-32.62,3.45-1.29,1.96-6.88-1.54-5.58Z" style="fill: #80bf4c;"/>
      <path d="M1132.86,386.35c-2.82-7.42-10.88-5.35-15.53-2.39-8.36,5.32-16.56,10.33-25.47,14.47.36.62.57,1.33.57,2.23,0,1.18-.27,2.31-.63,3.42,4.32-.93,8.59-1.77,13.03-2.2,5.04-.49,11.67-1.09,16.63-2.14,6.4-1.34,14.19-6.06,11.41-13.39Z" style="fill: #80bf4c;"/>
      <path d="M1120.22,415.35c-7.76-3.9-15.28-7.81-22.5-12.45-.64-.42-1.28-.83-1.92-1.26-.66-.44-1.32-.88-1.98-1.34-.55-.38-1.1-.77-1.65-1.16-.05-.04-.1-.07-.15-.11-1.08-.77-2.25-.37-2.89.44-1.07.38-1.83,1.57-.86,2.6.63.67,1.26,1.34,1.89,2.01.13.14.26.29.41.44,2.75,2.98,5.41,5.98,7.84,9.29,3.01,4.07,6.93,9.45,10.36,13.19,1.92,2.07,4.5,4.04,7.21,5.12,3.58,1.42,7.37,1.3,10.14-2.2.31-.39.58-.78.8-1.17,3.37-5.77-2.11-11.06-6.72-13.39Z" style="fill: #80bf4c;"/>
      <path d="M1078.94,419.93c-8.51-.16-16.81-.44-25.15-1.45h-.01c-2.13-.26-4.26-.57-6.4-.93-.3-.05-.62-.11-.92-.16-1.3-.23-2.17.64-2.41,1.64-.8.8-.98,2.21.35,2.72.11.04.22.09.34.13.04.01.08.03.11.04,4.72,1.82,9.29,3.65,13.77,6.04,4.47,2.37,10.32,5.54,15.04,7.41,6.09,2.43,15.18,2.8,16.92-4.85,1.75-7.74-6.12-10.48-11.62-10.58Z" style="fill: #80bf4c;"/>
      <path d="M1011.6,387.9c-7.82-1.31-10.1,6.71-9.89,12.2.42,11,.63,21.65-.69,32.57-.01.08-.02.15-.02.22,0,.19.02.37.06.53.19.87.93,1.41,1.74,1.56.84.75,2.27.84,2.69-.51.42-1.29.83-2.57,1.26-3.84.41-1.21.82-2.42,1.25-3.61.86-2.39,1.8-4.75,2.88-7.09,2.11-4.6,4.94-10.63,6.54-15.44,2.06-6.21,1.92-15.31-5.82-16.6Z" style="fill: #80bf4c;"/>
      <path d="M1113.23,361.92c-6.89-3.94-11.81,2.77-13.52,8.01-3.32,10.12-6.7,19.84-11.46,29.32-.16.33-.33.66-.5.99-.61,1.17-.03,2.27.86,2.78.33.61.93,1.07,1.55,1.07.4.01.8-.17,1.14-.6.33-.42.64-.81.98-1.23h.01v-.02c.52-.65,1.03-1.29,1.53-1.93.54-.66,1.07-1.31,1.61-1.96.81-.98,1.64-1.94,2.48-2.9h.01c1.12-1.28,2.27-2.52,3.49-3.74,3.59-3.58,8.33-8.24,11.5-12.2,4.1-5.1,7.13-13.69.32-17.59Z" style="fill: #80bf4c;"/>
      <path d="M1027.5,325.08c-6.88-3.94-11.81,2.77-13.51,8.01-3.14,9.57-6.34,18.8-10.72,27.79-.41.84-.82,1.69-1.25,2.52-.01.01-.01.03-.02.04-.21.42-.26.83-.21,1.21h0c.02.14.05.26.1.39.18.49.55.89,1,1.15.21.4.55.73.93.91.11.05.22.09.35.11.49.11,1.01-.03,1.42-.56.49-.62.98-1.24,1.46-1.85.06-.08.13-.16.19-.24,2.67-3.36,5.36-6.61,8.44-9.68,3.58-3.58,8.32-8.24,11.5-12.2,4.09-5.1,7.12-13.69.31-17.59Z" style="fill: #80bf4c;"/>
      <path d="M1033.07,361.29c-8.68,1.53-17.14,2.91-25.81,3.5-.07.01-.14.01-.21.02-.81.05-1.63.09-2.44.13-.13.01-.27.01-.42.02-.76.03-1.53.06-2.31.08-.14.01-.28.01-.43.01-.25.01-.5.02-.75.02-.52.01-.95.17-1.27.44-.5.4-.76,1.02-.78,1.65-.34.49-.46,1.12-.29,1.64.02.07.05.14.08.21.18.37.53.64,1.09.74,1.49.26,2.97.53,4.44.81h.01c3.6.68,7.13,1.45,10.69,2.53,4.85,1.46,11.21,3.43,16.2,4.37,6.43,1.2,15.42-.19,15.65-8.04.22-7.94-8.03-9.09-13.44-8.13Z" style="fill: #80bf4c;"/>
      <path d="M1004.78,365.46c-.06-.17-.12-.36-.17-.53-.28-.83-.56-1.66-.83-2.49-.17-.52-.35-1.04-.51-1.56-1.09-3.38-2.07-6.78-2.8-10.31-1.04-4.96-2.36-11.48-3.92-16.31-2.03-6.22-7.56-13.44-14.55-9.89-7.07,3.61-4.14,11.4-.7,15.7,6.08,7.59,11.86,15.05,16.87,23.28.44.71.86,1.42,1.28,2.15.23.38.46.77.68,1.16.65,1.15,1.88,1.27,2.8.81.23.02.48,0,.7-.04.19-.05.38-.12.54-.22.57-.33.89-.92.62-1.75Z" style="fill: #80bf4c;"/>
      <path d="M1002.77,363.46s-.03-.01-.05-.01c-.24,0-.48-.01-.72-.01-1.29-.03-2.56-.05-3.84-.09-3.64-.11-7.25-.32-10.91-.82-5.02-.68-11.6-1.64-16.67-1.77-6.54-.18-15.21,2.6-14.2,10.38,1.03,7.86,9.36,7.72,14.56,5.92,9.06-3.13,17.89-6.04,27.19-8h.01c.1-.03.2-.05.31-.07,1.27-.26,2.56-.52,3.85-.74.62-.1,1.06-.42,1.33-.82.08-.1.14-.21.19-.34.16-.38.22-.8.17-1.22.13-.29.2-.62.2-.92,0-.76-.45-1.46-1.42-1.49Z" style="fill: #80bf4c;"/>
    </g>
    <g>
      <g>
        <path d="M1271.03,547.85c-.75.1-1.55-.08-2.29-.66-.06-.04-.11-.09-.17-.13-6.88-5.47-14.05-10.56-21.46-15.26-.63-.41-1.26-.8-1.89-1.18-.32-.21-.62-.41-.93-.58-29.88-18.48-63.51-30.87-98.16-36.53-3.58-.59-7.15-1.11-10.74-1.54-10.61-1.3-21.28-1.97-31.91-2-31.79-.12-63.47,5.41-93.38,16.61-40,15.01-76.14,39.42-106.74,69.09-67.13,65.09-108.73,153.14-131.71,242.32-.82,3.18-5.69,1.83-4.91-1.35,12.93-52.76,35.49-104.46,62.08-151.96,43.14-77.08,111.12-143.77,197.26-169.53,20.34-6.09,41.27-9.58,62.3-10.63,9.92-.49,19.86-.44,29.77.15,46.75,2.76,92.77,17.41,132.44,42.54,7.69,4.87,15.15,10.14,22.32,15.79,2.25,1.77.41,4.56-1.89,4.84Z" style="fill: #2c8237;"/>
        <path id="Snowdrop04" d="M1278.27,550.95c-1.56-.77-3.22-1.52-5-2.25-.75-.3-1.49-.59-2.25-.85-.81-.28-1.64-.56-2.46-.79-8.75-2.63-17.46-2.68-25.07-.84-9.48,2.3-17.28,7.53-21.44,14.4-7.26,12.02-6.11,25.14.13,37.95,1.69,3.45,3.95,6.78,4.95,10.53.91,3.5.44,6.97-.41,10.42-1.32,5.35-3.52,10.52-3.98,16.05-.33,3.92.02,10.47,4.28,12.32,2.89,1.27,5.56-.25,7.64-2.53.89,2.13,2.28,3.91,4.45,4.39,2.71.6,5.63-.79,8.09-2.71.7,2.7,2.26,4.99,5.3,5.48,2.57.42,4.53-.57,6.03-2.16,1.66,2.86,4.26,4.92,8.03,4,6.32-1.53,7.42-11.04,8.02-16.31.55-4.92,2.54-15.67,6.58-19.02,2.44-2.02,4.98-3.83,7.15-6.16,4.73-5.1,8.03-11.52,9.72-18.25,3.81-15.06,3.63-32.09-19.77-43.67Z" style="fill: #ffe033;"/>
        <path d="M1236.59,622.97c-2.15,5.42-4.21,11.13-5.15,16.91-.53,3.26,4.01,3.95,4.93.92,1.65-5.43,2.93-10.97,4.68-16.38.82-2.54-3.48-3.93-4.46-1.45Z" style="fill: #e8702a;"/>
        <path d="M1248.58,625.79c-2.2,4.97-4.41,10.79-5.42,16.14-.51,2.68,3.34,3.93,4.53,1.48,2.38-4.9,4.07-10.89,5.27-16.19.58-2.56-3.31-3.83-4.38-1.43Z" style="fill: #e8702a;"/>
        <path d="M1259.63,627.99c-1.07,5.62-2.54,11.27-3.16,16.96-.36,3.29,4.26,4.18,5.06.95,1.38-5.56,1.95-11.37,2.88-17.02.51-3.09-4.19-3.98-4.78-.9Z" style="fill: #e8702a;"/>
        <path d="M1278.49,552.02c-1.06-6.26-6.52-10.62-11.23-14.29-5.57-4.34-11.52-8.06-17.88-11.1-.31-.28-2.3-.54-2.62-.8-.47.43.71.85.26,1.29-.94.9-1.83,1.93-2.75,2.93.17.14.36.27.58.38.64.32,1.27.65,1.91.97,1.15,1.27,2.04,2.63,2.49,4.09,1.82,5.89-7.44,9.71-8.22,15.57-.52,3.95,1.81,8,5.99,8.44,2.34.25,4.35-.84,6.4-1.77,4.23-1.91,5.6-.42,8.49,2.38,3.11,3.02,6.89,5.23,11.19,3.12,4.02-1.97,6.12-6.89,5.39-11.21Z" style="fill: #2c8237;"/>
      </g>
      <path d="M1198.68,588.82c-3.02-33.77-16.84-70.24-45.23-90.68-2.35-1.7-4.8-3.23-7.32-4.62-5.77-3.16-11.97-5.51-18.43-6.99-3.16-.72-6.35-1.29-9.54-1.84-9.91-.59-19.85-.64-29.77-.15.24.15.52.27.85.36,5,1.21,9.73,2.94,14.23,5.08,20.56,9.75,24.88,12.82,45.94,35.86,10.55,11.53,18.25,27.49,22.87,42.83,7.4,24.53,24.21,83.39-10.06,116.18-1.79,1.71,1.81,4.17,4.03,3.1,15.63-7.47,22.32-26.36,26.84-41.88,5.39-18.48,7.29-38.06,5.58-57.22Z" style="fill: #2c8237;"/>
      <path d="M1233.34,415.69c-35.62-3.44-71.12,2.69-105.25,12.71-.39.11-.77.22-1.16.35-3.66,1.08-7.31,2.2-10.94,3.37-13.15,4.2-26.15,8.86-39.09,13.68-15.59,5.81-31.52,11.29-45.24,20.91-13.2,9.25-24.3,21.52-30.62,36.45-.12.28.21.44.91.47h.01c5.76.23,36.3-7.55,48.67-13.69.86-.43,1.72-.86,2.58-1.3h0s.01,0,.01-.01c12.5-6.43,24.32-14.08,36.64-20.87,13.97-7.7,28.36-13.16,43.84-16.98,15.94-3.93,31.87-7.72,47.62-12.4,17.8-5.27,35.35-11.32,52.63-18.07,2.5-.98,2.08-4.36-.62-4.62Z" style="fill: #2c8237;"/>
    </g>
    <g>
      <path d="M1213.23,176.07c-41.24-9.46-83,3.18-118.85,23.76-36.34,20.85-68.25,49.71-96.45,80.48-57.06,62.25-98.96,136.85-129.84,215.1-17.71,44.89-32.13,90.97-46.29,137.07-14.77,48.1-29.49,96.2-44.24,144.31-28.83,94.06-60.88,187.99-79.54,284.75-18.63,96.62-23.8,195.2-27.26,293.34-.43,12.2-.83,24.41-1.21,36.61-.12,3.73,5.66,3.72,5.8,0,3.6-96.89,6.63-194.07,21.7-290.02,14.99-95.42,44.62-187.35,72.85-279.47,14.44-47.09,28.87-94.18,43.31-141.28,14.04-45.81,27.67-91.79,43.37-137.07,28.21-81.32,65.25-159.94,118.86-227.79,25.65-32.47,54.84-62.67,87.68-87.93,33.67-25.91,74.08-47.82,117.43-49.39,10.51-.38,20.97.55,31.26,2.69,3.36.7,4.81-4.4,1.43-5.17Z" style="fill: #2c8237;"/>
      <path id="Snowdrop02" d="M1240.33,201.47c-4.46-4.93-12.38-6.71-16.9-11.58-.59-.63-1.12-1.28-1.61-1.93-2.37-3.11-3.92-6.36-6.83-8.64-1.17-.93-2.57-1.7-4.33-2.24-1.11-.34-1.99-.05-2.59.51-1.34-.45-3.17.16-3.27,1.83-.01.18-.02.37-.05.55-.39,4.26-2.43,7.9-5.15,11.29-4.95,6.16-12.13,11.47-15.81,18.1-6.77,12.21-3.77,26.33.49,38.76,2.44,7.14,5.32,14.19,6.95,21.53,1.59,7.17-.32,15.48,3.05,22.28,2.17,4.4,6.85,7.82,12.6,7.3,4.78-.45,6.39-3.51,9.12-6.85,2.93,2.88,6.71,5.16,11.35,4.39,2.59-.44,5.81-4.23,5.5-6.33,1.61,2.66,6.31,3.98,8.41,3.69,5.28-.75,8.32-4.52,9.19-8.92,1.35-6.86-.7-14.44-.63-21.37.07-7.48,1.34-14.84,1.84-22.29.89-13.51,2.44-24.92-11.33-40.07Z" style="fill: #ffe033;"/>
      <path d="M1110.71,75.21c-10.43-11.48-26.61-17.58-41.33-11.11-2.53,1.11-.71,5.52,1.9,4.51,13.16-5.06,27.04.92,35.87,11.15,11.27,13.06,11.44,31.48,7.64,47.47-7.22,30.35-25.18,59.37-45.14,82.99-11.24,13.3-23.94,25.37-37.65,36.1-2.35,1.84.8,5.99,3.23,4.18,27.91-20.89,51-47.72,67.61-78.38,14.97-27.64,32.7-69.58,7.86-96.92Z" style="fill: #2c8237;"/>
      <path id="Snowdrop03" d="M1089.87,63.26c-.33-.37-.66-.71-1.01-1.05-7.56-7.24-21.72-8.16-31.31-5.82-10.53,2.58-16.68,12.93-17.55,23.23-1.09,12.91,11.66,15.88,22.03,12.61,11.57-3.65,22.18-13.41,27.86-24.08.11-.21.22-.43.34-.64.34-.66.41-1.3.29-1.87.19-.74.05-1.6-.65-2.38Z" style="fill: #ffe033;"/>
      <path d="M1149.37,104.13c-.46-20.44-3.91-40.7-7.63-60.77-.48-2.55-4.37-1.86-4.42.6-.38,18.83-2.02,37.62-5.14,56.2-2.57,15.34-6.75,29.49-15.62,42.05-1.06,1.51-2.19,3.01-3.4,4.47-2.6,3.15-5.35,6.12-8.23,8.95-20.41,20.1-46.93,33.45-65.47,55.6-9.84,11.75-15.69,28.01-16.85,43.72-.11,1.53-.18,3.06-.2,4.57-.01.62,1.71.38,4.53-.48,9.72-2.96,32.61-13.29,43.56-21.59,13.97-10.58,30.98-28.2,43.28-40.68.37-.37.72-.73,1.08-1.11,3.19-3.28,6.24-6.7,9.09-10.24,7.41-9.16,13.58-19.22,17.8-30.35,6.13-16.2,8-33.72,7.62-50.95Z" style="fill: #2c8237;"/>
      <path d="M1200.32,372.4c-10.96-35.01-24.91-75.62-61.94-90.69-9.61-3.91-19.88-5.78-30.03-7.71-10.4-1.98-20.86-3.8-31.42-4.89-20.25-2.08-40.99-1.12-59.97,6.84-4.85,2.03-10.53,5.67-16.12,9.88-13.82,10.37-27.15,24.26-26.29,26.24.41.93,1.38,1.36,2.78,1.39h.01c7.61.21,27.63-10.96,35.4-13.32,8.93-2.72,38.34-2.9,47.65-3.07,19.2-.35,39.59,2.15,58.19,6.95,16.9,4.35,34.19,13.41,45.61,26.26,12.51,14.06,19.59,29.77,32.96,43.08,1.66,1.65,3.89,1.38,3.16-.96Z" style="fill: #2c8237;"/>
      <path d="M1215.62,277.57c-.38-3.03-.56-6.11-1.3-9.07-.66-2.63-4.33-1.88-4.51.61-.44,5.83.5,13.34,2.17,18.94.78,2.63,5.01,2.23,4.9-.66-.12-3.28-.85-6.56-1.25-9.82Z" style="fill: #e8702a;"/>
      <path d="M1214.1,174.8c-6.77-3.39-14.27-1.92-24.81-1.92-.18,0-.34.02-.46.07-1.71.64,1.31,5.25,3.41,5.71.01,0,.02.01.03.01.05.01.09.02.13.03.16.04.31.07.5.09,3.35.34,7.32,1.45,7.23,5.7-.03,1.61-.98,3.13-.9,4.81.02.68.15,1.35.38,1.96.68,1.93,2.25,3.41,4.41,3.75,1.64.25,2.93-.36,4.45-.74,2.76-.71,4.36-.17,6.94-.1,2.71.08,4.76-1.46,5.78-3.95.3-.75.52-1.5.64-2.26.85-5.42-2.97-10.77-7.73-13.16Z" style="fill: #2c8237;"/>
      <path d="M942.41,216.05c-2.91-11.84-19.86-52.95-29.98-54.07-2.18-.24-2.91.73-2.06,2.37,18.02,35.12,16.51,76.45,8.21,114.04-4.66,21.09-11.34,41.63-17.89,62.2-4.59,14.45-9.12,28.93-12.83,43.62-.39,1.48-.75,2.97-1.11,4.45-.78,3.26-1.52,6.53-2.2,9.83-.01.03-.02.07-.02.11-.13.58-.24,1.16-.37,1.74-2.25,11.09-3.93,24.61-5.42,38.32-.28,2.57-.56,5.15-.83,7.72-1.28,12.15-2.48,24.12-3.86,34.35h0c-.12.88-.24,1.74-.37,2.58-.01.07-.02.12-.02.17h0c-.02.21,0,.27.04.23.39-.29,2.73-7.44,4.07-8.3,1.32.45,3.01.02,3.59-1.68,2.25-6.55,4.85-12.94,7.67-19.23,1.01-2.22,2.03-4.42,3.08-6.61,6.09-12.72,12.91-25.1,19.36-37.64,1.08-2.08,2.12-4.18,3.15-6.28,4.87-9.83,9.35-19.82,13.35-30.01h.01s.01-.03.01-.04c3.34-8.52,6.36-17.17,8.99-25.97,12.75-42.66,16.12-88.4,5.44-131.88Z" style="fill: #2c8237;"/>
      <path d="M1233.18,276.1c-.51-3.07-.76-6.21-1.38-9.26-.44-2.15-4.17-2.29-4.49,0-.42,2.99-.03,5.76.44,8.72.53,3.4.75,7.1,1.88,10.34.89,2.55,4.77,2.22,4.81-.65.04-3.05-.76-6.14-1.26-9.15Z" style="fill: #e8702a;"/>
      <path d="M1054.56,385.65c-15.76,13.52-31.25,27.35-46.56,41.38-1.97,1.81-3.92,3.61-5.88,5.43h-.01c-.36.32-.7.64-1.05.97-3.62,3.33-7.2,6.68-10.8,10.04h-.01c-22.32,20.84-44.32,42.02-66.27,63.21-2.11,2.03-4.22,4.07-6.31,6.14-9.75,9.51-19.35,19.19-28.57,29.16-2.67,2.9-5.32,5.8-7.93,8.75-10.49,11.83-20.39,24.09-29.39,37.01-7.56,10.85-14.47,22.15-20.54,34.05,0,.01-.01.01-.01.02-2.04,3.97-3.97,8.02-5.81,12.12-12.9,28.86-21.91,59.29-30.33,89.7-.36,1.32.33,2.31,1.29,2.73-.34.66-.66,1.32-1,1.99-1.53,3.11.07,3.64,1.63.51,1.15-2.3,2.32-4.58,3.54-6.83,0-.01.01-.01.01-.02,1.02-1.92,2.06-3.82,3.13-5.7,0-.01.01-.01.01-.02,0,0,0-.01.01-.01,6.9-12.21,14.68-23.87,22.85-35.31.01,0,.01-.01.01-.01,5.63-7.88,11.46-15.67,17.3-23.44,2.34-3.11,4.76-6.14,7.23-9.12,12.56-15.13,26.63-28.93,39.42-43.87,3.19-3.72,6.29-7.5,9.27-11.4.89-1.17,1.78-2.35,2.66-3.53,2.98-3.97,5.88-8.01,8.76-12.06.29-.41.59-.82.87-1.23,1.86-2.63,3.7-5.26,5.54-7.9,3.24-4.64,6.46-9.31,9.69-13.93.01-.01.02-.01.02-.02.01,0,.01-.01.01-.01,1.03-1.46,2.04-2.92,3.08-4.36,1.75-2.46,3.51-4.91,5.28-7.34.99-1.35,1.98-2.69,2.99-4.03h0c3.6-4.83,7.29-9.56,11.14-14.18,18.36-22.05,40.89-40.14,60.49-61.05,11.9-12.7,24.64-26.33,34.34-41.49.02-.04.05-.08.07-.11.91-1.43,1.8-2.88,2.65-4.33.69-1.17,1.36-2.35,2-3.54,4.41-8.1,7.83-16.63,9.74-25.7.58-2.74-2.48-4.45-4.57-2.66Z" style="fill: #2c8237;"/>
      <path d="M829.87,487.43c-.78,1.86-1.56,3.73-2.33,5.6-.86,2.11-1.72,4.22-2.55,6.34-4.23,10.62-8.16,21.35-11.87,32.15-14.76,42.92-26,87.05-37.75,130.86-7.1,26.49-14.2,53-21.31,79.5-.62,2.33-1.25,4.66-1.87,6.99v.03c-.47,1.74-.93,3.45-1.4,5.19-1.43,5.35-2.89,10.72-4.3,16.08-2.56,9.71-5,19.47-6.99,29.31-1.23,6.09-2.24,12.2-3.08,18.34-1.16,8.38-2,16.82-2.7,25.26-.72,8.73-1.41,17.46-2.07,26.19,0,.03-.01.07-.01.1-.04.36-.06.69-.08,1.05h0c-.25,3.33-.51,6.66-.75,9.98-.01,0,0,.01,0,.01-.32,4.33-.64,8.67-.94,13.01-.14,1.96-.27,3.93-.42,5.9,0,.07-.01.14-.01.22v.02c-.04.52-.08,1.04-.11,1.56h0c-.17,2.51-.35,5-.52,7.51h0c-.33,4.86-.64,9.7-.96,14.56h0c-.19,3.07-.39,6.12-.58,9.18-.6,3.01-1.07,6.06-1.37,9.14-.09.89.2,1.56.69,2,0,.07-.01.14-.01.21v.02c-.1,1.62-.2,3.24-.3,4.85-.07,1.25.61,2,1.5,2.27,1.39.44,3.29-.34,3.46-2.27.24-2.77.48-5.55.71-8.32.17-2.02.34-4.04.5-6.07.52-2.73,1.15-5.45,1.89-8.12h0c.25-.95.53-1.88.81-2.81.67-2.27,1.42-4.5,2.21-6.74h0c2.41-6.73,5.28-13.28,8.24-19.78.21-.46.42-.92.62-1.38h.01c1.21-2.65,2.39-5.29,3.58-7.95,0,0,.01,0,.01-.02s.01-.02.01-.03c4.45-10.03,8.69-20.13,12.19-30.57,4.1-12.22,7.44-24.66,10.24-37.23.6-2.64,1.16-5.28,1.7-7.94.25-1.21.5-2.42.74-3.63,0,0-.01-.01,0-.01.3-1.55.61-3.12.9-4.68h0c.82-4.3,1.59-8.6,2.28-12.9.01-.01.01-.02.01-.03.01-.01.01-.03.01-.04,0-.01,0-.02,0-.03.15-.84.29-1.69.43-2.54.59-3.56,1.14-7.11,1.68-10.67.37-2.45.73-4.89,1.08-7.34.4-2.78.78-5.57,1.17-8.36v-.02c.89-6.49,1.74-13.01,2.58-19.52,1.44-11.33,2.85-22.67,4.41-33.99v-.03c1.12-8.19,2.31-16.38,3.63-24.55v-.02c.1-.6.19-1.21.29-1.81,2.35-14.32,5.1-28.56,8.61-42.64,3.86-15.54,8.76-30.79,12.96-46.23,7.65-28.01,13.5-56.43,17.75-85.15h0c.95-6.43,1.82-12.86,2.61-19.32.4-3.27-4.21-3.19-5.25-.71Z" style="fill: #2c8237;"/>
    </g>
    <g>
      <path d="M753.38,1091.98c-11.81-46.67-25.53-92.93-38.35-139.33-12.51-45.29-24.41-90.81-38.41-135.66-23.99-76.83-57.78-150.44-107.53-214.14-26.58-34.03-57.47-65.25-92.82-90.2-3.33-2.35-6.28,3.01-3.15,5.4,61.64,47.03,110.28,107.43,146.22,175.97,40.57,77.36,61.77,162.19,84.89,245.89,14.16,51.27,27.38,102.92,42.65,153.86,1.24,4.15,7.56,2.43,6.5-1.79Z" style="fill: #2c8237;"/>
      <path d="M780.66,1245.77c-7.72-46.34-14.81-92.86-24.07-138.93-1.8-8.94-3.74-17.85-5.81-26.73-.55.03-1.09.08-1.64.09-1.93.06-3.84.03-5.74-.04,11.62,50.05,19.39,101.08,27.84,151.8,8.74,52.46,16.5,105.21,26.38,157.47.8,4.25,7.27,3.2,6.65-1.1-6.88-47.64-15.7-95.08-23.62-142.56Z" style="fill: #2c8237;"/>
      <path id="Pansy01" d="M534.6,531.14c-9.05-1.35-18.3,1.57-27.23-.24-7.05-1.42-8.68-3.66-14.33-8.75,7.69-3.54,15.92-4.88,24.44-5.03,8.92-.15,17.94,1.48,26.82.87,8.55-.59,15.71-1.75,22.66-6.65,4.92-3.46,11.07-26.24-1.37-33.65-12.75-7.61-25.28-3.72-37.71,3.55-13.99,8.18-23.02,27.66-38.73,32.52,1.65-5.74,4.04-11.24,7.25-16.31,4.12-6.52,9.54-11.59,15.38-16.53,5.56-4.71,10.14-9.82,12.64-16.76,2.22-6.17,2.63-12.89,1.24-19.29-1.47-6.73-4.83-12.64-11.53-15.14-6.09-2.27-12.95-1.89-18.85.78-13.63,6.16-16.44,21.83-15.83,35.3.44,9.62,1.55,18.95.31,28.57-.76,5.93-1.67,11.84-2.6,17.74-4.86-2.97-9.49-6.3-13.75-10.1-6.07-5.41-11.01-11.77-16.33-17.87-8.83-10.12-22.6-20.66-36.76-14.71-11.89,4.99-18.07,18.98-14.14,31.16,4.52,13.99,17.75,20.71,31.64,21.42,9.13.47,18.08-.3,27.1,1.67,2.06.45,4.11.96,6.15,1.49-4.87,1.96-9.78,3.8-14.99,3.88-8.51.13-16.95-2.2-25.51-2.14-12.77.09-24.86,8.16-26.93,21.37-1.91,12.19,5.8,24.59,18.02,27.3,15.8,3.51,23.97-9.23,33.59-19.12,6.25-6.42,13.06-12.32,20.8-16.89,1.95-1.15,4.08-2.25,5.99-3.49-1,3.39-2.28,6.73-3.8,10.01-3.74,8.1-12.73,15.79-16.04,24.06-3.19,7.95-5.85,17.06-4.46,25.45.98,5.93,3.98,14.29,13.34,17.87,7.52,2.88,14.48,1.05,19.4-3.39,11.03-9.94,16.68-24.66,15.55-39.01-.99-12.55-9.39-25.36-11.96-38.07,5.76,4.87,8.42,7.71,14.39,13.37,6.69,6.35,8.53,15.51,13.64,22.94,8.24,11.98,22.16,20.37,37.01,17.49,13.67-2.65,24.35-21.16,17.54-35.65-6.24-13.27-17.79-17.9-32.08-20.04Z" style="fill: #8b3fc8;"/>
      <path d="M502.31,490.3c-.42-4.39-4.14-7.74-8.5-5.44-5.11,2.7-6.14,11.14-7.76,16.04-1.57,4.75-3.35,9.26-5.67,13.54,1.76-6.49,3.22-13.09,3.07-19.86-.12-5.6-1.31-14.2-7.73-16.13-7.41-2.23-7.82,5.52-6.66,10.44,1.65,7.04,4.98,13.92,5,21.13-2.86-4.65-6.23-8.99-10-12.95-3.43-3.61-10.32-9.23-15.37-4.98-5.83,4.9,2.2,10.35,5.63,13.07,4.88,3.86,9.48,7.97,13.5,12.63-2.47-1.03-4.93-2.41-6.68-2.96-4.21-1.31-8.6-2.23-13.02-2.28-4.48-.06-14.9,2.79-11.87,9.37,3.14,6.82,14.35,4.47,20.03,4.4,3.8-.05,7.78.95,11.62,1.22-2.01,1.75-4.08,3.37-6.26,4.71-4.58,2.79-13.88,3.69-16.49,8.84-2.61,5.16,3.15,9.64,7.88,9.42,6.33-.28,11.36-5.95,15.33-10.27,3.65-3.97,6.85-8.32,9.66-12.91.53-.51,1.05-1.03,1.58-1.53,5.5-5.24,11.08-10.51,15.58-16.66,3.88-5.3,7.8-11.99,7.14-18.84Z" style="fill: #ffe0cf;"/>
      <path d="M497.48,520.37c-.19-3.34-1.19-6.4-2.8-9.02-.17-.28-.35-.56-.54-.82-.8-1.17-1.73-2.23-2.77-3.18-1.79-1.64-3.89-2.93-6.23-3.78-.72-.27-1.46-.5-2.23-.67-1.31-.32-2.69-.52-4.1-.56h-.13c-1.91-.05-3.78.17-5.54.63-1.09.28-2.14.66-3.13,1.13-.85.4-1.66.86-2.42,1.38-2.37,1.63-4.24,3.85-5.31,6.53-.38.92-.65,1.91-.82,2.95-.25,1.51-.27,3.15-.03,4.88.26,1.89.65,4.5,1.73,7.13h0c.43,1.06.97,2.11,1.65,3.12,1.55,2.29,3.85,4.37,7.33,5.72,2,.77,4.4,1.31,7.26,1.5,2.15.14,4.05.05,5.72-.22,1.04-.16,1.98-.41,2.84-.71,1.89-.64,3.41-1.56,4.63-2.65,1.93-1.7,3.11-3.79,3.83-5.81.26-.72.47-1.44.62-2.12.42-1.85.49-3.47.48-4.44,0-.33-.01-.65-.03-.98Z" style="fill: #ffe0cf;"/>
      <path d="M551.75,545.81c-.76-3.06-5.39-1.76-4.71,1.3,1.73,7.86-.13,14.76-4.14,21.55-1.7,2.89,2.45,5.05,4.36,2.55,5.47-7.15,6.61-16.84,4.49-25.4Z" style="fill: #331d20;"/>
      <path d="M475.51,586.01c-6.06,1.03-11.43.11-16.43-3.64-2.16-1.62-5,2.04-2.9,3.76,5.68,4.67,13.46,6.99,20.67,4.74,3.15-.98,1.82-5.4-1.34-4.87Z" style="fill: #331d20;"/>
      <path d="M418.49,559.66c-5.38-3.15-9.14-8.39-8.04-14.91.5-2.96-3.93-4.3-4.59-1.26-1.8,8.35,2.32,17.82,10.64,20.88,2.78,1.02,4.44-3.26,1.98-4.7Z" style="fill: #331d20;"/>
      <path d="M552.02,477.43c-2.56-1.81-4.85,2.33-2.43,4.16,7.08,5.35,6.74,14.31,6.23,22.26-.18,2.73,4.37,3.41,4.84.65,1.72-10.07.2-20.83-8.63-27.07Z" style="fill: #331d20;"/>
      <path d="M514.71,449.15c-4.55-8.4-14.43-10.78-22.77-6.65-2.8,1.39-.35,5.44,2.43,4.16,6.05-2.79,12.54-.46,16.11,4.96,1.73,2.63,5.75.32,4.24-2.48Z" style="fill: #331d20;"/>
      <path d="M490.85,508.41c-6.77-4.64-13.27.77-14.12,7.42-3.18-.49-6.21.2-8.33,3.28-2.77,4.01-1.72,8.75.34,12.81,1.16,2.3,5.09.7,4.21-1.78-.75-2.12-1.72-4.62-.96-6.88,1.11-3.33,4.38-2.38,6.8-1.45,1.96.75,3.66-1.45,3.22-3.22-.94-3.85,1.93-8.55,6.16-5.6,2.8,1.95,5.47-2.65,2.67-4.57Z" style="fill: #d1b2a1;"/>
    </g>
    <g>
      <path d="M729.56,1135.94c-16.96-124.31-35.87-248.36-56.71-372.08-20.84-123.72-43.61-247.11-68.34-370.11-13.93-69.33-27.95-138.71-43.89-207.61-.92-4-6.94-2.29-6.12,1.69,12.71,61.44,26.12,122.72,38.58,184.21,12.46,61.48,24.45,123.06,35.96,184.73,23.02,123.33,44.11,247.03,63.26,371.02,10.8,69.91,20.98,139.92,30.56,210,.6,4.41,7.3,2.53,6.7-1.85Z" style="fill: #2c8237;"/>
      <path id="Pansy03" d="M641.57,146.19c-15.55-10.88-31.06-3.59-46.36,4.57-7.05,3.76-12.98,8.74-16.65,15.46-1.17,2.12-2.09,4.41-2.77,6.89-1.11,4.07-1.66,8.27-2.1,12.48-.18,1.74-.35,3.49-.52,5.21-.02.12-.03.24-.04.37-.39,3.69-.78,7.39-1.15,11.09-.8-1.72-1.56-3.44-2.27-5.19-1.57-3.93-2.83-7.98-3.39-12.23-.14-1.07-.21-2.1-.22-3.13-.07-3.7.59-7.19,1.53-10.65h0c1.18-4.39,2.8-8.69,3.9-13.27,3.88-16.01-5.37-32.98-21.06-38.24-14.64-4.92-31.69.27-40.01,13.54-3.69,5.86-5.56,13.03-4.14,19.89,1.77,8.47,8.14,14.93,15.17,19.49,4.42,2.88,9.22,5.19,13.82,7.77,3.96,2.23,7.76,4.66,11.05,7.84.58.55,1.14,1.13,1.68,1.74,1.17,1.3,2.24,2.67,3.22,4.1-1.82-1.67-3.75-3.2-5.75-4.6-2.29-1.61-4.67-3.03-7.15-4.26h-.01c-15.28-7.61-33.76-8.03-49.83,2.18-13.34,8.47-24.94,25.56-21.64,42.04,1.61,8.02,7.96,14.21,16.19,15.1,9.19.99,15.97-5.52,21.67-11.8,7.35-8.1,17.22-27.44,40.85-27.44,2.79,0,4.51.98,5.78,2.5-1.38.06-2.77.24-4.15.6-1.79.47-3.57,1.21-5.31,2.31-7.94,4.98-14.61,12.82-21.44,19.16-5.49,5.09-12.91,10.54-15.48,17.9-2.51,7.2,1.28,14.53,7.58,18.32,12.77,7.68,33.2,4.67,43.01-6.5,5.57-6.36,7-14.07,6.04-22.3-.53-4.57-1.68-9.08-1.83-13.71-.01-.44-.02-.97-.01-1.54.53.47,1.11.92,1.76,1.34.24.49.48.99.69,1.48,2.13,4.89,3.27,10.24,6.37,14.68,1.43,2.05,3.17,3.79,5.12,5.23,6.73,4.98,15.99,6.42,24.1,4.68,12-2.57,25.18-11.24,31.53-21.88,5.63-9.44,4.08-21.34-5.94-27-11.84-6.69-24.62-1.84-36.92,1.24,1.08-1.88,2.16-3.77,3.32-5.59,5.98-9.38,14.17-14.4,25.4-15.09,5.75-.36,4.71-.37,10.36.7,4.81.91,9.78,2.72,14.73,2,8.27-1.21,13.08-9.7,12.88-17.51-.2-8.01-5.14-15.51-11.59-20.01Z" style="fill: #8b3fc8;"/>
      <path d="M580.04,196.42c-.81-3.88-2.64-7.19-5.17-9.73-.38-.39-.77-.75-1.19-1.1-2.18-1.86-4.78-3.19-7.59-3.89-.08-.03-.17-.05-.25-.06-.79-.19-1.61-.34-2.44-.42-1.75-.19-3.56-.14-5.39.16-1.54.25-3.02.67-4.4,1.24-.45.19-.88.39-1.32.61-2.38,1.19-4.42,2.84-5.93,4.85-.3.4-.59.81-.85,1.24-.47.75-.86,1.54-1.18,2.38-.5,1.3-.81,2.69-.88,4.16h0c-.11,1.93.16,3.95.89,6.05.3.88.68,1.93,1.16,3.06.03.06.06.13.08.19.44,1.01.98,2.06,1.64,3.1,2.29,3.66,6.15,7.13,13.12,7.53,1.51.09,3.18.03,5.01-.2.66-.08,1.29-.18,1.9-.32,14.83-2.87,13.53-15.34,12.8-18.84Z" style="fill: #ffe0cf;"/>
      <path d="M575.12,164.62c-4.82-.38-7.07,4.67-8.2,8.51-.74,2.51-1.35,16.16-2.9,16.32-1.36.14-.2-16.36-.38-18.84-.25-3.36-2.03-8.44-6.22-8.01-9.4.98-4.23,19.74-1.58,27.72-1.59-2.84-3.06-5.67-4.23-8.77-1.08-2.87-1.93-5.92-3.67-8.48-2.46-3.63-7.93-6.89-11.87-3.33-7.69,6.94,6.15,20.9,14.26,27.16-.06.04-.13.09-.19.14-3.67-.21-7.21-1.03-10.53-2.76-2.66-1.38-4.89-3.48-7.66-4.66-3.96-1.7-10.11-.69-9.99,4.76.12,5.2,6.99,8.79,11.28,9.91,5.38,1.4,12.78.94,18.57-.21.04,0,.09,0,.14,0,.54,0,1.04-.13,1.49-.36.19-.04.38-.09.56-.13,1.64-.4,17-5.32,17.45-8.55,2.66-6.81,5.91-13.64,7.99-20.65,1.14-3.85.79-9.36-4.33-9.76Z" style="fill: #ffe0cf;"/>
      <path d="M610.88,211.64c-5.4,7.35-13.28,10.54-21.64,13.48-3.49,1.23-2.07,6.71,1.55,5.61,9.32-2.85,20.64-6.62,25.06-16.18,1.57-3.39-2.77-5.89-4.97-2.91Z" style="fill: #331d20;"/>
      <path d="M552.99,130.97c-11.12-2.69-23,2.69-29.97,11.35-2.31,2.87,1.64,6.99,4.12,4.12,6.63-7.7,15.28-10.01,25.09-9.78,3.24.08,3.96-4.91.77-5.69Z" style="fill: #331d20;"/>
      <path d="M537.72,251.8c-6.22.15-11.63-.53-17.02-3.9-3.26-2.04-6.18,3.04-3,5.13,6.09,4.01,13.57,6.14,20.83,4.75,3.39-.65,2.59-6.06-.81-5.98Z" style="fill: #331d20;"/>
    </g>
    <g>
      <path d="M834.32,1410.32c-13.43-80.61-28.26-160.98-44.52-241.06-16.26-80.08-33.94-159.88-53.04-239.33-18.7-77.84-37.57-155.96-62.97-231.94-23.23-69.5-53.23-136.52-90.55-199.6-36.25-61.27-78.98-118.78-127.4-170.97-6-6.47-12.11-12.83-18.35-19.08-2.86-2.87-7.22,1.51-4.44,4.44,49.07,51.87,93.49,107.54,131.35,168.15,38.35,61.4,69.94,126.83,94.32,194.99,26.92,75.28,46.17,153.11,65.12,230.7,19.21,78.69,37.04,157.71,53.48,237.02,16.44,79.31,31.49,158.91,45.14,238.75,1.7,9.94,3.37,19.88,5.03,29.82.75,4.49,7.58,2.59,6.84-1.89Z" style="fill: #2c8237;"/>
      <path id="Rudbeckia" d="M519.51,308.98c-4.9-8.11-15.77-12.52-24.49-14.82-9.51-2.51-20.75-4.42-30.54-2.98-7.42,1.09-13.1,5.2-17.97,10.33-1.87,1.96-3.63,4.08-5.32,6.23-.06-.03-.12-.06-.17-.08-1.02-.48-1.99-.26-2.7.27-.18.13-.34.28-.48.45-.41.48-.65,1.07-.68,1.65-1.07.88-2,1.97-2.82,3.05-.27-.03-.54-.01-.8.06h-.01c-1.11.25-2,1.25-1.59,2.69.21.74.44,1.48.66,2.22-.78-.47-1.82-.56-2.64.1-3.05,2.46-6.03,5.37-8.67,8.63-4.23,5.15-7.58,11.14-8.94,17.36-2.38,10.87-.45,20.07,1.64,30.97,1.71,8.95,4.83,19.55,11.92,25.78,4.73,4.17,10.11,4.09,12.81-.59,4.17,2.67,9.78,4.17,11.69-1.8,1.93-6.06-4.42-14.69-7.26-19.52-5.17-8.77-8.89-17.42-10.53-27.52-1.27-7.8-1.34-15.67-.08-23.41.33-2.06.76-4.1,1.29-6.13.06.18.11.36.17.53,5.5,16.42,13.88,32.14,24.25,45.89,3.94,5.22,10.61,16.58,18.7,13.44,4.2-1.63,5.42-5.73,5.02-9.94,1.34.65,2.69,1.03,3.93.91,1.76-.16,3.28-1.32,4.25-4.04.18-.51.32-1.03.4-1.54.52-3.17-.63-6.39-1.95-9.28-2.05-4.47-4.62-8.72-7.4-12.78-8.96-13.09-19.58-25.37-33.11-33.64,17.59-5.86,35.9.97,48.21,14.21,3.86,4.15,9.53,11.97,16.05,7.23,3.99-2.9,3.29-7.11,1.24-10.72,2.14-.27,4.19-1.03,5.71-2.68,2.77-3.01,2.18-7.28.22-10.54Z" style="fill: #ff4da6;"/>
      <path d="M447.52,303.56c-.26-.71-.61-1.39-1.01-2.05-1.92-3.17-5.25-5.53-9.12-5.2-3.1.26-5.33,2.24-6.38,4.83-1.41-.34-2.9-.39-4.44.02-5.29,1.37-7.59,6.69-8.7,11.52-1.1,4.74-1.65,9.61,2.3,13.21.36.33.73.63,1.12.89,3.26,2.27,7.51,2.49,11.25,1.27.37-.11.73-.24,1.09-.4,1.15-.48,2.31-1.08,3.44-1.79,1.67-1.04,3.28-2.32,4.73-3.76,1.58-1.56,2.99-3.33,4.08-5.22.75-1.29,1.36-2.63,1.79-4.01.14-.46.26-.91.37-1.38.57-2.6.49-5.29-.52-7.93Z" style="fill: #4f2525;"/>
    </g>
    <g>
      <path d="M743.7,1244.68c-5.76-70.37-13.85-140.53-23.05-210.52-9.09-69.12-19.14-138.11-29.37-207.06-4.84-32.64-10.16-65.39-20.13-96.92-4.29-13.56-8.81-28.5-17.42-40.04-8.38-11.24-20.26-15.77-33.97-16.58-10.99-.65-22.15-.34-33.24.28,0-.08.03-.15.03-.23.64-19.77,2.86-39.63,4.86-59.31.59-5.83,1.22-11.65,1.88-17.47,9.19-4.58,17.96-10.28,26.83-15.44,8.72-5.07,17.43-10.13,26.15-15.2,8.72-5.07,17.43-10.13,26.15-15.2,9.18-5.33,19.24-10.12,27.78-16.41,2.75-2.03.46-5.95-2.67-4.56-9.69,4.31-18.83,10.69-28,16.03-8.72,5.07-17.43,10.14-26.15,15.21-8.72,5.07-17.43,10.14-26.15,15.21-7.65,4.45-15.62,8.64-23.15,13.38,1.35-11.6,2.82-23.18,4.43-34.74,5.42-38.98,12.28-77.77,20.28-116.3.79-3.82-5.03-5.46-5.87-1.62-8.58,39.08-15.56,78.48-21.09,118.12-2.69,19.29-5.05,38.63-7.06,58-2.08,20.07-3.19,40.23-5.21,60.3-.02.23-.01.45,0,.65-3.22.21-6.43.43-9.62.66-16.54,1.17-33.04,3-49.44,5.45-4.26.64-12.4,1.81-16.23,2.65-27.63,4.88-54.93,11.66-81.64,20.21-7.91,2.53-15.77,5.23-23.57,8.07-3.65,1.33-2.09,7.2,1.62,5.87,32.55-11.67,66.03-20.67,100.02-26.89-3.41,6.98-10.33,27.11-13.56,35.94-6.57,17.96-12.42,36.17-17.7,54.56-1.08,3.78,4.76,5.37,5.87,1.62,5.33-18.03,11.26-35.89,17.74-53.54,3.12-8.52,12.39-30.92,15.46-39.95,28.21-4.8,56.74-7.69,85.36-8.59,14.68-.46,33.2-2.92,46.1,5.64,11.93,7.92,17.03,23.31,21.55,36.17,10.76,30.6,16.64,62.62,21.56,94.6,10.42,67.72,20.03,135.6,29.09,203.52,9.07,68,17.16,136.14,23.16,204.48,5.96,67.92,9.86,136.04,10.58,204.23.09,8.7.13,17.39.12,26.09,0,4.31,6.7,4.32,6.7,0,.06-70.2-3.33-140.37-9.05-210.33Z" style="fill: #80bf4c;"/>
      <path d="M414.94,707.14c-.27-.37-.72-.59-1.34-.52-.29.03-.6.07-.89.1-.34.04-.67.08-1.02.11-.52.06-1.05.12-1.56.17,0,0-.01.01-.01,0-3.99.43-7.94.76-11.99.74-5.06-.02-11.71-.1-16.76.44-6.5.68-14.73,4.58-12.7,12.16,2.04,7.66,10.28,6.42,15.21,3.95,4.98-2.5,9.91-4.92,14.92-7.11,3.97-1.76,8-3.37,12.16-4.8.61-.21,1.22-.42,1.84-.62.34-.11.68-.21,1.02-.33.61-.19,1.01-.57,1.22-1.03.25-.48.28-1.04.15-1.55.18-.6.11-1.27-.23-1.73Z" style="fill: #80bf4c;"/>
      <path d="M478.3,774.57c-.14-.21-.28-.43-.43-.64-.23-.36-.46-.71-.69-1.06-.4-.61-.79-1.21-1.19-1.82h0c-.08-.12-.15-.24-.22-.36-.78-1.21-1.53-2.41-2.28-3.64h0c-1.13-1.88-2.19-3.79-3.19-5.77-2.28-4.53-5.21-10.5-7.97-14.76-3.56-5.49-10.76-11.06-16.6-5.83-5.91,5.3-1.08,12.08,3.35,15.35,6.96,5.15,13.68,10.27,19.98,16.04.77.7,1.53,1.41,2.29,2.13.62.6,1.23,1.2,1.84,1.81.3.29.61.6.9.9.36.36.75.55,1.15.6.04.01.08.02.13.02.56.05,1.12-.15,1.54-.51h.01s.05-.04.08-.06c.65-.1,1.25-.51,1.47-1.07.16-.39.14-.86-.18-1.35Z" style="fill: #80bf4c;"/>
      <path d="M487.4,737.19c-.08-.09-.17-.19-.25-.28-.91-1.04-1.83-2.06-2.72-3.09-2.4-2.77-4.7-5.58-6.84-8.64-2.9-4.16-6.67-9.64-10-13.46-4.31-4.93-12.22-9.41-17.26-3.39-5.09,6.09.66,12.11,5.52,14.71,9.3,5,18.22,10,26.66,16.29.36.26.72.53,1.08.8.15.11.29.2.45.26.92.43,1.87.05,2.45-.62,1.08-.36,1.87-1.52.92-2.58Z" style="fill: #80bf4c;"/>
      <path d="M478.49,775.92c-.15-.47-.48-.86-.87-1.13,0-.01-.01-.01-.01-.01-.23-.52-.66-.94-1.15-1.1-.49-.17-1.04-.08-1.51.44l-1.52,1.68c-.08.08-.15.16-.22.23-1.14,1.24-2.28,2.46-3.42,3.66h-.01c-.25.26-.5.51-.74.76-1.6,1.62-3.24,3.19-4.98,4.7-3.83,3.31-8.89,7.63-12.34,11.35-4.44,4.81-8.07,13.15-1.55,17.53,6.58,4.42,11.97-1.93,14.05-7.03,3.95-9.66,7.93-18.95,13.19-27.9.29-.49.59-.99.88-1.47.37-.59.4-1.19.22-1.71Z" style="fill: #80bf4c;"/>
      <path d="M507.65,784.27c-10.18-3.14-19.99-6.35-29.58-10.97-.29-.13-.59-.27-.88-.43-.02,0-.03-.01-.05-.02-.42-.2-.82-.26-1.2-.21-.68.09-1.25.55-1.57,1.13-.74.42-1.24,1.27-.94,2.03.09.24.26.48.54.68.45.35.9.68,1.35,1.02.02.03.04.04.07.06.38.29.76.59,1.14.87.29.22.58.45.86.67,2.95,2.29,5.8,4.63,8.52,7.26,3.64,3.52,8.39,8.17,12.41,11.28,5.17,4,13.81,6.88,17.59,0,3.82-6.95-2.99-11.76-8.25-13.37Z" style="fill: #80bf4c;"/>
      <path d="M534.57,694.03c-7.51-1.72-14.82-3.5-22.04-5.81h-.01c-3.1-1-6.16-2.09-9.23-3.32-1.22-.5-2.26.18-2.69,1.11-.94.62-1.4,1.96-.21,2.73,2.24,1.45,4.44,2.9,6.59,4.41,2.06,1.43,4.07,2.94,6.05,4.57,3.89,3.24,8.97,7.54,13.21,10.33,5.46,3.62,14.28,5.85,17.54-1.29,3.3-7.21-3.84-11.5-9.21-12.73Z" style="fill: #80bf4c;"/>
      <path d="M545.71,602.16c-6.83-4.03-11.84,2.63-13.62,7.84-3.2,9.37-6.47,18.41-10.84,27.22.67.26,1.28.68,1.84,1.38.73.92,1.23,1.97,1.64,3.07,2.79-3.43,5.6-6.75,8.8-9.86,3.63-3.53,8.42-8.14,11.65-12.06,4.16-5.05,7.29-13.6.54-17.58Z" style="fill: #80bf4c;"/>
      <path d="M717.33,503.56c-6.52-4.52-12,1.76-14.16,6.82-3.88,9.11-7.8,17.89-12.8,26.35.65.31,1.22.77,1.73,1.51.66.98,1.09,2.06,1.42,3.18,3.03-3.21,6.08-6.32,9.49-9.19,3.87-3.26,9-7.51,12.5-11.18,4.52-4.73,8.27-13.03,1.82-17.5Z" style="fill: #80bf4c;"/>
      <path d="M563.62,653.86c3.3-7.22-3.84-11.5-9.21-12.73-9.65-2.21-18.99-4.52-28.2-7.96-.19.69-.54,1.34-1.18,1.97-.84.83-1.83,1.43-2.88,1.95,3.7,2.42,7.29,4.87,10.72,7.73,3.89,3.24,8.97,7.53,13.2,10.34,5.45,3.61,14.28,5.84,17.54-1.29Z" style="fill: #80bf4c;"/>
      <path d="M526.63,639.34c-.76-1.25-1.58-2.43-2.2-3.71-3.11-.58-6.2-1.23-9.3-2.13-4.86-1.4-11.24-3.3-16.24-4.17-6.45-1.12-15.42.38-15.55,8.23-.13,7.93,8.14,8.99,13.55,7.96,10.36-1.97,20.44-3.69,30.94-4.12-.4-.69-.79-1.39-1.2-2.07Z" style="fill: #80bf4c;"/>
      <path d="M517.28,713.66c-5.44-5.78-12.1-.79-15.27,3.71-3.12,4.41-6.22,8.74-9.48,12.92-1.75,2.25-3.54,4.45-5.39,6.6-1.02,1.18-2.05,2.34-3.12,3.48-.76.82-1.53,1.65-2.33,2.46-.91.95-.68,2.16.01,2.93.21,1.11,1.29,2.03,2.45,1.23,1.09-.75,2.15-1.49,3.23-2.22,3.2-2.17,6.41-4.25,9.87-6.08,4.48-2.38,10.37-5.46,14.57-8.31,5.42-3.68,10.82-10.99,5.46-16.72Z" style="fill: #80bf4c;"/>
      <path d="M439.62,671.77c-6.61-4.38-11.96,2.01-14.01,7.12-3.42,8.54-6.87,16.8-11.21,24.78-.5.92-1.01,1.84-1.53,2.76-.06.09-.11.18-.16.28-.28.47-.56.94-.84,1.42-.04.07-.09.15-.13.22-.52.87-.34,1.75.17,2.37.15.18.33.35.52.48.09.2.21.4.37.56.58.66,1.54.91,2.3.07.34-.38.67-.74,1.01-1.12,2.43-2.69,4.85-5.31,7.46-7.8.77-.74,1.55-1.46,2.37-2.17,3.81-3.34,8.84-7.7,12.26-11.44,4.41-4.83,7.99-13.2,1.44-17.54Z" style="fill: #80bf4c;"/>
      <path d="M416.67,704.95c-.39-.16-.78-.31-1.15-.49-1.27-.91-2.56-1.79-3.87-2.64-7.86-9.44-10.14-14.59-11.96-17.01-3.21-4.26-10.92-11.61-16-5.29-4.45,5.53.99,13.5,5.92,16.29,4.01,2.27,8.35,3.98,12.4,6.18,2.17,1.18,4.31,2.43,6.43,3.7,1.55,1.35,3.26,2.48,5.17,3.39.91-1.44,1.95-2.82,3.05-4.13Z" style="fill: #80bf4c;"/>
      <path d="M410.99,710.8c-.04,1.19-.07,2.39-.06,3.58-3.59,11.75-6.65,16.47-7.67,19.33-1.8,5.02-3.72,15.5,4.34,16.28,7.07.69,10.75-8.22,10.38-13.88-.3-4.6-1.25-9.16-1.63-13.76-.21-2.47-.33-4.93-.43-7.41.21-1.53.26-3.08.16-4.64-1.69.2-3.38.39-5.08.5Z" style="fill: #80bf4c;"/>
      <path d="M476.45,773.68c-.15-.35-.35-.69-.52-1.05-.16-.32-.32-.64-.41-.99.03-.01.07-.02.11-.03.29-.08.4-.34.36-.57h0c-.03-.14-.1-.27-.22-.36-.1-.07-.24-.11-.41-.07-.18-.46-.94-.36-1.02.22-.01,0,0,.01-.01.01-.71.16-1.42.34-2.13.5-1.05.25-2.09.5-3.14.73-2.39.54-4.79,1.03-7.21,1.37-4.68.66-9.34.38-14.04.57-5.83.23-13.42,2.24-15.07,8.74-1.45,5.71,2.58,10.25,8.33,9.78,3.52-.28,6.74-1.83,9.76-3.55,3.73-2.11,7.34-4.27,11.31-5.92,2.25-.93,4.57-1.75,6.87-2.63.19-.08.4-.15.59-.23,1.61-.63,3.18-1.31,4.68-2.11.33-.16.65-.36.96-.57.02-.01.04-.02.06-.04.69-.48,1.26-1.08,1.44-1.93.14-.69-.03-1.29-.29-1.88Z" style="fill: #80bf4c;"/>
      <path d="M649.24,449.3c-.76-.28-1.52-.52-2.26-.69-8.42-2-16.6-4.06-24.67-6.91-1.28-.45-2.55-.91-3.83-1.41-.51-.19-1.02-.4-1.52-.6-.4-.15-.78-.31-1.18-.48-.47-.19-.9-.21-1.29-.11-.33.08-.62.24-.86.48-.19.16-.36.38-.48.61-.03.04-.05.08-.07.12-.56.36-.94.97-.93,1.55.01.43.21.85.7,1.17.56.38,1.12.74,1.68,1.11.58.39,1.15.77,1.72,1.16.03.02.06.04.09.06.12.08.24.17.37.25.2.13.41.27.61.42,2.78,1.91,5.5,3.88,8.11,6.1,3.86,3.26,8.91,7.6,13.12,10.43,2.56,1.73,5.87,3.15,9,3.42,3.52.32,6.8-.81,8.56-4.57,2.9-6.21-2.01-10.29-6.85-12.11Z" style="fill: #80bf4c;"/>
      <path d="M719.46,534.1c-7.06.97-13.98,1.83-20.97,2.25-.29.03-.59.04-.89.06-1.86.1-3.73.17-5.61.2-.51.01-1.03.02-1.54.02h-.53c-.92,0-1.86-.01-2.79-.03h-.14c-1.32-.02-2.05.98-2.13,2-.44.6-.57,1.42-.2,1.99.17.3.49.54.97.64,1.04.22,2.07.45,3.09.68,4.03.9,7.98,1.89,11.92,3.25,4.79,1.66,11.05,3.87,16,5,6.38,1.45,15.42.42,15.96-7.41.53-7.93-7.66-9.4-13.12-8.66Z" style="fill: #80bf4c;"/>
      <path d="M684.44,570.41c-8.93-3.42-17.56-6.88-25.92-11.35-1.26-.67-2.51-1.36-3.76-2.08-1.15-.66-2.27-.14-2.83.72-1.02.48-1.66,1.75-.59,2.67.66.58,1.32,1.15,1.97,1.72,3.24,2.86,6.36,5.72,9.29,8.95,3.4,3.75,7.83,8.72,11.62,12.08,4.9,4.35,13.32,7.79,17.56,1.19,4.28-6.69-2.19-11.93-7.34-13.9Z" style="fill: #80bf4c;"/>
      <path d="M665.12,650.29c-2.73-3.63-6.26-3.79-9.46-2.47-.92.37-1.83.87-2.67,1.45-1.19.81-2.27,1.77-3.16,2.73-.1.11-.2.21-.29.33-.84.97-1.7,1.93-2.54,2.88h0c-4.41,4.96-8.82,9.72-13.58,14.23-.29.28-.59.56-.89.85-1.13,1.04-2.28,2.07-3.44,3.09-.43.39-.86.76-1.31,1.13-.07.07-.14.13-.22.19-.3.26-.61.53-.92.78-.31.26-.53.57-.64.88-.25.67-.09,1.4.29,1.96.01.02.03.04.04.06.1,1.12,1.07,2.16,2.31,1.48.41-.22.81-.45,1.22-.66.63-.35,1.27-.69,1.9-1.03.64-.35,1.28-.68,1.92-1.02.48-.24.95-.49,1.41-.72.58-.29,1.16-.59,1.75-.86,1.86-.91,3.76-1.78,5.72-2.56,2.15-.85,4.62-1.84,7.1-2.88,2.06-.86,4.14-1.77,6.02-2.68.17-.09.35-.17.52-.25.6-.29,1.18-.59,1.74-.88,1.3-.69,2.61-1.56,3.82-2.57,4.18-3.49,7.06-8.62,3.39-13.47Z" style="fill: #80bf4c;"/>
      <path d="M633.73,677.64c-.03-.15-.06-.31-.08-.47-.08-.43-.15-.85-.23-1.27-.33-1.88-.64-3.74-.9-5.61-.16-1.07-.3-2.11-.43-3.19h0c-.19-1.61-.35-3.21-.44-4.84-.29-5.06-.63-11.7-1.47-16.7-1.08-6.45-5.49-14.42-12.92-11.93-1.56.52-2.73,1.29-3.56,2.22-2.13,2.35-2.15,5.74-1.29,8.86h0c.44,1.59,1.11,3.08,1.84,4.35,4.87,8.36,9.46,16.55,13.19,25.39.04.09.07.17.1.25.49,1.14.94,2.28,1.39,3.43.2.51.52.86.9,1.08.53.29,1.18.32,1.76.13.26.06.54.08.8.04.83-.11,1.52-.7,1.34-1.75Z" style="fill: #80bf4c;"/>
      <path d="M626.11,677.61c.08-.43.03-.87-.14-1.24-.26-.6-.84-1.01-1.69-.8-2.13.51-4.25,1.01-6.37,1.44-2.36.5-4.71.94-7.12,1.27-.58.08-1.16.15-1.74.22-3.87.44-8.69.97-12.96,1.7-.01-.01-.02,0-.03,0h-.03c-1.26.21-2.45.45-3.58.7-6.38,1.44-14.09,6.28-11.19,13.56,2.94,7.38,10.96,5.17,15.57,2.14,5.96-3.92,11.84-7.69,17.97-11.1,1.98-1.11,3.98-2.16,6.04-3.17,1.31-.66,2.63-1.3,3.98-1.91.07-.03.15-.07.22-.1.92-.41,1.27-1.22,1.22-2-.01-.24-.07-.49-.15-.72Z" style="fill: #80bf4c;"/>
      <path d="M597.79,548.86c-1.32-2.92-2.61-5.77-3.78-8.7h0c-.74-1.86-1.43-3.75-2.04-5.68-1.53-4.83-3.51-11.19-5.56-15.82-2.65-5.98-8.89-12.62-15.47-8.36-6.68,4.3-2.96,11.76.9,15.69,7.46,7.6,14.56,15.08,20.79,23.67.21.28.43.57.63.86.77,1.08,2,1.07,2.88.52,1.13-.01,2.24-.9,1.66-2.18Z" style="fill: #80bf4c;"/>
      <path d="M636.33,488.03c-4.05-5.03-9.46-3-13.22.22-.86.74-1.64,1.53-2.29,2.33-1.17,1.42-2.35,2.83-3.53,4.24-3.71,4.42-7.46,8.71-11.47,12.8-2.29,2.35-4.66,4.63-7.16,6.84-.99.87-.84,2.1-.21,2.92.13,1.12,1.13,2.12,2.35,1.41,1.18-.69,2.35-1.38,3.53-2.05,3.31-1.9,6.63-3.69,10.17-5.24,1.7-.74,3.6-1.57,5.54-2.44,2.18-.98,4.42-2.01,6.48-3.07,1.11-.56,2.16-1.12,3.13-1.68,5.67-3.26,11.61-10.16,6.69-16.28Z" style="fill: #80bf4c;"/>
      <path d="M691.76,534.34c-.04-.48-.09-.96-.13-1.43-.36-3.91-.62-7.78-.55-11.76.08-5.06.24-11.71-.22-16.76-.6-6.52-4.39-14.79-12-12.86-7.69,1.94-6.55,10.19-4.15,15.15,4.48,9.25,8.68,18.28,11.82,28,.09.29.18.6.28.9.1.34.21.67.32,1.02.02.06.03.11.05.17.38,1.27,1.55,1.66,2.56,1.41.71.23,1.54.09,1.97-.44.02-.03.04-.06.06-.09.18-.25.27-.59.22-1.02v-.03c-.08-.76-.15-1.51-.23-2.27Z" style="fill: #80bf4c;"/>
      <path d="M693.44,539.1c-.09-.36-.33-.69-.76-.93-.3-.17-.61-.34-.91-.51-.1-.06-.21-.11-.3-.16-.01,0-.01-.01-.02-.01-.51-.28-1.02-.57-1.52-.85-.83-.47-1.66-.93-2.47-1.41-.31-.17-.62-.36-.92-.54-2.42-1.41-4.79-2.91-7.1-4.57-4.1-2.95-9.49-6.87-13.91-9.37-5.69-3.21-14.66-4.81-17.41,2.55-2.77,7.43,4.65,11.2,10.1,12.04,7.51,1.17,14.83,2.4,22.11,4.16,1.44.35,2.89.72,4.33,1.11,1.4.39,2.79.8,4.2,1.24h.01c.4.12.8.24,1.2.38,1.25.41,2.24-.34,2.61-1.3.2-.15.37-.34.5-.54h0c.26-.4.38-.84.28-1.27Z" style="fill: #80bf4c;"/>
      <path d="M615.94,449.08c.01-.65-.27-1.29-.76-1.63-.37-.23-.84-.29-1.39-.06-1.13.49-2.25.97-3.36,1.43-.63.26-1.26.53-1.89.78-3.02,1.24-6.06,2.38-9.24,3.31-4.86,1.44-11.25,3.28-15.93,5.24-6.04,2.53-12.78,8.64-8.67,15.31,4.18,6.75,11.7,3.19,15.71-.59,6-5.67,11.93-11.13,18.36-16.12h.01c.34-.26.66-.52,1.01-.77,1.82-1.39,3.68-2.74,5.59-4.04.24-.16.44-.36.58-.57.49-.71.4-1.62-.01-2.3Z" style="fill: #80bf4c;"/>
      <path d="M623.27,395.68c-4.51-.86-7.22,1.45-8.71,4.6h-.01c-1.07,2.31-1.48,5.07-1.45,7.39.14,8.77.14,17.31-.65,25.94v.02c-.14,1.57-.31,3.17-.53,4.75-.07.61-.15,1.22-.24,1.83-.08.56.04,1.03.28,1.4.05.08.11.17.18.24.33.38.78.62,1.26.71.26.24.58.42.9.5.19.06.4.08.59.06.1,0,.19-.02.28-.05.4-.11.74-.42.92-.96.28-.81.57-1.64.85-2.44.41-1.16.82-2.31,1.25-3.44.28-.75.57-1.49.86-2.24.83-2.12,1.73-4.22,2.74-6.3,1.31-2.69,2.89-5.89,4.3-9.03.99-2.17,1.9-4.31,2.59-6.26,2.22-6.16,2.27-15.26-5.44-16.73Z" style="fill: #80bf4c;"/>
      <path d="M615.96,444.15c-.07-.1-.15-.21-.22-.32-.18-.25-.37-.51-.55-.75-.4-.57-.8-1.14-1.2-1.71h-.01c-.04-.07-.08-.12-.12-.18-.23-.34-.47-.67-.7-1.01-.22-.33-.45-.66-.67-.99-.19-.27-.38-.54-.56-.81-1.58-2.34-3.07-4.71-4.45-7.22-1.2-2.17-2.57-4.66-3.98-7.15-.01,0-.01-.01-.01-.01h0c-1.48-2.59-3.04-5.15-4.52-7.27-3.76-5.36-11.16-10.66-16.81-5.21-5.71,5.52-.62,12.11,3.92,15.22,7.34,5.01,14.4,9.99,21.05,15.7,1.32,1.13,2.62,2.29,3.91,3.49.26.24.54.5.8.75.97.9,2.17.65,2.93-.05.08-.02.15-.04.22-.06.63-.2,1.15-.67,1.25-1.26,0-.04.02-.07.02-.11v-.02c-.01-.06-.01-.12,0-.18h0c-.01-.27-.1-.55-.3-.83Z" style="fill: #80bf4c;"/>
      <path d="M651.54,417.62c-.91-5.82-6.4-8.42-11.51-5.73-3.12,1.65-5.48,4.33-7.58,7.09-.24.32-.49.63-.73.96-2.35,3.08-4.63,6.14-7.35,8.93-1.7,1.75-3.53,3.4-5.29,5.14-.54.51-1.08,1.05-1.6,1.58-.81.84-1.6,1.71-2.33,2.61-.23.28-.46.58-.66.89-.34.52-.59,1.07-.63,1.67h0c-.02.15-.02.28-.01.43.01.1.02.2.04.32.05.26.13.49.24.69.01,0,.01.01.01.01.18.36.46.65.75.92.26.24.56.47.83.7.29.24.58.5.81.79-.03.03-.06.05-.09.07-.1.08-.16.17-.19.27h0c.02.07.01.13,0,.19v.02c.01.06.04.12.07.17.08.13.21.22.37.25.12.02.26,0,.4-.1.08.08.19.12.29.13.34.02.68-.31.56-.73,0-.01-.01-.01-.01-.02,1.46-1.07,2.91-2.14,4.38-3.19,1.98-1.43,4-2.82,6.1-4.09,4.05-2.45,8.43-4.01,12.69-6.04,4.96-2.35,10.73-6.76,10.54-12.78,0-.38-.04-.77-.1-1.17Z" style="fill: #80bf4c;"/>
      <path d="M486.57,691.59c1.67-.92,3.31-1.89,4.93-2.89.02-.04.06-.07.08-.11.22-.41.41-.41.55-.28,0,0,.01,0,.02-.01-.98-2.76-4.05-8.06-5.07-10.67-1.21-3.08-3.84-9.24-4.52-12.46-1.43-6.78-4.86-14.43-13.12-12.93-6.63,1.2-6.48,9.89-2.85,15.3,5.54,8.26,13.88,11.18,19.9,23.94.02.05.05.08.08.12Z" style="fill: #80bf4c;"/>
      <path d="M537.9,664.23c-.09-1.91-.25-3.81-.45-5.7-.02-.04-.04-.08-.06-.12-.27-.38-.19-.55-.01-.62,0,0,0-.01,0-.02-2.91-.33-9.01.12-11.82-.1-3.29-.26-9.99-.58-13.18-1.38-6.72-1.68-15.11-1.94-17.37,6.14-1.82,6.49,6.06,10.15,12.51,9.25,9.85-1.37,16.12-7.59,30.23-7.43.05,0,.1-.01.14-.02Z" style="fill: #80bf4c;"/>
      <path d="M523.01,639.64c1.36-1.33,2.68-2.71,3.97-4.12.01-.04.04-.08.05-.12.1-.46.28-.51.45-.42,0,0,0-.01.01-.02-1.69-2.4-6.07-6.66-7.77-8.9-2-2.63-6.2-7.86-7.72-10.77-3.2-6.14-8.58-12.58-16.13-8.91-6.06,2.95-3.57,11.27,1.39,15.5,7.56,6.45,16.38,7.02,25.63,17.67.03.04.07.06.11.09Z" style="fill: #80bf4c;"/>
      <path d="M547.48,677.11c-7.4-17.02-15.57-35.05-26.61-50.05-1.85-2.51-5.68-.39-4.23,2.47,4.25,8.43,9.33,16.47,13.7,24.85,4.37,8.39,8.4,16.95,12.2,25.62,1.48,3.37,6.4.46,4.95-2.89Z" style="fill: #80bf4c;"/>
    </g>
    <g>
      <path d="M919.64,585.81c-67.73,78.83-125.31,166.53-171.89,259.4-48.37,96.44-83.2,198.32-107.6,303.31-14.78,63.58-26.48,127.83-38.17,192.04-.73,4.03,5.62,4.49,6.34.49,20.49-112.24,41.32-224.86,78.33-333.07,33.46-97.85,78.83-191.59,134.69-278.62,31.39-48.9,66.17-95.45,103.69-139.81,2.74-3.24-2.67-6.9-5.39-3.74Z" style="fill: #2c8237;"/>
      <path id="Pansy02" d="M988,590.99c-11.81-.42-20.54-.52-27.41-.69h-.01c-5.63-.13-10.01-.33-13.8-.78-.31-.03-.63-.07-.93-.11-.04-.01.21-.27.92-.77,2.06-1.43,7.99-4.79,21.38-8.95,1.91-.6,3.98-1.21,6.22-1.84,5.91-1.66,10.61-6.4,14.59-11.16,6.49-7.78,8.5-20.96-.45-27.83-8.91-6.84-20.83-2.99-28.36,3.94-3.16,2.9-6.06,7.37-8.93,11.52-1.8,2.57-3.59,5.03-5.43,6.91-2.67,2.72-7.89,8.93-12.12,12.69-1.33,1.19-2.57,2.13-3.6,2.65-.02-.38.01-.84.08-1.41-.01-.01,0-.01,0-.01.07-.59.19-1.27.36-2.01,1.2-5.61,4.39-14.96,4.73-18.03.27-2.45.47-4.85.54-7.21.05-1.73.04-3.43-.07-5.14-.03-.58-.07-1.17-.13-1.76-.39-3.89-1.27-7.73-2.92-11.6-2.92-6.86-8.36-13.1-14.99-16.57-5.6-2.94-12.03-3.9-18.49-1.61-1.35.48-2.59,1.05-3.75,1.69h-.01s-.01.01-.01.01c-5.91,3.31-9.29,8.67-9.97,14.56-.55,4.74.64,9.85,3.66,14.51.36.55.73,1.09,1.14,1.63,5.34,7.06,14.06,11.69,18.27,19.62.21.41.42.81.61,1.24.64,1.42,1.11,2.9,1.49,4.39.63,2.45,1.02,4.97,1.47,7.46.13.65.25,1.3.4,1.95-.43-.23-.85-.47-1.27-.72-1.96-1.16-3.82-2.53-5.6-4.02-1.4-1.19-2.75-2.45-4.08-3.77-4.56-4.48-8.77-9.48-13.29-13.48-2.19-1.94-4.56-3.82-7.06-5.54-2.56-1.76-5.26-3.34-8.08-4.61-1.8-.81-3.63-1.5-5.51-2.04-3.49-1-7.09-1.46-10.76-1.17-.96.06-1.91.18-2.87.37-1.3.24-2.58.58-3.86,1.02h-.01c-8.43,2.9-15.92,9.93-17.21,18.92-.91,6.39,1.46,11.97,5.5,16.3,1.43,1.54,3.08,2.93,4.86,4.13,0,.01.01.01.02.01,1.6,1.08,3.29,2.01,5.05,2.79,1.14.51,2.31.95,3.48,1.31,1.08.34,2.16.62,3.24.83,7.57,1.52,15.23.84,22.86.34,1.74-.11,3.55-.25,5.4-.37,2.53-.16,5.14-.28,7.73-.28,3.95.01,7.86.34,11.44,1.34.04.01.09.02.13.03,4.91,1.38,6.73,4.85,3.13,8.77-3.04,3.31-7.39,4.89-11.7,5.67-1.16.21-2.33.36-3.49.46-4.53.38-9.08.01-13.64-.23h-.01c-2.35-.11-4.69-.2-7.02-.13-.37,0-.73.01-1.1.03-12.81.63-22.97,4.76-26.26,18.33-1.2,4.98-.25,10.8,2.12,16.15.85,1.95,1.91,3.84,3.11,5.59,1.02,1.49,2.14,2.89,3.37,4.15,3.12,3.24,6.83,5.62,10.74,6.45.8.17,1.61.33,2.39.46,2.79.46,5.46.66,8.03.61h.01c9.65-.17,18.09-3.88,27.26-10.87,6-4.56,9.15-11.09,11.03-18.23,1.71-6.51,2.79-14.33,7.43-19.29.53,4.84,1.5,9.64,1.33,14.53-.2,5.89-2.75,11.37-5.17,16.64-4.33,9.41-9.18,20.29-3.49,30.28,5.55,9.73,18.52,13.87,28.71,9.4,11.65-5.1,16.94-18.16,14.76-30.2-1.37-7.6-4.34-15.06-6.94-22.39h0c-.37-1.05-.73-2.06-1.08-3.1-1.48-4.42-2.98-8.85-4.46-13.26-.48-1.42-.96-2.83-1.43-4.26,2.62,2,5.27,3.97,8.01,5.84,7.64,5.26,16.38,9.3,23.06,15.78,5.15,4.99,10.37,9.1,17.94,8.57,6.68-.48,12.63-4.41,15.45-10.5,6.57-14.18-2.88-33.38-16.7-33.86Z" style="fill: #8b3fc8;"/>
      <path d="M939.11,626.53c3.82,2.19,8.71,1.09,9.35-3.79.75-5.73-5.55-11.45-8.61-15.6-2.97-4.03-5.62-8.08-7.78-12.46,4.28,5.19,8.82,10.19,14.44,13.98,4.64,3.13,12.35,7.13,17.63,3.01,6.1-4.76,0-9.57-4.67-11.47-6.7-2.72-14.24-3.98-20.13-8.13,5.45.36,10.93.11,16.35-.68,4.93-.72,13.49-3.09,12.95-9.66-.63-7.59-9.72-4.19-13.92-2.96-5.97,1.75-11.98,3.13-18.11,3.71,2.27-1.42,4.82-2.63,6.27-3.75,3.5-2.68,6.79-5.73,9.39-9.31,2.64-3.62,6.33-13.77-.79-15.1-7.38-1.38-11.94,9.13-15.16,13.8-2.16,3.13-5.27,5.8-7.71,8.78-.27-2.65-.4-5.28-.22-7.83.36-5.35,5.01-13.46,2.31-18.57-2.7-5.11-9.69-3-12.25.99-3.43,5.33-1.71,12.71-.48,18.44,1.13,5.27,2.84,10.39,4.96,15.34.12.73.23,1.45.34,2.17,1.1,7.52,2.17,15.11,4.6,22.34,2.09,6.23,5.28,13.29,11.25,16.71Z" style="fill: #ffe0cf;"/>
      <path d="M946.77,588.63c-.08-2.59-.81-5.1-2.25-7.31-.53-.84-1.17-1.64-1.92-2.37-1.1-1.1-2.42-2.06-3.97-2.86-1.3-.67-2.99-1.52-4.96-2.18-.6-.2-1.21-.38-1.86-.53h-.01c-.42-.1-.85-.18-1.29-.25-.71-.11-1.44-.18-2.19-.19-2.75-.07-5.78.61-8.9,2.66-1.79,1.19-3.61,2.83-5.43,5.06-5.45,6.69-5.49,12.22-3.82,16.34.97,2.39,2.51,4.29,3.92,5.66.96.92,1.84,1.61,2.45,2.02,3.36,2.33,7.1,3.45,10.79,3.5,3.85.05,7.63-1.1,10.87-3.33.64-.42,1.26-.89,1.85-1.42,1.02-.88,1.96-1.9,2.81-3.03,1.18-1.56,2.11-3.25,2.76-4.99.4-1.05.69-2.11.88-3.19.16-.9.25-1.81.26-2.7.01-.29.01-.59-.01-.88Z" style="fill: #ffe0cf;"/>
      <path d="M853.69,552.01c-4.84,6.12-7.38,13.82-6.14,21.64.53,3.36,5.69,2.41,5.76-.78.15-6.45,1.32-11.9,4.81-17.44,1.67-2.65-2.42-5.97-4.43-3.42Z" style="fill: #331d20;"/>
      <path d="M878.86,636.03c-6.96-1.21-12.56-4.02-15.5-10.82-1.29-3-6.56-.83-5.33,2.25,3.16,7.86,11.08,14.9,20.06,14.26,3.03-.22,4.19-5.09.77-5.69Z" style="fill: #331d20;"/>
      <path d="M997.97,605.9c-.4-3.51-5.87-3.66-5.61,0,.52,7.3-2.86,12.14-7.6,17.22-2.23,2.39.58,6.11,3.49,4.53,7.44-4.03,10.63-13.77,9.71-21.75Z" style="fill: #331d20;"/>
    </g>
    <g>
      <path d="M692.08,1440.48c3.29-.45,5.72-3.24,5.62-6.55-3.36-109.97-1.6-228.9,5.29-365.83,4.43-88.08,10.49-174.42,15.28-239.79l1.26-17.27c5.25-72.25,10.68-146.96,21.7-219.71,12.58-83.06,34.67-166.66,65.65-248.45,1.17-3.08-.21-6.19-3.28-7.38-2.95-1.15-6.88-.14-8.34,3.53-27.8,69.75-48.75,144.67-62.28,222.69-13.76,79.38-19.89,161.42-25.29,233.8-5.34,71.57-11.43,156.18-16.06,241.06-4.81,88.15-7.54,166.72-8.34,240.2-.6,55.05-.13,107.17,1.42,157.56.12,3.79,3.49,6.69,7.25,6.17.04,0,.09-.01.13-.02Z" style="fill: #2c8237;"/>
      <path id="Marigold" d="M907.67,397.86c-10.62-7.52-19.35-11.07-18.65-11.22,13.71-2.94,22.2-9.53,24.56-17.73,4.22-14.65-4.52-24.58-16.19-30-12.52-5.82-27.57-6.64-40.43-1.39-.67.28-1.33.58-1.98.88.37-.47.75-.93,1.11-1.4,4.7-6.12,8.51-13.25,7.72-21.22-.63-6.37-4.23-12.07-10.24-14.6-13.21-5.56-28.23,4.29-36.99,13.5-2.66,2.8-5.05,5.82-7.21,8.99.59-2.79,1.09-5.59,1.4-8.43,1.41-12.75-1.78-31.61-17.99-32.58-15.15-.9-27.94,22.55-28.39,26.17-4.27-11.87-6.41-15.14-15.09-23.87-8.28-8.31-26.33-8.34-35.44,1.04-8.32,8.56-6.84,22.12-3.48,32.86-9.36-8.47-20.55-14.45-33.52-16.04-15.8-1.94-30.83,6.91-32.91,23.46-.96,7.64,1.33,14.03,5.44,19.27-3.97.29-7.67,1.41-10.79,3.77-8.11,6.13-7.36,16.7-3.03,24.95-2.31.96-4.72,2.15-7.31,3.66-10.44,6.06-16.58,18.47-12.34,30.31,4.89,13.64,19.44,12.59,31.23,11.04,15.13-1.98,22.35-1.13,36.63,3.95-13.63,5.71-23.44,11.66-32.03,22.25-7.62,9.39-6.68,23.37,2.76,30.94.32.26.66.51,1,.75,5.98,4.28,13.13,3.3,19.41.25,3.52-1.71,6.72-3.84,9.75-6.18,1.11-1.15,2.22-2.28,3.33-3.36,11.74-11.55,20.81-17.32,35.3-25.05-3.8,5.75-7.2,11.76-10.18,17.97-2.74,5.72-4.52,11.85-5.23,18.15v.11c-.82,7.16-.69,14.94,2.86,21.42,4.02,7.34,12.47,12,20.76,12.19,9.31.21,17.98-4.81,24.7-10.86,3.94-3.55,7.14-7.85,9.41-12.64l2.47-5.19c2.84-5.98,5.59-12.99,10.37-17.82-3.99,14.62-3.63,31.75.34,47.64,5.39,11.02,14.69,20.04,28.07,19.18,14.73-.95,19.55-16.42,18.72-29.13-1.25-9.73-2.51-19.45-3.79-29.17,3.48,10.51,6.57,21.9,10.7,32.69,1.94,3.83,4.33,7.43,7.14,10.62,4.6,5.22,10.79,9.66,17.97,9.94,6.19.24,12.61-2.24,15.51-7.98,2.52-5.01,2.47-11.03,1.99-16.48-.12-1.32-.57-4.41-1.5-8.46,3.71,3.54,7.9,6.57,12.96,7.54,7.05,1.35,13.48-1.95,16.48-8.43,3.31-7.16,2.25-15.39.03-22.71-.79-2.62-1.79-5.23-2.94-7.8,8.51,1,16.48-3.34,21.45-10.7,12.36-18.3,2.79-43.26-13.91-55.09Z" style="fill: #ff7c2a;"/>
      <path d="M903.06,457.96c-2.77-2.89-5.69-5.65-8.76-8.24-.73-.64-1.46-1.25-2.2-1.84-.87-.72-1.75-1.41-2.64-2.09-3.42-2.61-7.01-5.01-10.73-7.14-3.21-1.86-6.53-3.53-9.96-4.96.25-.56.49-1.14.7-1.74,1.81-5.11,1.66-10.75-.1-15.83,7.53-2.41,13.45-9.71,15.14-17.53,0-.04.01-.08.02-.11.42-2.01.56-4.04.38-6.05-.14-1.52-.45-2.97-.91-4.32-.36-1.05-.8-2.03-1.33-2.96-3.4-5.99-10.18-9.37-17.63-8.47-.07,0-.14.03-.21.04-.91-7.13-6.2-13.23-15.17-14.53-.87-.12-1.77-.21-2.65-.27,4.09-19.7-19.52-36.05-36.02-23.31-2.23-3.31-5.43-6.13-9.89-8.14-5.16-2.33-10.62-2.11-15.62-.27-2.55-6.96-9.9-13.45-17.06-15.79-.78-.26-1.56-.47-2.34-.62-.3-.06-.61-.11-.9-.15-1.3-.18-2.59-.22-3.88-.13-1.99.13-3.95.59-5.78,1.32-5.23,2.1-9.47,6.49-10.84,12.22-.19.84-.06,1.56.25,2.15-.77-.12-1.56-.22-2.38-.27-7.48-.44-12.85,2.6-16.17,7.38-7.13-9.01-26.36-15.2-32.42-2.04-1.87,4.06-2.32,8.27-1.73,12.39-3.74-1.5-7.78-2.45-10.78-3.1-8.62-1.88-17.2-1.76-25.81.05-3.81.8-2.14,6.4,1.6,5.77,6.82-1.13,13.96-1.07,20.73.28,5.54,1.11,13.46,3.01,17.75,7.1,1.79,3.25,4.08,6.27,6.63,8.89-4.33,1.72-8.25,4.45-11.18,8.03-7.19-3.43-16.02-4.61-23.82-5.45-8.71-.92-18.09-1.1-26.65.9-3.15.73-2.49,5.77.77,5.67,8.08-.26,15.94-.96,24.03-.11,7.68.8,14.73,3.25,22.14,4.87-3.45,8.39-1.71,18.55,5.25,24.62,7.33,6.39,18.58,8.47,28.03,10.77-.06.35-.13.7-.17,1.07-.82,6.44,1.85,12.24,7.14,15.96,7.26,5.11,15.62,9.1,23.62,12.89.12.06.24.12.38.17,2.15,1.03,4.38,2.07,6.67,2.93,1.57.6,3.19,1.1,4.82,1.43,2.78.56,5.63.63,8.5-.17.19-.05.4-.11.59-.17,3.24-1.03,5.68-3.18,7.36-5.86,1.24,3.84,4.27,7,9.51,8.26,6.79,1.64,14.83,1.21,21.67.16,6.48-1,13.42-3.13,17.62-8.5.59-.75,1.07-1.5,1.49-2.24.09.04.19.08.28.12.2.57.6,1.08,1.25,1.42,17.62,9.23,30.96,23.01,35.28,42.94.5,2.27,2.52,2.87,4.24,2.31h.01c1.55-.5,2.86-1.95,2.5-3.96,0-.06-.02-.12-.03-.19,0-.01,0-.02-.01-.03h0c-.08-.4-.17-.78-.26-1.17h0c-3.42-14.27-12.04-28.09-23.99-37.11,6.1-.09,11.83-1.87,15.88-6.2,4.36,2.3,8.57,4.71,12.62,7.36,2.93,1.88,5.76,3.88,8.5,6.03.88.68,1.76,1.38,2.62,2.1.74.61,1.48,1.24,2.21,1.89,2.36,2.05,4.63,4.24,6.84,6.56.68.72,1.46,1.05,2.22,1.08.48.02.96-.08,1.39-.26,2.05-.87,3.4-3.7,1.38-5.8ZM813.69,344.13c.06-.04.13-.07.19-.12,5.95-4.39,13.55-4.92,19.65-.45,6.11,4.47,7.69,11.4,6.65,18.5-9.53.98-19.17,5.06-27.48,9.97,2.53-9.15,3.85-19.47.99-27.9ZM782.46,339.6c4.45-3.27,9.76-4.69,14.58-3.09h.01c1.75.58,3.42,1.55,4.97,2.98,1.78,1.64,3.13,3.42,4.13,5.33,5.31,10.06.89,23.32-2.94,33.54-4.51,3.35-8.81,7.03-12.9,10.94-6.96,6.66-13.31,13.99-19.05,21.6-.25-.25-.52-.5-.81-.76.19-1.15.37-2.3.52-3.44v-.02c2.19-15.85,1.77-31.99-1.76-47.65-.02-.11-.05-.21-.07-.33.13-.34.2-.71.18-1.12-.17-3.88,4.02-8.25,6.28-11.1,2.02-2.54,4.25-4.96,6.87-6.89ZM750.55,328.67c.79-2.71,2.62-4.98,4.94-6.5,2.46-1.63,5.46-2.43,8.38-2.06h.01c.35.05.68.11,1.02.18.5.11,1,.25,1.48.44.59.22,1.18.48,1.78.77,4.88,2.35,9.83,6.74,11.33,11.82-.76.53-1.51,1.08-2.23,1.67-3.74,3.07-6.69,6.96-9.41,10.92-.22.33-.45.65-.66.97-.44.63-.85,1.25-1.24,1.86-2.43-5.78-5.88-11.18-10.59-14.87-1.83-1.43-3.85-2.62-6.07-3.46.55-.35,1.02-.89,1.25-1.72ZM742.79,335.96c5.44.6,9.45,3.53,12.44,7.55,4.6,6.2,6.77,14.99,8.03,21.88,2.42,13.22,2.59,26.78.79,40.08-2.16-1.3-4.64-2.56-7.5-3.65-.18-.11-.38-.22-.6-.3-.76-.3-1.53-.58-2.32-.84-1.8-.6-3.62-1.09-5.46-1.43-.27-.11-.61-.2-.97-.27-1.38-5.28-4.2-9.83-6.77-14.65-3.2-6.04-5.91-12.3-8-18.81-3.28-10.27-7.41-31.52,10.34-29.55ZM698.95,340.2c1.18-6.53,5.76-7.53,11.6-6.15,4.63,1.1,8.56,3.01,11.63,6.71.47.56,1,.86,1.51.99-1.35,4.09-1.67,8.77-.94,13.4.53,3.49,1.39,6.93,2.44,10.33-4.84-1.65-10.01-2.31-15.09-1.75-.05-.04-.08-.08-.13-.11-7.02-5.19-12.65-14.41-11.02-23.42ZM723.68,408.31c-12.11-3.29-33.58-6.1-30.42-22.88,1.34-7.15,7.5-12.27,14.33-14.05,3.59-.93,7.38-1,11.02-.39,2.49.41,6.63,1.18,9.5,2.71.59,1.49,1.2,2.97,1.83,4.43,3.03,7.01,7.88,13.51,10.63,20.67-2.64.2-5.25.82-7.8,1.97-3.71,1.67-6.9,4.27-9.08,7.54ZM767.54,442.71c-1.28.08-2.59-.07-3.9-.38-1.07-.24-2.13-.6-3.19-1.01-2.9-1.13-5.72-2.73-8.23-4-.19-.1-.39-.19-.57-.28-4.9-2.41-9.7-4.99-14.43-7.72-4.49-2.6-9.49-5.04-9.56-10.97-.14-12.29,13.28-14.53,22.56-11.52,1.1.36,2.14.72,3.15,1.11,4.63,1.75,8.35,3.78,11.33,6.03,1.15.86,2.18,1.76,3.11,2.68,3.82,3.75,5.99,7.97,7.19,12.38,1.61,5.94-.38,13.27-7.46,13.7ZM782.22,428.72c-.47-2.27-1.29-4.48-2.4-6.6-1.19-2.28-2.69-4.45-4.42-6.49,3.24-3.49,6.47-7.05,9.75-10.6,15.28-16.48,31.7-32.32,55.04-35.8,6.18-.91,15.09-.81,17.61,6.23,2.76,7.71-4.57,14.39-10.13,18.43-10.54,7.69-22.29,13.48-32.19,22.08-3.49-.56-8.51-.48-15.81,1.12-5.07,1.42-9.88,3.89-13.83,7.37-1.41,1.24-2.63,2.69-3.63,4.27ZM819.78,441.51c-7.17,4.29-17.33,4.16-25.39,3.46-12.48-1.06-8.73-12.37-1.07-17.42,4.9-3.23,13.13-6.1,21.33-4.49,8.28,1.62,14.78,12.68,5.13,18.44ZM863.61,425.63c-.53,6.44-4.8,11.16-11.14,12.43-7.04,1.42-13.71-1.41-20.36-3.3.33-4.07-1.28-7.23-2.04-8.58-1.67-2.92-4.24-5.45-7.3-7.31,7.31-5.7,16.03-10.06,23.9-15.28.89.55,1.94.92,2.89,1.4,2.59,1.3,5.02,2.89,7.16,4.86,4.43,4.07,7.39,9.62,6.89,15.78ZM859.73,403.1c-1.46-1.18-3.01-2.25-4.62-3.19-.65-.38-1.31-.71-1.97-1.05,2.61-2.14,5.04-4.47,7.14-7.12,2.25-2.81,3.66-5.9,4.3-8.98.14.01.29.03.46.02,4.2-.27,7.99,1.07,10.42,3.72.21.22.42.47.6.71,1.5,1.95,2.35,4.5,2.2,7.54-.36,7.87-6.14,11.39-11.73,15.67-1.84-2.79-4.2-5.24-6.81-7.32Z" style="fill: #331d20; opacity: .45;"/>
    </g>
    <path d="M1119.11,156.97c-25,27.64-50.76,54.58-77.69,80.34-2.52,2.41,1.31,6.22,3.82,3.82,26.93-25.77,52.86-52.59,77.24-80.79,1.99-2.3-1.3-5.66-3.37-3.37Z" style="fill: #195b1f;"/>
  </g>
  <g>
    <path id="RIBBON" d="M815.59,1056.84c-4.83-13.47-13.13-23.96-13.53-38.58-.35-12.48-4.9-19.41-13.53-28.15-5.79-5.87-9.81-12.25-12.08-20.27-1.57-5.53-1.4-11.68-3.67-16.98-2.71-6.34-7.84-10.21-13.91-11.78-.13-5.17-4.34-9.32-9.54-9.32-4.26,0-7.87,2.79-9.1,6.65-12.92,3.82-30.71,1.86-43.72-.61,18.71-1.07,37.36-3.01,53.76-12.89,6.25-3.77,2.54-12.57-3.23-12.78.47-.22.94-.44,1.39-.68,4.93-2.54,3.99-8.17.67-10.96,8.1-.26,9.38-13.12.86-13.55-10.77-.54-21.54-1.08-32.31-1.62-10.62-.53-21.82.13-31.35-5.19-7.62-4.26-12.59,8.45-5.05,12.66,9.36,5.23,19.43,5.3,29.92,5.83l29.49,1.48c-8.05,3.67-18.11,2.17-26.73,2.15-8.63-.02-17.27-.05-25.9-.07-8.77-.02-8.78,13.61,0,13.63,16.32.05,36.96,3.43,53.37-1.54-14.51,8-30.83,9.15-47.18,10.04-7.95.43-8.7,11.8-2.12,13.44-5.98,1.77-7.6,11.57-.23,13.01,13.49,2.64,30.44,4.88,44.94,2.45-5.92,8.64-.65,21.1.95,31.53,1.68,10.95-.35,20.81-.96,31.63-.6,10.66,5.42,19.39,4.52,30.04-.74,8.74,12.9,8.69,13.63,0,.54-6.42-.36-11.34-2.14-17.38-2.64-8.97-1.87-14.29-.98-23.31.72-7.34.58-14.58-.43-21.9-.61-4.44-6.78-21.39-1.4-24.28,2.41-1.3,3.4-3.34,3.39-5.4,9.54,2.22,10.09,21.87,13.44,29.06,3.64,7.82,9.16,13.21,14.97,19.46,9.13,9.82,4.1,19.79,7.56,31.09,2.87,9.36,9.73,17.41,13.08,26.74,2.94,8.2,16.11,4.66,13.14-3.62Z" style="fill: #ffffff;"/>
    <path d="M753.31,950.53c-2.27-2.08-5.03-2.95-7.81-2.81.11-.5-.06-1.02-.65-1.33-2.26-1.16-3.73-3.13-4.23-5.62-.34-1.72-2.97-.99-2.63.73.56,2.81,2.3,5.2,4.69,6.72-.99.3-1.96.69-2.89,1.23-1.52.88-.15,3.24,1.38,2.35,3.33-1.93,7.28-2.04,10.22.65,1.29,1.18,3.22-.74,1.93-1.93Z" style="fill: #d1b2a1;"/>
    <path d="M756.67,942.34c-.04,2.16-1.36,4.15-3.41,4.91-1.63.61-.92,3.24.72,2.63,3.21-1.19,5.35-4.09,5.41-7.54.03-1.75-2.69-1.75-2.73,0Z" style="fill: #d1b2a1;"/>
    <path d="M752.56,933.46c-2.02.57-3.22,2.58-4.18,4.32-.36.65-.6,1.33-.89,2.01-.37-.55-.77-1.06-1.41-1.44-1.19-.71-2.58-.84-3.9-.46-1.68.48-.97,3.12.72,2.63,1.95-.56,2.57,1.22,3.54,2.49-.12.5-.29.99-.37,1.51-.28,1.72,2.35,2.45,2.63.72.28-1.7.71-3.36,1.44-4.94.58-1.27,1.67-3.82,3.14-4.23,1.69-.47.97-3.1-.72-2.63Z" style="fill: #d1b2a1;"/>
  </g>
          
</svg>