<?xml version="1.0" encoding="UTF-8"?>
<svg id="Layer_1" xmlns="http://www.w3.org/2000/svg" width="1500" height="1500" version="1.1" viewBox="0 0 1500 1500">
  <!-- Generator: Adobe Illustrator 30.2.1, SVG Export Plug-In . SVG Version: 2.1.1 Build 1)  -->
  <g>
    <g>
      <path id="Snowdrop01" d="M800.4,116.51c-7.49-6.35-17.03-3.96-23.73,3.5-3.39-11.1-22.35-10.14-26.31.82-5.25-8.25-20.09-9.41-24.77,0-4.13,7.88,1.03,19.81,5.48,27.14-.11.67.42,4.17,1.05,7.88h0c.3,1.77.59,3.49.9,5.17h0c1.89,12.25.51,21.85,17.19,18.83,13.05-2.37,33.23,12.53,39.98-4.58h0c1.86-5.44,2.37-10.34,3.08-15.6h0c-1.09-12.65,10.87-22.57,11.39-34.82h0c-.11-3.08-1.31-5.96-4.26-8.35v.02h0Z" style="fill: #faa93e;"/>
      <path id="Gerbera" d="M849.63,165.57c-12.41-6.87-26.19-13.31-40.69-11.35,11.36-4.43,23.44-6.86,35.74-7.09,6.97-.12,16.73.57,19.94-6.19,2.59-5.44-2.64-11.53-7.41-14.77-23.11-13.46-56.56-4.82-74.58,12.66,5.42-12.19,20.22-24.5,14.98-38.71-6.02-11.83-22.48-5.57-30.66.77-13.43,10.55-18.28,25.8-19.21,41.39-8.31-13.93-22.14-24.97-41.71-27.77-12.71-1.82-30.23,2.24-29.7,15.59.22,5.52,4.17,9.38,10.3,11,10.89,2.61,21.85,4.75,31.68,10.28-17.1-4.34-71.14,16.37-58.43,38.31,8.53,9.25,20.01-1.17,27.85-6.21,22.09-12.98,52.25-8.7,69.49,8.91-.14,1.76,2.74,2.99,4.25,1.23,7.47-10.56,19.29-16.04,31.72-19.16,10.36-3.91,20.73-.63,29.2,5.79,8.01,4.76,15.91,10.32,24.5,14.21,5.78,2.62,12.67,3.49,18.25-.16,14.96-9.79-6.96-23.97-15.51-28.7v-.03h0ZM763.96,182.54c-.97.65-1.13,1.53-.82,2.29-1,1.12-1.99,2.25-2.95,3.4-.58-.55-1.16-1.1-1.76-1.62-.59-2.57-2.45-4.86-3.67-7.26.13-.03.26-.06.38-.1,2.09.72,4.72-1.03,3.49-3.14,2.82.66,5.7,1.08,8.67,1.31.08.89.03,1.83.25,2.7-1.07.96-2.43,1.56-3.59,2.42h0Z" style="fill: #e64949;"/>
      <path d="M800.64,164.27c-3.1-1.6-6.33-1.26-9.37-.1,2.43-14.65-17.3-10.6-22.52-1.86-5.55-13.02-24.43-12.5-25.69,2.44-16.72-12.9-26.41,4.9-17.11,10.82,8.88,5.32,17.51,6.86,21.67,15.61,9.15,19.25,6.54,50.24,7.15,69.45-3.59,373.95-33.61,747.47-47.37,1121.21-.58,9.12,14.46,10.53,14.8.71,17.02-308.67,38.38-832.95,48.39-1122.85,1.54-32.16-5.71-60.62,14.32-73.85,4.83-3.19,17.67-5.06,20.31-10.27,2.21-4.36-.55-9.26-4.58-11.31h0Z" style="fill: #2c8237;"/>
    </g>
    <g>
      <path d="M492.12,487.28h0c-.29-1.26-1.3-2.3-2.72-2.39,0-.02-.01,0-.01,0h-.01c-85.69-29.82-163.83,45.14-196.91,118.15-1.44,2.9,2.44,5.81,4.34,3.35,38.21-59.8,85.38-87.12,151.09-107.11,10.57-2.96,21.31-5.33,32.11-7.3,3.33-1.52,12.54.28,12.09-4.7h.02Z" style="fill: #2c8237;"/>
      <path d="M843.25,1436.93c-52.51-335.01-100.15-717.65-362.45-959.5-58.52-49.32-141.85-102.43-221.2-73.62-5.39,1.3-38.35,17.3-23.54,17.68,223.95-103.71,430.41,284.83,483.25,458.57,62,180.56,91.65,369.98,118.4,558.41.52,3.66,6.07,2.1,5.56-1.53h-.02,0Z" style="fill: #2c8237;"/>
      <path id="Snowdrop03" d="M273.83,476.06c34.93-62.9-41.45-77.58-68.15-44.55-14.93,23.55,3.61,36.77,5.15,58.37-.18,6.67-1.65,13.37-.14,20,.85,7.99,9.76,12.52,15.19,5.62,2.7,5.35,10.57,8.28,14.76,2.8,1.81,2.3,11.42,6.81,14.82.52,22.31,6.58,9.38-31.36,18.37-42.76Z" style="fill: #faa93e;"/>
      <path d="M272.52,404.38c.51-2.22.04-2.31,0-4.6-15.39,2.22-29.15,7.27-41.89,15.42-10.97,8.24-5.97,19.73,6.18,12.89,1.45,5.47,8.3,4.71,11.75,1.13,2.95,2.39,7.7,1.77,9.67-2.47,1.86-4-1.2-8.72.8-12.4,2.21-4.07,9.44-7.32,13.37-9.44.05-.18.09-.35.13-.53h-.01,0Z" style="fill: #2c8237;"/>
      <path d="M228.98,491.43c.09-3.17-4.73-3.13-4.9,0-.49,3.33-.9,30.37,5.8,19.65-.38-6.58-1.09-13.04-.9-19.65h0Z" style="fill: #e8702a;"/>
      <path d="M243.18,491.43c0-3.13-4.66-3.09-4.83,0-.37,6.8-.68,13.89.19,20.66.4,3.09,4.92,3.31,4.99,0,.14-6.87-.36-13.78-.34-20.66h-.01Z" style="fill: #e8702a;"/>
      <path d="M257.61,492.79c-.29-3.01-4.65-3.12-4.77,0-.24,6.28.04,12.69.31,18.97.15,3.35,5.28,3.39,5.24,0-.09-6.29-.18-12.71-.78-18.97Z" style="fill: #e8702a;"/>
      <path d="M443.88,448.74c-27.1-38.33-138.03-105.67-184.8-107.06-2.41.16-2.21,2.64-.11,3.94,11.86,7.35,13.53,8.62,21.72,12.96,22.13,11.76,37.78,27.52,50.61,39.1h0c3.19,2.87,6.21,5.48,9.1,7.69h.02c15.87,10.12,29.86,23.34,46.4,32.26,7.62,3.31,15.86,3.57,23.91,5.05,9.17,1.71,23.5,6.61,31.19,11.85,1.31.89,2.8-3,1.94-5.8h.02,0Z" style="fill: #2c8237;"/>
    </g>
    <g>
      <path d="M1092.58,397.61c-53.17,20.17-106.34,40.37-158.77,62.44,22.92-31.06,52.46-66.38,72.87-93.52,1.96-2.48-1.46-6.03-3.53-3.53-231,260.08-271.42,481.16-343.61,808.95-18.72,87.55-36.07,175.4-53.31,263.26-.71,3.64,4.87,5.2,5.59,1.54,30.51-155.46,61.33-310.95,99.54-464.74,40.98-179.33,98.61-357.82,215.71-502.97,55.59-22.16,110.83-45.26,167.05-65.86,3.45-1.29,1.96-6.88-1.54-5.58h0Z" style="fill: #80bf4c;"/>
      <path d="M1132.86,386.35c-6.21-15.31-30.69,9.65-41,12.08.98,1.6.51,3.92-.06,5.65,11.2-4.4,44.44.96,41.07-17.73h-.01,0Z" style="fill: #80bf4c;"/>
      <path d="M1120.22,415.35c-9.77-4.9-19.22-9.88-28.05-16.21-1.04-.88-2.38-.55-3.04.33-4.86,1.31,8.3,11.25,9.28,14.34,5.13,6.39,9.69,14.94,17.57,18.31,13.29,4.33,16.08-12.04,4.22-16.76h.02Z" style="fill: #80bf4c;"/>
      <path d="M1078.94,419.93c-10.69-.2-21.09-.6-31.56-2.38-1.43-.49-3.08,0-3.33,1.48-1.02.97-.76,2.58.8,2.89,9.95,3.39,19.13,9.41,28.81,13.45,17.78,8.03,25.19-14.75,5.28-15.44h0Z" style="fill: #80bf4c;"/>
      <path d="M1011.6,387.9c-7.82-1.31-10.1,6.71-9.89,12.2.42,11,.63,21.65-.69,32.57-.18,1.14.7,2.15,1.78,2.31,3.69,3.37,5.75-12.62,8.08-15.05,3.75-8.96,15.04-27.54.72-32.04h0Z" style="fill: #80bf4c;"/>
      <path d="M1113.23,361.92c-6.89-3.94-11.81,2.77-13.52,8.01-3.32,10.12-6.7,19.84-11.46,29.32-.88,1.24-1.09,3.07.36,3.77,1.1,2.03,2.82.7,3.67-.76h.01v-.02c1.83-2.32,3.67-4.58,5.62-6.79h.01c6.65-8.58,28.22-22.45,15.31-33.53h0Z" style="fill: #80bf4c;"/>
      <path d="M1027.5,325.08c-6.88-3.94-11.81,2.77-13.51,8.01-3.22,10.96-7.93,21.21-12.2,31.56h0c.09.65.53,1.22,1.1,1.54,2.08,4.55,9.84-9.84,12.79-11.31,6.63-7.1,23.68-20.58,11.81-29.79h.01Z" style="fill: #80bf4c;"/>
      <path d="M1033.07,361.29c-10.46,1.84-20.66,3.48-31.19,3.75-1.5-.15-3.24.35-3.23,2.12-1.79,3.29,3.44,2.77,5.33,3.4,8.93,1.47,17.98,5.19,26.89,6.9,18.96,4.44,21.86-19.36,2.2-16.17h0Z" style="fill: #80bf4c;"/>
      <path d="M1004.78,365.46c-5.89-10.61-4.61-47-22.78-41.09-7.07,3.61-4.14,11.4-.7,15.7,6.08,7.59,11.86,15.05,16.87,23.28,1.2,1.61,2.17,5.43,4.76,4.12,1.12.11,2.31-.67,1.86-2.01h-.01,0Z" style="fill: #80bf4c;"/>
      <path d="M1002.77,363.46c-11.97,1.99-45.88-11.4-46.39,7.68,1.03,7.86,9.36,7.72,14.56,5.92,10.39-3.59,20.58-6.92,31.36-8.81,1.23-.2,1.81-1.26,1.69-2.38.46-1,.16-2.36-1.22-2.41Z" style="fill: #80bf4c;"/>
    </g>
    <g>
      <g>
        <path d="M1271.03,547.85c-227.38-162.59-447.9,39.61-499.38,270.14-.82,3.18-5.69,1.83-4.91-1.35,40.36-162.88,164.4-344.14,351.41-331.97,55.81,3.27,110.73,23.62,154.76,58.33,2.25,1.77.41,4.56-1.89,4.84h.01Z" style="fill: #2c8237;"/>
        <path id="Snowdrop04" d="M1278.27,550.95c-17.9-9.91-45.4-7.8-56.22,9.67-10.37,15.75-2.51,33.07,5.08,48.48,2.15,9.11-3.79,17.52-4.39,26.47-1.56,7.42,4.47,18.14,11.92,9.79,2.01,5.9,8.34,5.37,12.54,1.68.71,5.38,7.99,7.5,11.33,3.32,1.66,2.86,4.26,4.92,8.03,4,12.01-4.88,5.18-27.08,14.6-35.33,21.38-16.46,30.41-51.52-2.9-68.08h.01Z" style="fill: #faa93e;"/>
        <path d="M1236.59,622.97c-2.15,5.42-4.21,11.13-5.15,16.91-.53,3.26,4.01,3.95,4.93.92,1.65-5.43,2.93-10.97,4.68-16.38.82-2.54-3.48-3.93-4.46-1.45h0Z" style="fill: #e8702a;"/>
        <path d="M1248.58,625.79c-1.4,2.88-10.47,24.22-.89,17.62,1.44-2.65,10-24.34.89-17.62Z" style="fill: #e8702a;"/>
        <path d="M1259.63,627.99c-1.07,5.62-2.54,11.27-3.16,16.96-.36,3.29,4.26,4.18,5.06.95,1.38-5.56,1.95-11.37,2.88-17.02.51-3.1-4.21-3.98-4.78-.89Z" style="fill: #e8702a;"/>
        <path d="M1278.49,552.02c-3.33-12.19-20.7-21.66-31.73-26.19-.47.43.71.85.26,1.29-.94.9-1.83,1.93-2.75,2.93,12.58,7.17-.93,12.86-3.24,21.01-.52,3.95,1.81,8,5.99,8.44,5.99-.05,10.12-5.91,14.89.61,6.76,8.27,18.27,1.88,16.58-8.09h0Z" style="fill: #2c8237;"/>
      </g>
      <path d="M1198.68,588.82c-5.11-61.37-43.47-113.52-110.29-104.28,36.95,9.79,71.96,43.12,83.89,84.13,7.4,24.53,24.21,83.39-10.06,116.18-1.79,1.71,1.81,4.17,4.03,3.1,30.15-18.51,33.98-66.92,32.43-99.13h0Z" style="fill: #2c8237;"/>
      <path d="M1233.34,415.69c-53.9-5.23-106.56,11.45-156.44,30.11-15.59,5.81-31.52,11.29-45.24,20.91-13.2,9.25-24.3,21.52-30.62,36.45,6.83,1.73,39.09-7.87,52.17-14.52,0,0,.01,0,.01-.01,26.13-14.17,50.88-31.58,80.48-37.85,6.47-1.59,117.19-28.7,99.63-35.09h.01Z" style="fill: #2c8237;"/>
    </g>
    <g>
      <path d="M1213.23,176.07c-205.67-27.39-349.68,292.65-391.43,456.41-74.73,235.49-155.28,472.08-151.03,722.4-.44,12.2-.84,24.41-1.22,36.61-.12,3.73,5.66,3.72,5.8,0-4.95-245.51,60.84-480.07,137.87-710.77,52.51-184.03,150.8-468.18,367.33-502.19,10.51-.37,20.97.56,31.26,2.7,3.36.7,4.81-4.4,1.43-5.17h-.01Z" style="fill: #2c8237;"/>
      <path id="Snowdrop02" d="M1240.33,201.47c-4.46-4.93-12.38-6.71-16.9-11.58-4.37-4.42-7.91-14.78-15.36-12.3-1.62-.55-3.46.47-3.32,2.38-1.41,12.54-15.49,19.24-20.96,29.39-10.75,19.91,2.88,40.73,7.44,60.29,1.59,7.17-.32,15.48,3.05,22.28,4.17,9.04,16.91,9.98,21.72.45,4.31,5.51,15.87,6.8,16.85-1.94,5.64,7.32,16.72,2.6,17.6-5.23,1.35-6.86-.7-14.44-.63-21.37-.19-23.18,10.25-40.23-9.49-62.36h0Z" style="fill: #faa93e;"/>
      <path d="M1110.71,75.21c-17.64-22.25-53.64-11.32-39.43-6.6,13.16-5.06,27.04.92,35.87,11.15,35.08,51.67-34.95,135.25-75.15,166.56-2.35,1.84.8,5.99,3.23,4.18,43.98-34.43,115.77-118.92,75.47-175.3h.01Z" style="fill: #2c8237;"/>
      <path d="M1149.37,104.13c0-4.96-4.86-74.88-12.05-60.17-2.11,38.51-1.99,83.63-32.39,111.67-31.06,29.74-80.58,49.93-82.32,99.32.13,3.6-1.96,6.41,4.33,4.09,31.76-8.36,64.43-37.49,86.84-62.27,25.23-23.8,37.4-58.25,35.59-92.65h0Z" style="fill: #2c8237;"/>
      <path d="M1200.32,372.4c-12.34-46.81-37.9-94.82-91.97-98.4-54.05-11.94-101.93-8.19-133.8,38.07,7.55,5.35,29.59-10.23,38.19-11.93,49.71-5.64,113.78-8.43,151.45,30.14,5.68,3.9,33.75,52.6,36.12,42.12h.01Z" style="fill: #2c8237;"/>
      <path d="M1215.62,277.57c-.38-3.03-.56-6.11-1.3-9.07-.66-2.63-4.33-1.88-4.51.61-.44,5.83.5,13.34,2.17,18.94.78,2.63,5.01,2.23,4.9-.66-.12-3.28-.85-6.56-1.25-9.82h-.01Z" style="fill: #e8702a;"/>
      <path d="M1214.1,174.8c-6.77-3.39-14.27-1.92-24.81-1.92-2.67.09.79,5.32,2.95,5.78,3.49.47,7.98,1.22,7.89,5.83-1.27,3.97-1.44,9.64,3.89,10.52,3.94-.22,7.49-1.7,11.39-.84,10.79-1.06,6.53-16.55-1.31-19.37h0Z" style="fill: #2c8237;"/>
      <path d="M942.41,216.05c-2.91-11.84-19.86-52.95-29.98-54.07-2.18-.24-2.91.73-2.06,2.37,18.02,35.12,16.51,76.45,8.21,114.04-8.98,40.68-25.51,79.31-34.03,120.1-5.12,24.27-7.11,57.33-10.5,82.24h0c-.12.94-.27,1.85-.39,2.75h0c.25.87,2.77-7.44,4.11-8.07,1.32.45,3.01.02,3.59-1.68,3.04-8.85,6.71-17.42,10.75-25.84,11.97-24.62,26.09-48.28,35.86-73.93h.01c19.69-49.81,27.37-105.42,14.43-157.91h0Z" style="fill: #2c8237;"/>
      <path d="M1233.18,276.1c-.51-3.07-.76-6.21-1.38-9.26-.44-2.15-4.17-2.29-4.49,0-.42,2.99-.03,5.76.44,8.72.53,3.4.75,7.1,1.88,10.34.89,2.55,4.77,2.22,4.81-.65.04-3.05-.76-6.14-1.26-9.15Z" style="fill: #e8702a;"/>
      <path d="M1054.56,385.65c-17.78,15.27-35.24,30.89-52.44,46.81h-.01c-3.97,3.65-7.9,7.32-11.85,11.01h-.01c-47.76,46.37-99.66,89.77-138.47,144.27-28.9,40.31-43.62,88.57-56.69,135.89-.36,1.32.33,2.31,1.29,2.73-1.68,2.15-2.47,7.57.63,2.5,2.13-4.25,4.36-8.47,6.7-12.58,6.9-12.21,14.68-23.87,22.85-35.31.01,0,.01-.01.01-.01,30.6-44.62,72.33-80.19,100.76-126.5.01,0,.01-.01.01-.01,3.72-5.3,7.47-10.56,11.35-15.73h0c36.72-52.38,102.79-85.64,120.43-150.4.58-2.74-2.48-4.45-4.57-2.66h.01Z" style="fill: #2c8237;"/>
      <path d="M829.87,487.43c-33.83,81.99-51.79,169.32-75.81,254.45-12.61,41.9-20.69,84.77-22.5,128.54h0c-.25,3.33-.51,6.66-.75,9.98-.01,0,0,.01,0,.01-.51,6.9-1,13.8-1.48,20.71h0c-.17,2.51-.35,5-.52,7.51h0c-.33,4.86-.64,9.7-.96,14.56h0c.58,6.67-2.95,14.12-1.26,20.32.24,2.25-1.55,6.36,1.19,7.35,1.39.44,3.29-.34,3.46-2.27.73-7.55.79-15.22,3.1-22.51h0c.88-3.23,1.9-6.39,3.02-9.55h0c2.57-7.21,5.7-14.2,8.86-21.16h.01c1.21-2.65,2.39-5.29,3.58-7.95,11.66-25.25,19.61-52.12,24.89-79.42,0,0-.01-.01,0-.01.3-1.55.61-3.12.9-4.68h0c.82-4.3,1.59-8.6,2.28-12.9.01-.01.01-.02.01-.03,6.09-36.16,9.35-72.73,15.28-108.92,9.46-58.84,32.33-114.62,39.32-174.02h0c.95-6.43,1.82-12.86,2.61-19.32.4-3.27-4.21-3.19-5.25-.71l.02.02h0Z" style="fill: #2c8237;"/>
    </g>
    <g>
      <path d="M753.38,1091.98c-60.15-204.39-91.37-446.27-277.11-579.33-3.33-2.35-6.28,3.01-3.15,5.4,183.43,134.56,212.54,372.54,273.76,575.72,1.24,4.15,7.56,2.43,6.5-1.79h0Z" style="fill: #2c8237;"/>
      <path d="M780.66,1245.77c-9.31-55.31-17.33-110.95-29.88-165.66-2.46.18-4.94.13-7.38.05,22.78,102.12,34.78,206.49,54.22,309.27.8,4.25,7.27,3.2,6.65-1.1-6.88-47.64-15.7-95.08-23.62-142.56h0Z" style="fill: #2c8237;"/>
      <path id="Pansy01" d="M534.6,531.14c-14.82-1.34-30.66,4.71-41.56-8.99,23.12-11.96,51.92,3.89,73.92-10.81,19.59-28.34-9.85-49.82-39.08-30.1-13.99,8.18-23.02,27.66-38.73,32.52,6.12-30.49,43.56-35.38,36.51-68.89-1.86-14.42-18.15-20.38-30.38-14.36-24.19,12.23-12.53,42.54-15.52,63.87-.76,5.93-1.67,11.84-2.6,17.74-24.02-10.89-35.89-52.12-66.84-42.68-29.6,14.68-12.08,53.47,17.5,52.58,11.2.37,22.39-.24,33.25,3.16-12.92,6.9-26.81,2.09-40.5,1.74-29.41-.97-38.34,40.61-8.91,48.67,15.8,3.51,23.97-9.23,33.59-19.12,7.76-8.25,16.86-14.97,26.79-20.38-6.29,22.34-27.84,32.15-24.3,59.52.98,5.93,3.98,14.29,13.34,17.87,23.55,7.48,36.46-23.89,34.95-42.4-.99-12.55-9.39-25.36-11.96-38.07,16,13.17,18.81,18.2,28.03,36.31,41.39,54.39,91.05-28.34,22.47-38.2l.03.02h0Z" style="fill: #6764d1;"/>
      <path d="M502.31,490.3c-.42-4.39-4.14-7.74-8.5-5.44-8.04,6.06-7.37,21.19-13.43,29.58,12.43-38.3-15.36-46.08-11.32-25.55,1.65,7.04,4.98,13.92,5,21.13-5.14-7.03-14.97-24.09-25.37-17.93-5.83,4.9,2.2,10.35,5.63,13.07,4.88,3.86,9.48,7.97,13.5,12.63-6.66-3.32-12.5-5.09-19.7-5.24-4.48-.06-14.9,2.79-11.87,9.37,4.28,8.62,22.57,2.6,31.65,5.62-5.6,6.99-17.8,6.52-22.75,13.55-2.61,5.16,3.15,9.64,7.88,9.42,12.73-2,18.84-16.02,26.57-24.71,9.68-9.76,22.98-20.53,22.72-35.5h-.01Z" style="fill: #ffe0cf;"/>
      <path d="M497.48,520.37c-2.05-27.49-46.21-21.62-34.32,6.6h0c6.08,16.32,37.02,12.97,34.33-6.59h0Z" style="fill: #ffe0cf;"/>
      <path d="M551.75,545.81c-.76-3.06-5.39-1.76-4.71,1.3,1.73,7.86-.13,14.76-4.14,21.55-1.7,2.89,2.45,5.05,4.36,2.55,5.47-7.15,6.61-16.84,4.49-25.4h0Z" style="fill: #331d20;"/>
      <path d="M475.51,586.01c-6.06,1.03-11.43.11-16.43-3.64-2.16-1.62-5,2.04-2.9,3.76,12.07,10.77,30.28,3.19,19.33-.13h0Z" style="fill: #331d20;"/>
      <path d="M418.49,559.66c-5.38-3.15-9.14-8.39-8.04-14.91.5-2.96-3.93-4.3-4.59-1.26-4.09,18.08,18.76,26.98,12.62,16.18h.01Z" style="fill: #331d20;"/>
      <path d="M552.02,477.43c-2.56-1.81-4.85,2.33-2.43,4.16,7.08,5.35,6.74,14.31,6.23,22.26,6.81,11.74,9.02-19.76-3.79-26.42h-.01Z" style="fill: #331d20;"/>
      <path d="M514.71,449.15c-9.24-17.09-33.55-3.71-20.34-2.49,6.05-2.79,12.54-.46,16.11,4.96,1.73,2.63,5.75.32,4.24-2.48h-.01Z" style="fill: #331d20;"/>
      <path d="M490.85,508.41c-6.77-4.64-13.27.77-14.12,7.42-9.03-1.89-12.44,9.58-7.99,16.09,1.16,2.3,5.09.7,4.21-1.78-2.59-5.32-1.06-11.63,5.84-8.33,1.96.75,3.66-1.45,3.22-3.22-.94-3.85,1.93-8.55,6.16-5.6,2.8,1.95,5.47-2.65,2.67-4.57h0Z" style="fill: #d1b2a1;"/>
    </g>
    <g>
      <path d="M729.56,1135.94c-43.82-318.62-99.12-635.83-168.94-949.8-.92-4-6.94-2.29-6.12,1.69,67.99,314.4,125.15,631.18,168.36,949.96.6,4.41,7.3,2.53,6.7-1.85h0Z" style="fill: #2c8237;"/>
      <path id="Pansy03" d="M641.57,146.19c-18.78-13.92-51.79,2.48-63.01,20.03-5.66,10.98-4.85,24.06-6.58,36.04-4.72-9.58-7.83-20.73-4.35-31.2h0c20.43-41.17-29.42-74.42-57.17-37.97-9.66,13.72-2.88,31.68,11.03,39.38,10.28,6.57,22.86,10.72,29.77,21.45-28.92-29.99-89.3-9.36-84.38,35.36,5.15,20.49,27.2,18.25,37.86,3.3,5.79-7.14,25.48-35.97,46.63-24.94-13.19.96-21.59,14.09-30.9,22.07-42.11,30.02,9.05,56.01,35.11,29.72,10.05-10.61,4.9-24.76,4.2-37.55.53.47,1.11.92,1.76,1.34,8.72,38.38,49.93,31.3,67.81,4.19,5.63-9.44,4.08-21.34-5.94-27-11.84-6.69-24.62-1.84-36.92,1.24,6.87-15.2,22.53-24,39.08-19.98,4.81.91,9.78,2.72,14.73,2,18.34-3.95,14.97-29.63,1.29-37.52l-.02.04h0Z" style="fill: #6764d1;"/>
      <path d="M580.04,196.42c-2.74-19.37-34.61-20.63-36.59-.56h0c-.24,28.34,42.03,24.71,36.6.57h-.01,0Z" style="fill: #ffe0cf;"/>
      <path d="M575.12,164.62c-11.16-.24-7.66,20.07-11.1,24.83-1.36.14-.2-16.36-.38-18.84-.25-3.36-2.03-8.44-6.22-8.01-9.4.98-4.23,19.74-1.58,27.72-3.48-5.32-4.7-11.8-7.9-17.25-12.56-13.98-24.41,4.53,2.39,23.83-.06.04-.13.09-.19.14-6.96.11-12.46-4.12-18.19-7.42-15.59-3.72-11.15,12.45,1.29,14.67,11.56,2.37,29.28-.53,38.21-9.25,1.68-7.46,15.8-27.25,3.66-30.41h.01Z" style="fill: #ffe0cf;"/>
      <path d="M610.88,211.64c-5.4,7.35-13.28,10.54-21.64,13.48-3.49,1.23-2.07,6.71,1.55,5.61,9.32-2.85,20.64-6.62,25.06-16.18,1.57-3.39-2.77-5.89-4.97-2.91h0Z" style="fill: #331d20;"/>
      <path d="M552.99,130.97c-11.12-2.69-23,2.69-29.97,11.35-2.31,2.87,1.64,6.99,4.12,4.12,6.63-7.7,15.28-10.01,25.09-9.78,3.24.08,3.96-4.93.76-5.69h0Z" style="fill: #331d20;"/>
      <path d="M537.72,251.8c-6.22.15-11.63-.53-17.02-3.9-3.26-2.04-6.18,3.04-3,5.13,6.09,4.01,13.57,6.14,20.83,4.75,3.39-.65,2.59-6.06-.81-5.98h0Z" style="fill: #331d20;"/>
    </g>
    <g>
      <path d="M834.32,1410.32c-79.27-379.66-110.15-812.38-396.82-1101.98-2.87-2.87-7.23,1.51-4.45,4.44,277.96,282.49,311.98,699.94,389.42,1069.61,1.69,9.94,3.36,19.88,5.02,29.82.75,4.49,7.58,2.59,6.84-1.89h-.01Z" style="fill: #2c8237;"/>
      <path id="Rudbeckia" d="M519.51,308.98c-4.9-8.11-15.77-12.52-24.49-14.82-20.31-5.91-41.33-5.99-53.83,13.58-1.85-1.03-3.92.41-4.03,2.29-1.07.88-2,1.97-2.82,3.05-2.98-.25-2.67,2.97-1.74,4.97-7.51-.56-19.18,19.03-20.25,26.09-4.83,12.09,6.51,74.68,26.37,56.16,4.17,2.67,9.78,4.17,11.69-1.8,1.93-6.06-4.42-14.69-7.26-19.52-10.5-16.89-14.42-37.72-9.32-57.06,1.56,11.23,41.9,88.82,48.14,49.92,8.73,4.58,10.49-8.4,6.63-13.95-9.37-18.34-23.08-35.39-40.51-46.42,17.59-5.86,35.9.97,48.21,14.21,3.86,4.15,9.53,11.97,16.05,7.23,3.99-2.9,3.29-7.11,1.24-10.72,6.73-.31,9.67-7.96,5.93-13.22h0Z" style="fill: #ffb4d2;"/>
      <path d="M447.52,303.56c-2.05-7.3-13.42-10.52-16.51-2.42-11.77-2.55-18.18,17.34-10.84,24.75,12.44,9.92,32.42-8.55,27.35-22.33h0Z" style="fill: #4f2525;"/>
    </g>
    <g>
      <path d="M743.7,1244.68c-17.9-171.94-34.06-345.87-72.54-514.5-14.36-52.21-31.98-60.65-84.64-56.34.99-25.71,4.06-51.43,6.77-77.01,35.66-20.57,71.75-40.88,106.91-62.25,7.32-14.59-27.38,10.12-30.67,11.47-25.09,14.74-50.35,29.07-75.45,43.8,5.88-50.7,14.34-101.08,24.71-151.04.79-3.82-5.03-5.46-5.87-1.62-17.31,78.01-27.63,157.42-33.36,237.07-61.58,3.53-122.6,15.84-180.5,37.04-3.65,1.33-2.09,7.2,1.62,5.87,32.55-11.67,66.03-20.67,100.02-26.89-11.45,27.78-22.73,61.12-31.26,90.5-1.08,3.78,4.76,5.37,5.87,1.62,8.78-31.17,21.5-63.02,33.2-93.49,28.21-4.8,56.74-7.69,85.36-8.59,38.08-3.87,56.74,3.09,67.65,41.81,29.19,96.6,34.73,198.78,50.66,298.12,18.08,135.54,32.29,271.87,33.74,408.71.09,8.7.13,17.39.12,26.09,0,4.31,6.7,4.32,6.7,0,.06-70.2-3.33-140.37-9.05-210.33l.02-.04h-.01Z" style="fill: #80bf4c;"/>
      <path d="M414.94,707.14c-1.13-1.17-3.34-.06-4.81-.14,0,0-.01.01-.01,0-9.34,1.29-19.36.25-28.75,1.18-19.43,1.15-15.44,24.77,2.51,16.11,8.92-4.48,17.66-8.67,27.08-11.91,1.73-.68,4.91-.96,4.23-3.53.18-.6.11-1.27-.23-1.73l-.02.02Z" style="fill: #80bf4c;"/>
      <path d="M478.3,774.57c-.78-1.17-1.54-2.35-2.31-3.52h0c-.84-1.34-1.68-2.65-2.5-4h0c-3.87-6.43-7.05-14.22-11.16-20.53-9.84-16.81-29.08-2.56-13.25,9.52,8.5,6.29,16.69,12.57,24.11,19.98.92,1.14,2.42,2.19,3.72,1.01h.01c1.15-.27,2.16-1.27,1.37-2.48v.02h0Z" style="fill: #80bf4c;"/>
      <path d="M487.4,737.19c-9.57-7.44-22.69-41.44-37.07-28.86-5.09,6.09.66,12.11,5.52,14.71,9.3,5,18.22,10,26.66,16.29,1.1,1.04,2.87,1.88,3.98.44,1.08-.36,1.87-1.52.92-2.58h-.01Z" style="fill: #80bf4c;"/>
      <path d="M478.49,775.92c-.15-.47-.48-.86-.87-1.13,0-.01-.01-.01-.01-.01-1.92-3.9-5.92,3.68-7.82,4.91h-.01c-5.49,5.78-12.63,10.93-18.06,16.81-13.86,13.68,4.69,28.82,12.5,10.5,3.74-10.88,10.14-20.81,14.29-31.08h-.02Z" style="fill: #80bf4c;"/>
      <path d="M507.65,784.27c-10.18-3.14-19.99-6.35-29.58-10.97-1.22-.8-2.95-1.03-3.7.47-3.04,2.11,1.63,3.93,3.02,5.33,7.35,5.41,13.71,12.91,20.93,18.54,14.85,12.62,28.28-7.25,9.33-13.37h0Z" style="fill: #80bf4c;"/>
      <path d="M534.57,694.03c-10.74-2.46-21.11-5.04-31.28-9.13-1.22-.5-2.26.18-2.69,1.11-3.38,2.96,4.8,5.18,6.38,7.14,6.47,4.42,12.67,10.58,19.26,14.9,15.74,11.49,27.67-9.28,8.33-14.02Z" style="fill: #80bf4c;"/>
      <path d="M545.71,602.16c-14.42-8.06-17.93,26.71-24.46,35.06,1.78.64,2.84,2.73,3.48,4.45,5.98-10.43,35.31-27.03,20.98-39.51h0Z" style="fill: #80bf4c;"/>
      <path d="M717.33,503.56c-13.79-9.09-19.85,25.33-26.96,33.17,1.72.77,2.63,2.94,3.15,4.69,6.73-9.97,37.18-24.38,23.81-37.87h0Z" style="fill: #80bf4c;"/>
      <path d="M563.62,653.86c6.52-15.18-28.43-15.05-37.41-20.69-.45,1.83-2.42,3.11-4.06,3.92,11,4.87,30.54,32.32,41.47,16.77Z" style="fill: #80bf4c;"/>
      <path d="M526.63,639.34c-.76-1.25-1.58-2.43-2.2-3.71-11.35-.75-37.51-15.93-41.09,1.93-.13,7.93,8.14,8.99,13.55,7.96,10.36-1.97,20.44-3.69,30.94-4.12-.4-.69-.79-1.39-1.2-2.07h0Z" style="fill: #80bf4c;"/>
      <path d="M517.28,713.66c-11.73-9.34-18.21,10.15-24.75,16.63-1.61,3.73-13.55,12.67-10.83,15.47.74,4.96,12.3-6.54,15.55-7.07,8.41-4.86,28.68-12.75,20.03-25.03h0Z" style="fill: #80bf4c;"/>
      <path d="M439.62,671.77c-14.23-8.31-18.57,23.97-25.22,31.9-.74,2.29-4.67,5.44-1.97,7.53,1.88,4.64,10.48-9.22,13.51-10.46,7.08-6.66,24.95-19.02,13.7-28.98h-.02Z" style="fill: #80bf4c;"/>
      <path d="M416.67,704.95c-8.53-3.57-15.84-19.38-16.98-20.14-3.21-4.26-10.92-11.61-16-5.29-8.68,15.49,21.19,21.72,29.92,29.56.91-1.44,1.95-2.82,3.05-4.13h.01Z" style="fill: #80bf4c;"/>
      <path d="M410.99,710.8c-.14,9.77-7.64,21.31-7.73,22.91-1.8,5.02-3.72,15.5,4.34,16.28,18.39-2.65,6.11-27.61,8.48-39.69-1.69.2-3.39.39-5.09.5Z" style="fill: #80bf4c;"/>
      <path d="M476.45,773.68c-.29-.67-.73-1.32-.93-2.04.32-.04.53-.33.47-.6h0c-.06-.29-.3-.51-.63-.43-.18-.46-.94-.36-1.02.22-12.18,5.75-36.77-2.09-41.6,11.92-1.45,5.71,2.58,10.25,8.33,9.78,7.86-.88,13.84-6.77,21.07-9.47,3.81-2.46,15.92-3.36,14.31-9.39h0Z" style="fill: #80bf4c;"/>
      <path d="M649.24,449.3c-10.4-2.86-20.79-5.02-30.76-9.01-1.75-.6-4.27-2.37-5.4.02-4.47,2.28,10.67,9.08,12.35,11.82,6.63,5.15,13.32,12.83,22.12,13.85,11.71.85,12.24-14.15,1.69-16.68h0Z" style="fill: #80bf4c;"/>
      <path d="M719.46,534.1c-10.84,1.49-21.45,2.74-32.33,2.5-1.35-.1-2.21.93-2.27,2-1.75,2.72,2.1,2.88,3.86,3.31,9.37,1.8,18.63,6.05,27.92,8.25,18.81,5.18,22.6-18.51,2.82-16.06h0Z" style="fill: #80bf4c;"/>
      <path d="M684.44,570.41c-10.27-3.92-20.21-7.97-29.68-13.43-1.15-.66-2.27-.14-2.83.72-2.58,1.31-.02,3.3,1.38,4.39,7.51,6.19,13.7,14.5,20.91,21.03,13.97,13.59,28.72-5.31,10.22-12.71h0Z" style="fill: #80bf4c;"/>
      <path d="M665.12,650.29c-6.01-7.54-13.99-.35-18.12,4.92h0c-6.42,7.24-12.96,14.11-20.36,20.27-1.64,1.2-.23,5.49,2,4.38,9.39-7.67,45.5-12.69,36.51-29.58h-.03Z" style="fill: #80bf4c;"/>
      <path d="M633.73,677.64c-.64-3.51-1.21-7-1.64-10.54h0c-.78-6.83-.74-14.74-1.91-21.54-1.4-15.55-20.95-17.05-17.77-.85h0c4.35,10.34,11.06,19.27,15.03,29.74,1.03,1.81,1.24,5.76,4.15,4.89,1.08.26,2.38-.32,2.14-1.71h0Z" style="fill: #80bf4c;"/>
      <path d="M626.11,677.61c.14-4.27-5.84-.51-8.2-.6-7.22,1.63-14.27,1.88-21.82,3.19-22.53,1.6-18.49,27.34.74,16.4,9.11-6,18.11-11.68,27.99-16.18,1.28-.46,1.72-1.72,1.29-2.82h0Z" style="fill: #80bf4c;"/>
      <path d="M597.79,548.86c-1.32-2.92-2.61-5.77-3.78-8.7h0c-2.69-6.78-4.61-14.82-7.6-21.5-7.08-18.16-28.31-7.07-14.57,7.33,7.46,7.6,14.56,15.08,20.79,23.67.71,1.34,2.22,2.33,3.51,1.38,1.13-.01,2.24-.9,1.66-2.18h-.01,0Z" style="fill: #80bf4c;"/>
      <path d="M636.33,488.03c-6.98-7.9-14.74,1.21-19.04,6.79-3.71,4.42-7.46,8.71-11.47,12.8-1.69,2.95-9.33,6.16-7.37,9.76.35,4.99,12.77-5.6,16.05-5.88,8.77-4.21,29.53-10.55,21.84-23.47h-.01Z" style="fill: #80bf4c;"/>
      <path d="M691.76,534.34c-1.26-9.75-.12-20.14-.9-29.95-.9-19.44-24.57-15.77-16.15,2.29,4.61,9.53,8.96,18.85,12.1,28.9.25,1.53,1.31,3.13,2.93,2.6,2.68.77,2.32-2.14,2.02-3.85h0Z" style="fill: #80bf4c;"/>
      <path d="M693.44,539.1c-3.98-3.57-9.73-5.43-14-8.98-8.07-5.39-24.16-20.03-31.32-6.82-3.85,15.75,23.07,12.12,32.21,16.2,3.36-.04,10.44,4.94,12.35,1.43.2-.15.37-.34.5-.54h0c.26-.4.38-.84.28-1.27l-.02-.02Z" style="fill: #80bf4c;"/>
      <path d="M615.94,449.08c-.47-4.06-5.24.13-7.4.52-7.93,3.42-17.18,5.21-25.17,8.55-18.28,6.72-7.65,28.17,7.04,14.72,6-5.67,11.93-11.13,18.36-16.12h.01c1.98-2.5,8.56-3.87,7.17-7.68h-.01,0Z" style="fill: #80bf4c;"/>
      <path d="M623.27,395.68c-4.51-.86-7.22,1.45-8.71,4.6h-.01c-3.25,10.78-.28,22.33-2.1,33.33.37,2.73-2.59,7.77.95,8.95,3.5,3.54,6.08-12.53,8.39-14.87,3.91-8.79,15.7-27.22,1.45-32.02h.03,0Z" style="fill: #80bf4c;"/>
      <path d="M615.96,444.15c-.66-.93-1.32-1.85-1.97-2.78h-.01c-4.05-5.6-7.05-11.19-10.48-17.36-.01,0-.01-.01-.01-.01h0c-12.07-26.87-34.95-10.65-17.41,2.74,7.34,5.01,14.4,9.99,21.05,15.7,2.31,1.27,4.78,6.4,7.64,4.19.82-.17,1.54-.81,1.49-1.63h0c-.01-.27-.1-.55-.3-.83v-.02h0Z" style="fill: #80bf4c;"/>
      <path d="M651.54,417.62c-6.7-18.46-20.98,4.35-27.17,11.25-3.36,3.91-8.7,6.93-10.51,11.89h0c-.06.47.05,1.03.27,1.44.55,1.02,1.69,1.53,2.4,2.42-.12.09-.25.2-.28.34h0c-.07.46.42.83.84.53.38.36,1.04-.09.84-.62,8.99-10.01,34.65-12.53,33.61-27.27v.02h0Z" style="fill: #80bf4c;"/>
      <path d="M486.57,691.59c1.67-.92,3.31-1.89,4.93-2.89.19-.34.46-.61.63-.39,0,0,.01,0,.02-.01-3.25-7.19-7.7-15.46-9.59-23.13-1.43-6.78-4.86-14.43-13.12-12.93-6.63,1.2-6.48,9.89-2.85,15.3,5.56,8.25,13.97,11.31,19.98,24.06h0Z" style="fill: #80bf4c;"/>
      <path d="M537.9,664.23c.02-2.07-.5-4.64-.52-6.44v-.02c-7.88-.23-17.28.18-25-1.48-6.72-1.68-15.11-1.94-17.37,6.14-1.82,6.49,6.06,10.15,12.51,9.25,9.85-1.39,16.28-7.61,30.38-7.45Z" style="fill: #80bf4c;"/>
      <path d="M523.01,639.64c1.54-1.35,3.15-3.45,4.47-4.66,0,0,0-.01.01-.02-5.06-6.05-11.61-12.8-15.49-19.67-3.2-6.14-8.58-12.58-16.13-8.91-6.06,2.95-3.57,11.27,1.39,15.5,7.58,6.43,16.49,7.12,25.74,17.76h.01Z" style="fill: #80bf4c;"/>
      <path d="M547.48,677.11c-1.53-4.04-28.89-65.71-30.84-47.58,9.02,16.61,18.62,32.96,25.9,50.47,1.48,3.37,6.4.46,4.95-2.89h-.01Z" style="fill: #80bf4c;"/>
    </g>
    <g>
      <path d="M919.64,585.81c-185.61,210.04-276.55,481.48-317.65,754.75-.74,4.03,5.61,4.49,6.33.49,40.9-272.31,132.17-542.02,316.72-751.5,2.73-3.24-2.68-6.9-5.4-3.74h0Z" style="fill: #2c8237;"/>
      <path id="Pansy02" d="M988,590.99c-17.91-.79-28.05-.13-42.15-1.58,1-1.89,17.81-8.98,28.52-11.56,14.46-4.65,28.65-26.86,14.14-38.99-14.3-10.07-29.98,2.52-37.29,15.46-5.96,7.73-12.52,15.95-21.15,22.25-.02-.38.01-.84.08-1.41-.01-.01,0-.01,0-.01,2.79-12.74,7.04-22.36,5.43-34.15-.89-18.77-21.18-38.76-40.16-28.09-11.65,6.45-12.97,20.67-5.18,30.71,10.82,11.76,21.14,16.81,22.24,34.66-14.8-8.7-23.17-25.51-39.38-32.14-25.05-14.03-57.59,18.11-29.86,37.53,0,.01.01.01.02.01,14.16,9.66,31.83,4.48,47.76,4.62,19.91-1.06,22.76,11.27,3,15.81-8.34,1.52-16.85-.27-25.26.13-39.52-.7-31.78,53.88,3.5,51.74,15.43-.21,35.06-11.89,38.3-29.1,1.71-6.51,2.79-14.33,7.43-19.29,7.99,25.18-17.42,40.12-7.33,61.45,5.55,9.73,18.52,13.87,28.71,9.4,21.52-9.71,15.42-35.32,7.82-52.59h0c-2.39-6.86-4.65-13.74-6.97-20.62,9.68,8.1,21.84,13.04,31.07,21.62,32.12,31.11,52.12-29.21,16.69-35.79l.02-.07h0Z" style="fill: #6764d1;"/>
      <path d="M939.11,626.53c3.82,2.19,8.71,1.09,9.35-3.79-.58-10.59-12.98-18.09-16.39-28.06,24.02,32.21,46.5,14.14,27.4,5.52-6.7-2.72-14.24-3.98-20.13-8.13,8.7-.12,28.3,1.69,29.3-10.34-.27-11.24-24.44,1.86-32.03.75,6.56-3.52,11.36-7.27,15.66-13.06,2.64-3.62,6.33-13.77-.79-15.1-9.44-1.54-15.17,16.9-22.87,22.58-2.47-8.61,4.97-18.3,2.09-26.4-2.7-5.11-9.69-3-12.25.99-5.73,11.55,2.18,24.62,4.82,35.95,2.37,13.53,3.49,30.61,15.85,39.05v.04h-.01Z" style="fill: #ffe0cf;"/>
      <path d="M946.77,588.63c-.09-9.43-9.72-15.15-18.45-15.69-10.62-1.27-22.97,16.09-18.15,24.06,7.97,18.85,37.45,11.54,36.58-8.36h.02Z" style="fill: #ffe0cf;"/>
      <path d="M853.69,552.01c-4.84,6.12-7.38,13.82-6.14,21.64.53,3.36,5.69,2.41,5.76-.78.15-6.45,1.32-11.9,4.81-17.44,1.67-2.65-2.42-5.97-4.43-3.42Z" style="fill: #331d20;"/>
      <path d="M878.86,636.03c-6.96-1.21-12.56-4.02-15.5-10.82-1.29-3-6.56-.83-5.33,2.25,3.16,7.86,11.08,14.9,20.06,14.26,3.03-.22,4.19-5.09.77-5.69Z" style="fill: #331d20;"/>
      <path d="M997.97,605.9c-.4-3.51-5.87-3.66-5.61,0,.52,7.3-2.86,12.14-7.6,17.22-3.82,11.58,15.74,1.09,13.2-17.22h0Z" style="fill: #331d20;"/>
    </g>
    <g>
      <path d="M692.08,1440.48c3.29-.45,5.72-3.24,5.62-6.55-6.75-168.3,6.7-430.01,20.57-605.62,10.19-164.91,26.58-328.48,88.61-485.43,2.85-7.12-8.76-11.35-11.62-3.85-89.72,224.43-85.25,457.33-103.63,697.55-7.7,144.17-10.8,264-6.92,397.76.12,3.84,3.59,6.76,7.38,6.15h-.01Z" style="fill: #2c8237;"/>
      <path id="Marigold" d="M907.67,397.86c-10.62-7.52-19.35-11.07-18.65-11.22,13.71-2.94,22.2-9.53,24.56-17.73,7.44-31.58-36.78-41.4-58.6-30.51,29-38.86-19.46-55.74-45.61-14.73,10.57-49.27-31.05-53.04-44.98-14.84-11.54-43.95-69.31-38.81-54.01,10.03-9.36-8.47-20.55-14.45-33.52-16.04-23.78-4.75-43.27,23.7-27.47,42.73-15.15.19-21.26,16.76-13.82,28.72-13.66,4.73-25.19,19-19.65,33.97,8.99,23.75,44.28,1.94,67.86,14.99-57.28,21.49-38,67.38-8.86,54.19,4.94-2.42,9.42-5.51,13.08-9.54,11.74-11.55,20.81-17.32,35.3-25.05-43.15,60.38,11.94,96.5,42.32,46.34,3.91-7.61,6.78-16.7,12.84-23.01-6.17,23-5.25,67.37,28.41,66.82,27.7-4.38,16.72-39.13,14.93-58.3,5.29,14.08,7.27,31.49,17.84,43.31,7.65,10.27,26.21,15,33.48,1.96,3.62-8.81,2.46-14.9.49-24.94,26.08,23,39.21-8.64,26.53-31.4,35.75.35,32.53-51.5,7.54-65.79v.04h-.01Z" style="fill: #fa822d;"/>
      <path d="M903.06,457.96c-9.76-10.13-21.27-18.8-34.29-24.27,2.51-5.5,2.57-11.91.6-17.57,20.93-6.3,21.18-42.16-4.54-39.4-.72-7.98-8.32-14.65-17.82-14.8,4.09-19.7-19.52-36.05-36.02-23.31-4.82-7.77-16.71-12.33-25.51-8.41-4.27-10.84-18.22-20.34-29.96-15.37-5.3,2.2-11.68,8.03-10.59,14.37-7.66-1.42-15.11,1.72-18.55,7.11-12-14.8-37.65-12.72-34.15,10.35-12.24-4.54-24.05-5.7-36.59-3.05-3.81.8-2.14,6.4,1.6,5.77,12.74-1.78,27.9-.63,38.48,7.38,1.79,3.25,4.08,6.27,6.63,8.89-4.33,1.72-8.25,4.45-11.18,8.03-15.66-6.19-33.97-7.63-50.47-4.55-3.15.73-2.49,5.77.77,5.67,15.67-1.54,31.17.16,46.17,4.76-8.79,22.85,14.83,32.37,33.28,35.39-3.09,17.63,18.52,23.19,30.59,29.92,8.6,4.72,22.17,8.66,28.32-1.67,4.75,15.39,44.12,10.73,50.29-2.32.09.04.19.08.28.12,17.06,10.73,32.48,23.17,36.53,44.36,1.05,4.53,7.77,2.33,6.71-1.87h0c-.08-.4-.17-.78-.26-1.17h0c-3.42-14.27-12.04-28.09-23.99-37.11,6.1-.09,11.83-1.87,15.88-6.2,9.3,4.9,18.07,10.45,25.95,17.38,3.47,1.95,6.01,8.45,10.45,7.38,2.05-.87,3.4-3.7,1.38-5.8h.01ZM813.69,344.13c12.64-10.38,30.26,2.84,26.49,17.93-9.53.98-19.17,5.06-27.48,9.97,2.53-9.15,3.85-19.47.99-27.9h0ZM782.46,339.6c8.1-6.62,19.4-3.9,23.69,5.22,5.31,10.06.89,23.32-2.94,33.54-12.2,9.07-22.84,20.47-31.95,32.54-.25-.25-.52-.5-.81-.76,2.78-17.06,2.53-34.54-1.31-51.44.67-7.69,7.84-14.18,13.33-19.11h-.01ZM750.55,328.67c5.04-15.09,25.47-7.43,28.94,4.65-5.74,3.89-9.78,9.72-13.54,15.42-3.38-7.98-8.56-15.21-16.66-18.33.56-.35,1.02-.91,1.26-1.74h0ZM742.79,335.96c25.06,5.04,23.28,49.88,21.26,69.51-4.79-2.92-11.12-5.34-16.85-6.49-4.76-13.05-35.15-63.52-4.43-63.01h.02,0ZM698.95,340.2c2.83-13.04,18.91-4.39,24.74,1.55-2.61,7.45-.86,16.21,1.5,23.73-4.84-1.65-10.01-2.31-15.09-1.75-7.07-5.21-12.79-14.45-11.15-23.53h0ZM723.68,408.31c-51.95-6.88-29.83-48.82,4.43-34.61,3.08,8.81,9.01,16.46,12.46,25.1-6.52.41-13.29,4.03-16.88,9.51h-.01ZM767.54,442.71c-11.13-.94-20.52-8.68-30.32-13.39-4.49-2.6-9.49-5.04-9.56-10.97-.14-12.29,13.28-14.53,22.56-11.52,11.43,3.48,22.03,10.79,24.78,22.2,1.61,5.94-.38,13.27-7.46,13.7v-.02h0ZM782.22,428.72c-1.01-4.86-3.58-9.26-6.82-13.09,18.3-19.71,36.43-42.17,64.79-46.4,6.18-.91,15.09-.81,17.61,6.23,4.17,18.13-31.8,28.74-42.32,40.51-9.1-1.75-27.41,2.61-33.27,12.76h.01ZM819.78,441.51c-7.17,4.29-17.33,4.16-25.39,3.46-12.48-1.06-8.73-12.37-1.07-17.42,4.9-3.23,13.13-6.1,21.33-4.49,8.28,1.62,14.78,12.68,5.13,18.44h0ZM863.61,425.63c-1.52,16.26-20.5,13.66-31.5,9.13-.07-8.44-3.5-11.73-9.34-15.89,7.31-5.7,16.03-10.06,23.9-15.28,8.91,3.73,17.81,11.49,16.94,22.04h0ZM859.73,403.1c-2.04-1.65-4.25-3.09-6.59-4.24,5.03-4.09,10.28-9.71,11.44-16.1,19.96.09,15.73,20.59,1.95,27.66-1.84-2.79-4.2-5.24-6.81-7.32h.01Z" style="fill: #331d20; isolation: isolate; opacity: .45;"/>
    </g>
    <path d="M1119.11,156.97c-25,27.64-50.76,54.58-77.69,80.34-2.52,2.41,1.31,6.22,3.82,3.82,4.62-5.27,94.4-89.89,73.87-84.16h0Z" style="fill: #195b1f;"/>
  </g>
  <g>
    <path id="RIBBON" d="M815.59,1056.84c-4.83-13.47-13.13-23.96-13.53-38.58-.35-12.48-4.9-19.41-13.53-28.15-5.79-5.87-9.81-12.25-12.08-20.27-1.57-5.53-1.4-11.68-3.67-16.98-2.71-6.34-7.84-10.21-13.91-11.78-.13-5.17-4.34-9.32-9.54-9.32-4.26,0-7.87,2.79-9.1,6.65-12.92,3.82-30.71,1.86-43.72-.61,18.71-1.07,37.36-3.01,53.76-12.89,6.25-3.77,2.54-12.57-3.23-12.78.47-.22.94-.44,1.39-.68,4.93-2.54,3.99-8.17.67-10.96,8.1-.26,9.38-13.12.86-13.55-10.77-.54-21.54-1.08-32.31-1.62-10.62-.53-21.82.13-31.35-5.19-7.62-4.26-12.59,8.45-5.05,12.66,9.36,5.23,19.43,5.3,29.92,5.83l29.49,1.48c-8.05,3.67-18.11,2.17-26.73,2.15-8.63-.02-17.27-.05-25.9-.07-8.77-.02-8.78,13.61,0,13.63,16.32.05,36.96,3.43,53.37-1.54-14.51,8-30.83,9.15-47.18,10.04-7.95.43-8.7,11.8-2.12,13.44-5.98,1.77-7.6,11.57-.23,13.01,13.49,2.64,30.44,4.88,44.94,2.45-5.92,8.64-.65,21.1.95,31.53,1.68,10.95-.35,20.81-.96,31.63-.6,10.66,5.42,19.39,4.52,30.04-.74,8.74,12.9,8.69,13.63,0,.54-6.42-.36-11.34-2.14-17.38-2.64-8.97-1.87-14.29-.98-23.31.72-7.34.58-14.58-.43-21.9-.61-4.44-6.78-21.39-1.4-24.28,2.41-1.3,3.4-3.34,3.39-5.4,9.54,2.22,10.09,21.87,13.44,29.06,3.64,7.82,9.16,13.21,14.97,19.46,9.13,9.82,4.1,19.79,7.56,31.09,2.87,9.36,9.73,17.41,13.08,26.74,2.94,8.2,16.11,4.66,13.14-3.62v-.03h0Z" style="fill: #ffe0cf;"/>
    <path d="M753.31,950.53c-2.27-2.08-5.03-2.95-7.81-2.81.11-.5-.06-1.02-.65-1.33-2.26-1.16-3.73-3.13-4.23-5.62-.34-1.72-2.97-.99-2.63.73.56,2.81,2.3,5.2,4.69,6.72-.99.3-1.96.69-2.89,1.23-1.52.88-.15,3.24,1.38,2.35,3.33-1.93,7.28-2.04,10.22.65,1.29,1.18,3.22-.74,1.93-1.93h0Z" style="fill: #d1b2a1;"/>
    <path d="M756.67,942.34c-.04,2.16-1.36,4.15-3.41,4.91-1.63.61-.92,3.24.72,2.63,3.21-1.19,5.35-4.09,5.41-7.54.03-1.75-2.69-1.75-2.73,0h.01Z" style="fill: #d1b2a1;"/>
    <path d="M752.56,933.46c-2.02.57-3.22,2.58-4.18,4.32-.36.65-.6,1.33-.89,2.01-.37-.55-.77-1.06-1.41-1.44-1.19-.71-2.58-.84-3.9-.46-1.68.48-.97,3.12.72,2.63,1.95-.56,2.57,1.22,3.54,2.49-.12.5-.29.99-.37,1.51-.28,1.72,2.35,2.45,2.63.72.28-1.7.71-3.36,1.44-4.94.58-1.27,1.67-3.82,3.14-4.23,1.69-.47.97-3.1-.72-2.63v.02Z" style="fill: #d1b2a1;"/>
  </g>
</svg>